<?xml version="1.0" encoding="UTF-8" standalone="no"?>
<!DOCTYPE svg PUBLIC "-//W3C//DTD SVG 1.1//EN" "http://www.w3.org/Graphics/SVG/1.1/DTD/svg11.dtd">
<svg width="100%" height="100%" viewBox="0 0 50 50" version="1.1" xmlns="http://www.w3.org/2000/svg" xmlns:xlink="http://www.w3.org/1999/xlink" xml:space="preserve" xmlns:serif="http://www.serif.com/" style="fill-rule:evenodd;clip-rule:evenodd;">
    <g id="surface1" transform="matrix(1,0,0,1,0.000664913,0)">
        <path d="M0,0L0,50L50,50L50,0L0,0ZM2,2L48,2L48,48L2,48L2,2Z" style="fill-rule:nonzero;"/>
    </g>
    <g transform="matrix(-1,0,0,1,52.1108,1.99786)">
        <path d="M41.181,4.994L43.069,4.994L43.069,6.885L44.95,6.885L44.95,8.773L41.182,8.773L41.182,8.106L41.181,8.106L41.181,4.994Z"/>
    </g>
    <g transform="matrix(-1,0,0,-1,52.1108,48.0021)">
        <path d="M41.181,4.994L43.069,4.994L43.069,6.885L44.95,6.885L44.95,8.773L41.182,8.773L41.182,8.106L41.181,8.106L41.181,4.994Z"/>
    </g>
    <g transform="matrix(0.221638,0,0,0.221638,-4.16918,-3.75793)">
        <path d="M173.657,86.02C176.174,88.63 176.174,92.862 173.657,95.472C171.14,98.082 167.059,98.082 164.542,95.472C162.025,92.862 162.025,88.63 164.542,86.02C167.059,83.41 171.14,83.41 173.657,86.02" style="fill-rule:nonzero;"/>
    </g>
    <g transform="matrix(0.221638,0,0,0.221638,-4.05903,-3.52743)">
        <path d="M144.095,115.69C151.266,122.882 151.266,134.543 144.095,141.734C136.924,148.926 125.297,148.926 118.126,141.734C110.955,134.543 110.955,122.882 118.126,115.69C125.297,108.498 136.924,108.498 144.095,115.69Z" style="fill:none;stroke:black;stroke-width:6.77px;"/>
    </g>
    <g transform="matrix(1,0,0,1,-2.11082,1.99786)">
        <path d="M41.181,4.994L43.069,4.994L43.069,6.885L44.95,6.885L44.95,8.773L41.182,8.773L41.182,8.106L41.181,8.106L41.181,4.994Z"/>
    </g>
    <g transform="matrix(1,0,0,-1,-2.11082,48.0021)">
        <path d="M41.181,4.994L43.069,4.994L43.069,6.885L44.95,6.885L44.95,8.773L41.182,8.773L41.182,8.106L41.181,8.106L41.181,4.994Z"/>
    </g>
    <g transform="matrix(0.221638,0,0,0.221638,-4.1192,-3.42281)">
        <path d="M98.228,86.02C100.745,88.63 100.745,92.862 98.228,95.472C95.711,98.082 91.63,98.082 89.113,95.472C86.596,92.862 86.596,88.63 89.113,86.02C91.63,83.41 95.711,83.41 98.228,86.02" style="fill-rule:nonzero;"/>
    </g>
    <g transform="matrix(0.221638,0,0,0.221638,-4.1192,-3.42281)">
        <path d="M173.657,161.008C176.174,163.618 176.174,167.85 173.657,170.46C171.14,173.07 167.059,173.07 164.542,170.46C162.025,167.85 162.025,163.618 164.542,161.008C167.059,158.398 171.14,158.398 173.657,161.008" style="fill-rule:nonzero;"/>
    </g>
    <g transform="matrix(0.221638,0,0,0.221638,-4.1192,-3.42281)">
        <path d="M98.228,161.008C100.745,163.618 100.745,167.85 98.228,170.46C95.711,173.07 91.63,173.07 89.113,170.46C86.596,167.85 86.596,163.618 89.113,161.008C91.63,158.398 95.711,158.398 98.228,161.008" style="fill-rule:nonzero;"/>
    </g>
    <g transform="matrix(0.221638,0,0,0.221638,-4.1192,-3.42281)">
        <path d="M173.657,86.02C176.174,88.63 176.174,92.862 173.657,95.472C171.14,98.082 167.059,98.082 164.542,95.472C162.025,92.862 162.025,88.63 164.542,86.02C167.059,83.41 171.14,83.41 173.657,86.02" style="fill-rule:nonzero;"/>
    </g>
    <g id="surface11" serif:id="surface1" transform="matrix(0.230639,6.93889e-18,-6.93889e-18,0.230639,21.7711,35.1242)">
        <path d="M29.699,47C29.578,47 29.457,46.977 29.34,46.934C29.09,46.836 28.891,46.645 28.781,46.398L22.945,32.906L15.684,39.73C15.395,40.004 14.969,40.074 14.602,39.918C14.238,39.762 14,39.398 14,39L14,6C14,5.602 14.234,5.242 14.602,5.082C14.965,4.926 15.391,4.996 15.684,5.27L39.684,27.668C39.973,27.938 40.074,28.355 39.945,28.727C39.816,29.102 39.48,29.363 39.086,29.398L28.902,30.273L35.008,43.586C35.117,43.824 35.129,44.102 35.035,44.352C34.941,44.602 34.758,44.801 34.516,44.91L30.113,46.91C29.98,46.969 29.844,47 29.699,47Z" style="fill-rule:nonzero;"/>
    </g>
</svg>
