<?xml version="1.0" encoding="UTF-8" standalone="no"?>
<!DOCTYPE svg PUBLIC "-//W3C//DTD SVG 1.1//EN" "http://www.w3.org/Graphics/SVG/1.1/DTD/svg11.dtd">
<svg xmlns="http://www.w3.org/2000/svg" xmlns:xlink="http://www.w3.org/1999/xlink" viewBox="0 0 50 50" version="1.1">
<g id="surface1">
<path style=" " d="M 25 0 C 23.15625 0 21.660156 1.292969 21.203125 3 L 9 3 C 7.355469 3 6 4.355469 6 6 L 6 45 C 6 46.644531 7.355469 48 9 48 L 41 48 C 42.644531 48 44 46.644531 44 45 L 44 6 C 44 4.355469 42.644531 3 41 3 L 28.796875 3 C 28.339844 1.292969 26.84375 0 25 0 Z M 25 2 C 26.117188 2 27 2.882813 27 4 C 27 4.550781 27.449219 5 28 5 L 31 5 L 31 7 L 19 7 L 19 5 L 22 5 C 22.550781 5 23 4.550781 23 4 C 23 2.882813 23.882813 2 25 2 Z M 9 5 L 17 5 L 17 8 C 17 8.550781 17.449219 9 18 9 L 32 9 C 32.550781 9 33 8.550781 33 8 L 33 5 L 41 5 C 41.566406 5 42 5.433594 42 6 L 42 45 C 42 45.566406 41.566406 46 41 46 L 9 46 C 8.433594 46 8 45.566406 8 45 L 8 6 C 8 5.433594 8.433594 5 9 5 Z M 33 12 C 33 12 29.738281 15 30 15 L 32 15 L 32 17.03125 C 31.996094 17.390625 32.183594 17.726563 32.496094 17.90625 C 32.808594 18.089844 33.191406 18.089844 33.503906 17.90625 C 33.816406 17.726563 34.003906 17.390625 34 17.03125 L 34 15 L 36 15 Z M 14.988281 17.988281 C 14.582031 17.992188 14.21875 18.238281 14.0625 18.613281 C 13.910156 18.992188 14 19.421875 14.292969 19.707031 L 15.585938 21 L 14.292969 22.292969 C 14.03125 22.542969 13.925781 22.917969 14.019531 23.265625 C 14.109375 23.617188 14.382813 23.890625 14.734375 23.980469 C 15.082031 24.074219 15.457031 23.96875 15.707031 23.707031 L 17 22.414063 L 18.292969 23.707031 C 18.542969 23.96875 18.917969 24.074219 19.265625 23.980469 C 19.617188 23.890625 19.890625 23.617188 19.980469 23.265625 C 20.074219 22.917969 19.96875 22.542969 19.707031 22.292969 L 18.414063 21 L 19.707031 19.707031 C 20.003906 19.417969 20.089844 18.980469 19.929688 18.601563 C 19.769531 18.21875 19.394531 17.976563 18.980469 17.988281 C 18.71875 17.996094 18.472656 18.105469 18.292969 18.292969 L 17 19.585938 L 15.707031 18.292969 C 15.519531 18.097656 15.261719 17.992188 14.988281 17.988281 Z M 33 19 C 31.894531 19 31 19.894531 31 21 C 31 22.105469 31.894531 23 33 23 C 34.105469 23 35 22.105469 35 21 C 35 19.894531 34.105469 19 33 19 Z M 29.546875 22.222656 C 29.355469 22.226563 29.167969 22.285156 29.011719 22.390625 L 19.003906 28.863281 C 18.695313 29.054688 18.511719 29.398438 18.527344 29.761719 C 18.542969 30.125 18.753906 30.449219 19.078125 30.613281 C 19.40625 30.773438 19.792969 30.75 20.09375 30.542969 L 30.09375 24.070313 C 30.476563 23.832031 30.652344 23.367188 30.523438 22.9375 C 30.394531 22.507813 29.996094 22.214844 29.546875 22.222656 Z M 32.988281 27.988281 C 32.582031 27.992188 32.21875 28.238281 32.0625 28.613281 C 31.910156 28.992188 32 29.421875 32.292969 29.707031 L 33.585938 31 L 32.292969 32.292969 C 32.03125 32.542969 31.925781 32.917969 32.019531 33.265625 C 32.109375 33.617188 32.382813 33.890625 32.734375 33.980469 C 33.082031 34.074219 33.457031 33.96875 33.707031 33.707031 L 35 32.414063 L 36.292969 33.707031 C 36.542969 33.96875 36.917969 34.074219 37.265625 33.980469 C 37.617188 33.890625 37.890625 33.617188 37.980469 33.265625 C 38.074219 32.917969 37.96875 32.542969 37.707031 32.292969 L 36.414063 31 L 37.707031 29.707031 C 38.003906 29.417969 38.089844 28.980469 37.929688 28.601563 C 37.769531 28.21875 37.394531 27.976563 36.980469 27.988281 C 36.71875 27.996094 36.472656 28.105469 36.292969 28.292969 L 35 29.585938 L 33.707031 28.292969 C 33.519531 28.097656 33.261719 27.992188 32.988281 27.988281 Z M 16 30 C 14.894531 30 14 30.894531 14 32 C 14 33.105469 14.894531 34 16 34 C 17.105469 34 18 33.105469 18 32 C 18 30.894531 17.105469 30 16 30 Z M 19.449219 33.621094 C 19.023438 33.636719 18.65625 33.921875 18.53125 34.328125 C 18.410156 34.738281 18.558594 35.175781 18.902344 35.425781 L 23.722656 39.042969 C 24.007813 39.269531 24.394531 39.324219 24.730469 39.183594 C 25.066406 39.042969 25.300781 38.730469 25.339844 38.367188 C 25.382813 38.007813 25.21875 37.652344 24.921875 37.441406 L 20.105469 33.828125 C 19.917969 33.683594 19.683594 33.609375 19.449219 33.621094 Z M 28 39 C 26.894531 39 26 39.894531 26 41 C 26 42.105469 26.894531 43 28 43 C 29.105469 43 30 42.105469 30 41 C 30 39.894531 29.105469 39 28 39 Z "></path>
</g>
</svg>
