<?xml version="1.0" encoding="UTF-8" standalone="no"?>
<!DOCTYPE svg PUBLIC "-//W3C//DTD SVG 1.1//EN" "http://www.w3.org/Graphics/SVG/1.1/DTD/svg11.dtd">
<svg width="100%" height="100%" viewBox="0 0 30 30" version="1.1" xmlns="http://www.w3.org/2000/svg" xmlns:xlink="http://www.w3.org/1999/xlink" xml:space="preserve" xmlns:serif="http://www.serif.com/" style="fill-rule:evenodd;clip-rule:evenodd;stroke-linejoin:round;stroke-miterlimit:1.41421;">
    <path d="M15,3C8.385,3 3,8.385 3,15C3,21.615 8.385,27 15,27C21.615,27 27,21.615 27,15C27,8.385 21.615,3 15,3ZM15,5C20.535,5 25,9.465 25,15C25,20.535 20.535,25 15,25C9.465,25 5,20.535 5,15C5,9.465 9.465,5 15,5Z" style="fill-rule:nonzero;"/>
    <path d="M15.078,3C21.669,3.042 27,8.399 27,15C27,21.627 21.627,27 15,27C8.373,27 3,21.627 3,15C3,8.373 8.373,3 15,3M15,3C8.385,3 3,8.385 3,15C3,21.615 8.385,27 15,27C21.615,27 27,21.615 27,15C27,8.385 21.615,3 15,3ZM22,8L17,17L8,22L13,13L22,8ZM15,14C14.451,14 14,14.451 14,15C14,15.549 14.451,16 15,16C15.549,16 16,15.549 16,15C16,14.451 15.549,14 15,14Z" style="fill-rule:nonzero;"/>
</svg>
