<?xml version="1.0" encoding="UTF-8" standalone="no"?>
<!DOCTYPE svg PUBLIC "-//W3C//DTD SVG 1.1//EN" "http://www.w3.org/Graphics/SVG/1.1/DTD/svg11.dtd">
<svg xmlns="http://www.w3.org/2000/svg" viewBox="0 0 30 30">
    <path style="line-height:normal;text-indent:0;text-align:start;text-decoration-line:none;text-decoration-style:solid;text-decoration-color:#000;text-transform:none;block-progression:tb;isolation:auto;mix-blend-mode:normal" d="M 14.984375 0.98632812 A 1.0001 1.0001 0 0 0 14 2 L 14 3.0507812 C 8.1822448 3.5345683 3.5345683 8.1822448 3.0507812 14 L 2 14 A 1.0001 1.0001 0 1 0 2 16 L 3.0507812 16 C 3.5345683 21.817755 8.1822448 26.465432 14 26.949219 L 14 28 A 1.0001 1.0001 0 1 0 16 28 L 16 26.949219 C 21.817755 26.465432 26.465432 21.817755 26.949219 16 L 28 16 A 1.0001 1.0001 0 1 0 28 14 L 26.949219 14 C 26.465432 8.1822448 21.817755 3.5345683 16 3.0507812 L 16 2 A 1.0001 1.0001 0 0 0 14.984375 0.98632812 z M 14 5.0488281 L 14 6 A 1.0001 1.0001 0 1 0 16 6 L 16 5.0488281 C 20.732953 5.5164646 24.483535 9.2670468 24.951172 14 L 24 14 A 1.0001 1.0001 0 1 0 24 16 L 24.951172 16 C 24.483535 20.732953 20.732953 24.483535 16 24.951172 L 16 24 A 1.0001 1.0001 0 0 0 14.984375 22.986328 A 1.0001 1.0001 0 0 0 14 24 L 14 24.951172 C 9.2670468 24.483535 5.5164646 20.732953 5.0488281 16 L 6 16 A 1.0001 1.0001 0 1 0 6 14 L 5.0488281 14 C 5.5164646 9.2670468 9.2670468 5.5164646 14 5.0488281 z" font-weight="400" font-family="sans-serif" white-space="normal" overflow="visible"></path>
</svg>
