<?xml version="1.0" encoding="UTF-8"?>
<svg width="76px" height="71px" viewBox="0 0 76 71" version="1.1" xmlns="http://www.w3.org/2000/svg" xmlns:xlink="http://www.w3.org/1999/xlink">
    <!-- Generator: Sketch 53.1 (72631) - https://sketchapp.com -->
    <title>heart</title>
    <desc>Created with Sketch.</desc>
    <g id="heart" stroke="none" stroke-width="1" fill="none" fill-rule="evenodd">
        <path d="M69.0213005,38.9662948 L37.8944444,70.0873175 L6.7634026,38.9621098 C6.69757803,38.8970868 6.63218355,38.831704 6.5672213,38.7659653 L5.61786809,37.81679 L5.65140042,37.7832577 C2.04259135,33.6757912 0,28.381722 0,22.7666667 C0,10.1943589 10.1943589,0 22.7666667,0 C28.3793578,0 33.6713482,2.04413682 37.7806614,5.65399667 L37.8944444,5.54021365 L38.0108257,5.65659495 C42.1205572,2.04511772 47.4137402,0 53.0277778,0 C65.6000855,0 75.7944444,10.1943589 75.7944444,22.7666667 C75.7944444,28.3830696 73.7508726,33.6783322 70.1404455,37.7862147 L70.1710208,37.81679 L69.4424127,38.5452616 C69.3049457,38.6881575 69.1654728,38.8294328 69.0240165,38.9690467 L69.0213005,38.9662948 L69.0213005,38.9662948 Z M67.5019114,35.1476806 C70.4242352,31.7374605 72.0722222,27.3851984 72.0722222,22.7666667 C72.0722222,12.2500855 63.5443589,3.72222222 53.0277778,3.72222222 C48.4121458,3.72222222 44.0616972,5.37137432 40.6493727,8.29514195 L67.5019114,35.1476806 L67.5019114,35.1476806 Z M8.2899696,35.1446885 L35.1420794,8.29257864 C31.7302042,5.37041045 27.3809496,3.72222222 22.7666667,3.72222222 C12.2500855,3.72222222 3.72222222,12.2500855 3.72222222,22.7666667 C3.72222222,27.3838477 5.36924549,31.7349149 8.2899696,35.1446885 L8.2899696,35.1446885 Z M37.8944444,10.8042308 L10.8821319,37.8165433 L37.8944444,64.8237936 L64.906757,37.8165433 L37.8944444,10.8042308 Z M37.8944444,51.2166667 C30.4943589,51.2166667 24.4944444,45.2167522 24.4944444,37.8166667 C24.4944444,30.4165812 30.4943589,24.4166667 37.8944444,24.4166667 C45.29453,24.4166667 51.2944444,30.4165812 51.2944444,37.8166667 C51.2944444,45.2167522 45.29453,51.2166667 37.8944444,51.2166667 Z M37.8944444,47.4944444 C43.2388034,47.4944444 47.5722222,43.1610256 47.5722222,37.8166667 C47.5722222,32.4723077 43.2388034,28.1388889 37.8944444,28.1388889 C32.5500855,28.1388889 28.2166667,32.4723077 28.2166667,37.8166667 C28.2166667,43.1610256 32.5500855,47.4944444 37.8944444,47.4944444 Z" id="Shape" fill="#385AF1" fill-rule="nonzero"></path>
    </g>
</svg>