<?xml version="1.0" encoding="UTF-8" standalone="no"?>
<!DOCTYPE svg PUBLIC "-//W3C//DTD SVG 1.1//EN" "http://www.w3.org/Graphics/SVG/1.1/DTD/svg11.dtd">
<svg width="100%" height="100%" viewBox="0 0 200 200" version="1.1" xmlns="http://www.w3.org/2000/svg" xmlns:xlink="http://www.w3.org/1999/xlink" xml:space="preserve" xmlns:serif="http://www.serif.com/" style="fill-rule:evenodd;clip-rule:evenodd;stroke-linejoin:round;stroke-miterlimit:1.41421;">
    <g transform="matrix(1,0,0,1,1.50118,1.47588)">
        <g transform="matrix(1,0,0,1,-34.885,-28.74)">
            <path d="M173.657,86.02C176.174,88.63 176.174,92.862 173.657,95.472C171.14,98.082 167.059,98.082 164.542,95.472C162.025,92.862 162.025,88.63 164.542,86.02C167.059,83.41 171.14,83.41 173.657,86.02" style="fill:rgb(4,51,255);fill-rule:nonzero;stroke:rgb(4,51,255);stroke-width:4px;"/>
        </g>
        <g transform="matrix(1.14488,0,0,1.14488,-51.6064,-48.8604)">
            <path d="M144.095,115.69C151.266,122.882 151.266,134.543 144.095,141.734C136.924,148.926 125.297,148.926 118.126,141.734C110.955,134.543 110.955,122.882 118.126,115.69C125.297,108.498 136.924,108.498 144.095,115.69Z" style="fill:none;stroke:rgb(4,51,255);stroke-width:9.61px;stroke-linejoin:miter;stroke-miterlimit:4;"/>
        </g>
        <g transform="matrix(-1.76133,0,0,-1.76133,350.917,192.37)">
            <path d="M171.277,8.258L177.554,8.258L177.554,19.029L188.282,19.029L188.282,25.306L171.28,25.306L171.28,22.3L171.277,22.3L171.277,8.258Z" style="fill:rgb(4,51,255);"/>
        </g>
        <g transform="matrix(-1.76133,0,0,1.76133,350.917,4.67848)">
            <path d="M171.277,8.258L177.554,8.258L177.554,19.029L188.282,19.029L188.282,25.306L171.28,25.306L171.28,22.3L171.277,22.3L171.277,8.258Z" style="fill:rgb(4,51,255);"/>
        </g>
        <g transform="matrix(1.76133,0,0,-1.76133,-153.92,192.37)">
            <path d="M171.277,8.258L177.554,8.258L177.554,19.029L188.282,19.029L188.282,25.306L171.28,25.306L171.28,22.3L171.277,22.3L171.277,8.258Z" style="fill:rgb(4,51,255);"/>
        </g>
        <g transform="matrix(1.76133,0,0,1.76133,-153.92,4.67848)">
            <path d="M171.277,8.258L177.554,8.258L177.554,19.029L188.282,19.029L188.282,25.306L171.28,25.306L171.28,22.3L171.277,22.3L171.277,8.258Z" style="fill:rgb(4,51,255);"/>
        </g>
        <g transform="matrix(1,0,0,1,-30.885,-28.74)">
            <path d="M98.228,86.02C100.745,88.63 100.745,92.862 98.228,95.472C95.711,98.082 91.63,98.082 89.113,95.472C86.596,92.862 86.596,88.63 89.113,86.02C91.63,83.41 95.711,83.41 98.228,86.02" style="fill:rgb(4,51,255);fill-rule:nonzero;stroke:rgb(4,51,255);stroke-width:4px;"/>
        </g>
        <g transform="matrix(1,0,0,1,-34.885,-30.74)">
            <path d="M173.657,161.008C176.174,163.618 176.174,167.85 173.657,170.46C171.14,173.07 167.059,173.07 164.542,170.46C162.025,167.85 162.025,163.618 164.542,161.008C167.059,158.398 171.14,158.398 173.657,161.008" style="fill:rgb(4,51,255);fill-rule:nonzero;stroke:rgb(4,51,255);stroke-width:4px;"/>
        </g>
        <g transform="matrix(1,0,0,1,-30.885,-30.74)">
            <path d="M98.228,161.008C100.745,163.618 100.745,167.85 98.228,170.46C95.711,173.07 91.63,173.07 89.113,170.46C86.596,167.85 86.596,163.618 89.113,161.008C91.63,158.398 95.711,158.398 98.228,161.008" style="fill:rgb(4,51,255);fill-rule:nonzero;stroke:rgb(4,51,255);stroke-width:4px;"/>
        </g>
    </g>
</svg>
