<?xml version="1.0" encoding="UTF-8" standalone="no"?>
<!DOCTYPE svg PUBLIC "-//W3C//DTD SVG 1.1//EN" "http://www.w3.org/Graphics/SVG/1.1/DTD/svg11.dtd">
<svg width="100%" height="100%" viewBox="0 0 1680 200" version="1.1" xmlns="http://www.w3.org/2000/svg" xmlns:xlink="http://www.w3.org/1999/xlink" xml:space="preserve" xmlns:serif="http://www.serif.com/" style="fill-rule:evenodd;clip-rule:evenodd;stroke-linejoin:round;stroke-miterlimit:1.41421;">
    <g transform="matrix(1,0,0,1,-24.6509,26.5488)">
        <path d="M434.45,39.687L462.548,39.687L462.548,117.051L474.392,117.051L474.392,39.687L502.49,39.687L502.49,28.851L434.45,28.851L434.45,39.687Z" style="fill:rgb(4,51,255);fill-rule:nonzero;"/>
        <path d="M572.546,117.051L584.39,117.051L584.39,28.851L572.546,28.851L572.546,66.273L526.934,66.273L526.934,28.851L515.09,28.851L515.09,117.051L526.934,117.051L526.934,77.109L572.546,77.109L572.546,117.051Z" style="fill:rgb(4,51,255);fill-rule:nonzero;"/>
        <path d="M604.55,117.051L659.36,117.051L659.36,106.215L616.394,106.215L616.394,77.109L651.8,77.109L651.8,66.273L616.394,66.273L616.394,39.687L659.36,39.687L659.36,28.851L604.55,28.851L604.55,117.051Z" style="fill:rgb(4,51,255);fill-rule:nonzero;"/>
        <path d="M706.61,117.051L718.454,117.051L718.454,85.299L735.59,85.299C757.64,85.299 768.35,74.589 768.35,57.075C768.35,39.057 758.144,28.851 735.59,28.851L706.61,28.851L706.61,117.051ZM735.59,39.687C750.332,39.687 756.128,45.483 756.128,57.075C756.128,68.415 750.08,74.463 735.59,74.463L718.454,74.463L718.454,39.687L735.59,39.687Z" style="fill:rgb(4,51,255);fill-rule:nonzero;"/>
        <path d="M833.114,117.051L846.47,117.051L827.192,80.133C838.532,76.227 843.95,67.533 843.95,55.689C843.95,39.057 833.744,28.851 811.19,28.851L782.21,28.851L782.21,117.051L794.054,117.051L794.054,82.527L811.19,82.527C812.702,82.527 814.214,82.527 815.726,82.401L833.114,117.051ZM811.19,39.687C825.554,39.687 831.602,45.735 831.602,55.689C831.602,65.643 825.554,71.691 811.19,71.691L794.054,71.691L794.054,39.687L811.19,39.687Z" style="fill:rgb(4,51,255);fill-rule:nonzero;"/>
        <path d="M894.98,118.059C917.156,118.059 932.78,102.435 932.78,76.605L932.78,69.297C932.78,43.215 917.408,27.843 894.98,27.843C872.804,27.843 857.18,43.467 857.18,69.297L857.18,76.605C857.18,102.687 872.552,118.059 894.98,118.059ZM894.98,106.719C880.364,106.719 869.528,96.009 869.528,76.605L869.528,69.297C869.528,49.641 880.112,39.183 894.98,39.183C909.722,39.183 920.432,49.893 920.432,69.297L920.432,76.605C920.432,96.261 909.848,106.719 894.98,106.719Z" style="fill:rgb(4,51,255);fill-rule:nonzero;"/>
        <path d="M949.79,117.051L977.51,117.051C1003.47,117.051 1018.46,102.057 1018.46,76.731L1018.46,69.171C1018.46,43.593 1003.72,28.851 977.51,28.851L949.79,28.851L949.79,117.051ZM977.51,39.687C995.906,39.687 1006.11,49.767 1006.11,69.171L1006.11,76.731C1006.11,96.387 996.158,106.215 977.51,106.215L961.634,106.215L961.634,39.687L977.51,39.687Z" style="fill:rgb(4,51,255);fill-rule:nonzero;"/>
        <path d="M1068.86,118.059C1089.52,118.059 1102.88,104.703 1102.88,81.771L1102.88,28.851L1091.04,28.851L1091.04,81.771C1091.04,98.025 1082.34,106.719 1068.86,106.719C1055.38,106.719 1046.68,97.899 1046.68,81.771L1046.68,28.851L1034.84,28.851L1034.84,81.771C1034.84,104.829 1048.07,118.059 1068.86,118.059Z" style="fill:rgb(4,51,255);fill-rule:nonzero;"/>
        <path d="M1156.43,118.059C1175.71,118.059 1188.56,105.207 1191.08,88.701L1178.23,88.701C1175.71,99.159 1168.15,106.719 1156.43,106.719C1142.32,106.719 1131.61,96.009 1131.61,76.605L1131.61,69.297C1131.61,49.767 1142.19,39.183 1156.43,39.183C1168.27,39.183 1175.71,46.743 1178.23,54.681L1191.08,54.681C1188.56,40.569 1175.83,27.843 1156.43,27.843C1134.76,27.843 1119.26,43.341 1119.26,69.297L1119.26,76.605C1119.26,102.687 1134.63,118.059 1156.43,118.059Z" style="fill:rgb(4,51,255);fill-rule:nonzero;"/>
        <path d="M1194.23,39.687L1222.33,39.687L1222.33,117.051L1234.17,117.051L1234.17,39.687L1262.27,39.687L1262.27,28.851L1194.23,28.851L1194.23,39.687Z" style="fill:rgb(4,51,255);fill-rule:nonzero;"/>
        <path d="M1306.37,117.051L1318.21,117.051L1318.21,77.739L1353.62,77.739L1353.62,66.903L1318.21,66.903L1318.21,39.687L1361.18,39.687L1361.18,28.851L1306.37,28.851L1306.37,117.051Z" style="fill:rgb(4,51,255);fill-rule:nonzero;"/>
        <rect x="1375.42" y="28.851" width="11.844" height="88.2" style="fill:rgb(4,51,255);fill-rule:nonzero;"/>
        <path d="M1408.43,117.051L1463.24,117.051L1463.24,106.215L1420.27,106.215L1420.27,77.109L1455.68,77.109L1455.68,66.273L1420.27,66.273L1420.27,39.687L1463.24,39.687L1463.24,28.851L1408.43,28.851L1408.43,117.051Z" style="fill:rgb(4,51,255);fill-rule:nonzero;"/>
        <path d="M1478.99,117.051L1531.28,117.051L1531.28,106.215L1490.83,106.215L1490.83,28.851L1478.99,28.851L1478.99,117.051Z" style="fill:rgb(4,51,255);fill-rule:nonzero;"/>
        <path d="M1543.88,117.051L1571.6,117.051C1597.56,117.051 1612.55,102.057 1612.55,76.731L1612.55,69.171C1612.55,43.593 1597.81,28.851 1571.6,28.851L1543.88,28.851L1543.88,117.051ZM1571.6,39.687C1590,39.687 1600.2,49.767 1600.2,69.171L1600.2,76.731C1600.2,96.387 1590.25,106.215 1571.6,106.215L1555.72,106.215L1555.72,39.687L1571.6,39.687Z" style="fill:rgb(4,51,255);fill-rule:nonzero;"/>
    </g>
    <g transform="matrix(1,0,0,1,0,1)">
        <g transform="matrix(1,0,0,1,-34.885,-28.74)">
            <path d="M173.657,86.02C176.174,88.63 176.174,92.862 173.657,95.472C171.14,98.082 167.059,98.082 164.542,95.472C162.025,92.862 162.025,88.63 164.542,86.02C167.059,83.41 171.14,83.41 173.657,86.02" style="fill:rgb(4,51,255);fill-rule:nonzero;stroke:rgb(4,51,255);stroke-width:4px;"/>
        </g>
        <g transform="matrix(1.14488,0,0,1.14488,-51.6064,-48.8604)">
            <path d="M144.095,115.69C151.266,122.882 151.266,134.543 144.095,141.734C136.924,148.926 125.297,148.926 118.126,141.734C110.955,134.543 110.955,122.882 118.126,115.69C125.297,108.498 136.924,108.498 144.095,115.69Z" style="fill:none;stroke:rgb(4,51,255);stroke-width:9.61px;stroke-linejoin:miter;stroke-miterlimit:4;"/>
        </g>
        <g transform="matrix(-1.76133,0,0,-1.76133,350.917,192.37)">
            <path d="M171.277,8.258L177.554,8.258L177.554,19.029L188.282,19.029L188.282,25.306L171.28,25.306L171.28,22.3L171.277,22.3L171.277,8.258Z" style="fill:rgb(4,51,255);"/>
        </g>
        <g transform="matrix(-1.76133,0,0,1.76133,350.917,4.67848)">
            <path d="M171.277,8.258L177.554,8.258L177.554,19.029L188.282,19.029L188.282,25.306L171.28,25.306L171.28,22.3L171.277,22.3L171.277,8.258Z" style="fill:rgb(4,51,255);"/>
        </g>
        <g transform="matrix(1.76133,0,0,-1.76133,-153.92,192.37)">
            <path d="M171.277,8.258L177.554,8.258L177.554,19.029L188.282,19.029L188.282,25.306L171.28,25.306L171.28,22.3L171.277,22.3L171.277,8.258Z" style="fill:rgb(4,51,255);"/>
        </g>
        <g transform="matrix(1.76133,0,0,1.76133,-153.92,4.67848)">
            <path d="M171.277,8.258L177.554,8.258L177.554,19.029L188.282,19.029L188.282,25.306L171.28,25.306L171.28,22.3L171.277,22.3L171.277,8.258Z" style="fill:rgb(4,51,255);"/>
        </g>
        <g transform="matrix(1,0,0,1,-30.885,-28.74)">
            <path d="M98.228,86.02C100.745,88.63 100.745,92.862 98.228,95.472C95.711,98.082 91.63,98.082 89.113,95.472C86.596,92.862 86.596,88.63 89.113,86.02C91.63,83.41 95.711,83.41 98.228,86.02" style="fill:rgb(4,51,255);fill-rule:nonzero;stroke:rgb(4,51,255);stroke-width:4px;"/>
        </g>
        <g transform="matrix(1,0,0,1,-34.885,-30.74)">
            <path d="M173.657,161.008C176.174,163.618 176.174,167.85 173.657,170.46C171.14,173.07 167.059,173.07 164.542,170.46C162.025,167.85 162.025,163.618 164.542,161.008C167.059,158.398 171.14,158.398 173.657,161.008" style="fill:rgb(4,51,255);fill-rule:nonzero;stroke:rgb(4,51,255);stroke-width:4px;"/>
        </g>
        <g transform="matrix(1,0,0,1,-30.885,-30.74)">
            <path d="M98.228,161.008C100.745,163.618 100.745,167.85 98.228,170.46C95.711,173.07 91.63,173.07 89.113,170.46C86.596,167.85 86.596,163.618 89.113,161.008C91.63,158.398 95.711,158.398 98.228,161.008" style="fill:rgb(4,51,255);fill-rule:nonzero;stroke:rgb(4,51,255);stroke-width:4px;"/>
        </g>
    </g>
</svg>
