<?xml version="1.0" encoding="UTF-8" standalone="no"?>
<!DOCTYPE svg PUBLIC "-//W3C//DTD SVG 1.1//EN" "http://www.w3.org/Graphics/SVG/1.1/DTD/svg11.dtd">
<svg xmlns="http://www.w3.org/2000/svg" xmlns:xlink="http://www.w3.org/1999/xlink" viewBox="0 0 50 50" version="1.1">
<g id="surface1">
<path style=" " d="M 0.875 2 C 0.371094 2.0625 -0.00390625 2.492188 0 3 L 0 41 C -0.00390625 41.386719 0.214844 41.738281 0.5625 41.90625 L 12.5625 47.90625 C 12.839844 48.039063 13.160156 48.039063 13.4375 47.90625 L 25.03125 42.09375 L 37.59375 47.90625 C 37.875 48.03125 38.199219 48.019531 38.46875 47.875 L 49.46875 41.875 C 49.792969 41.703125 49.996094 41.367188 50 41 L 50 3 C 49.996094 2.652344 49.8125 2.328125 49.511719 2.148438 C 49.210938 1.96875 48.839844 1.960938 48.53125 2.125 L 37.96875 7.875 L 25.40625 2.09375 C 25.140625 1.96875 24.828125 1.96875 24.5625 2.09375 L 13 7.875 L 1.4375 2.09375 C 1.261719 2.007813 1.066406 1.976563 0.875 2 Z M 25.03125 4.09375 L 37.59375 9.90625 C 37.875 10.03125 38.199219 10.019531 38.46875 9.875 L 48 4.6875 L 48 40.40625 L 37.96875 45.875 L 25.40625 40.09375 C 25.140625 39.96875 24.828125 39.96875 24.5625 40.09375 L 13 45.875 L 2 40.375 L 2 4.625 L 12.5625 9.90625 C 12.839844 10.039063 13.160156 10.039063 13.4375 9.90625 Z M 29.90625 10.96875 L 29.8125 11 L 29.0625 11.46875 L 28.96875 12.34375 L 29.625 12.9375 L 29.9375 12.96875 L 30.0625 12.96875 L 30.875 13 L 31.6875 12.625 L 31.875 11.75 L 31.28125 11.0625 L 30.9375 11 L 30 10.96875 Z M 6.0625 11 L 5.25 11.34375 L 5.03125 12.21875 L 5.15625 12.53125 L 5.1875 12.59375 L 5.96875 13.03125 L 6.78125 12.6875 L 7 11.8125 L 6.875 11.5 L 6.84375 11.46875 Z M 35.0625 11.34375 L 34.21875 11.59375 L 33.90625 12.4375 L 34.375 13.1875 L 34.6875 13.3125 L 35.6875 13.5 L 36.53125 13.25 L 36.875 12.4375 L 36.375 11.65625 L 36.0625 11.53125 Z M 26 12.5625 L 25.6875 12.71875 L 24.875 13.28125 L 24.46875 14.09375 L 24.84375 14.90625 L 25.71875 15.0625 L 26.03125 14.90625 L 26.84375 14.34375 L 27.28125 13.53125 L 26.875 12.71875 Z M 40.0625 12.96875 L 39.15625 13 L 38.625 13.71875 L 38.90625 14.5625 L 39.125 14.75 L 39.1875 14.78125 L 39.9375 15.25 L 40.8125 15.34375 L 41.4375 14.6875 L 41.25 13.8125 L 41 13.5625 L 40.1875 13.0625 L 40.15625 13.03125 L 40.09375 13 Z M 22 14 C 20.34375 14 19 15.34375 19 17 C 19 18.65625 20.34375 20 22 20 C 23.65625 20 25 18.65625 25 17 C 25 15.34375 23.65625 14 22 14 Z M 8.3125 14.28125 L 7.53125 14.75 L 7.40625 15.625 L 7.59375 15.9375 L 8.0625 16.5 L 8.09375 16.53125 L 8.125 16.53125 L 8.3125 16.75 L 9.15625 17.03125 L 9.875 16.53125 L 9.9375 15.625 L 9.71875 15.34375 L 9.59375 15.1875 L 9.125 14.65625 Z M 43.3125 16.25 L 42.5 16.5625 L 42.25 17.4375 L 42.375 17.78125 L 42.59375 18.09375 L 42.625 18.15625 L 42.84375 18.5625 L 43.5625 19.09375 L 44.40625 18.84375 L 44.71875 18 L 44.625 17.65625 L 44.34375 17.15625 L 44.34375 17.125 L 44.3125 17.09375 L 44.09375 16.71875 Z M 11.71875 17.59375 L 11.15625 18.3125 L 11.375 19.15625 L 11.625 19.40625 L 11.90625 19.53125 L 11.96875 19.5625 L 12 19.59375 L 12.65625 19.84375 L 13.5625 19.78125 L 14.03125 19.03125 L 13.71875 18.1875 L 13.40625 18 L 12.875 17.78125 L 12.78125 17.75 L 12.625 17.65625 Z M 17.96875 17.96875 L 17.625 18 L 17.125 18.15625 L 17.03125 18.1875 L 16.75 18.25 L 16.0625 18.8125 L 16.09375 19.6875 L 16.8125 20.21875 L 17.15625 20.1875 L 17.53125 20.125 L 17.5625 20.125 L 17.625 20.09375 L 18.21875 19.90625 L 18.875 19.28125 L 18.75 18.40625 Z M 44.4375 21.03125 L 43.875 21.71875 L 43.84375 22.0625 L 43.90625 22.4375 L 43.90625 22.5 L 43.9375 23 L 44.40625 23.78125 L 45.3125 23.875 L 45.90625 23.21875 L 45.9375 22.84375 L 45.90625 22.28125 L 45.875 22.25 L 45.875 22.21875 L 45.8125 21.8125 L 45.3125 21.0625 Z M 44.65625 25.9375 L 43.9375 26.46875 L 43.84375 26.8125 L 43.75 27.5625 L 43.75 27.65625 L 43.71875 27.71875 L 43.96875 28.59375 L 44.78125 28.90625 L 45.5625 28.4375 L 45.6875 28.125 L 45.71875 27.96875 L 45.71875 27.875 L 45.84375 27.03125 L 45.53125 26.1875 Z M 43.65625 30.75 L 42.8125 31.0625 L 42.625 31.34375 L 42.625 31.375 L 42.5625 31.46875 L 42.21875 32.15625 L 42.1875 33.03125 L 42.875 33.59375 L 43.75 33.375 L 43.96875 33.09375 L 44.375 32.34375 L 44.40625 32.28125 L 44.40625 32.25 L 44.46875 32.125 L 44.40625 31.21875 Z M 40 33 C 38.34375 33 37 34.34375 37 36 C 37 37.65625 38.34375 39 40 39 C 41.65625 39 43 37.65625 43 36 C 43 34.34375 41.65625 33 40 33 Z M 20.46875 34.15625 L 19.65625 34.5625 L 19.46875 35.4375 L 20.09375 36.09375 L 20.4375 36.15625 L 20.9375 36.1875 L 20.9375 36.15625 L 21.3125 36.21875 L 22.15625 35.90625 L 22.4375 35.0625 L 21.90625 34.34375 L 21.5625 34.25 L 21.0625 34.1875 L 20.96875 34.1875 Z M 16.28125 34.625 L 16.21875 34.65625 L 16.15625 34.65625 L 15.21875 34.96875 L 14.59375 35.59375 L 14.71875 36.46875 L 15.5 36.90625 L 15.84375 36.875 L 16.78125 36.5625 L 16.78125 36.53125 L 17.375 36.03125 L 17.375 35.125 L 16.625 34.625 Z M 11 35 C 9.34375 35 8 36.34375 8 38 C 8 39.65625 9.34375 41 11 41 C 12.65625 41 14 39.65625 14 38 C 14 36.34375 12.65625 35 11 35 Z M 25.625 35.125 L 24.75 35.28125 L 24.34375 36.0625 L 24.75 36.875 L 25.0625 37.03125 L 25.8125 37.28125 L 26 37.3125 L 26.875 37.1875 L 27.3125 36.40625 L 26.90625 35.59375 L 26.59375 35.40625 L 26.40625 35.375 L 26.40625 35.34375 Z M 30.34375 36.53125 L 29.46875 36.75 L 29.125 37.59375 L 29.59375 38.34375 L 29.90625 38.5 L 30.90625 38.6875 L 31.75 38.46875 L 32.09375 37.65625 L 31.65625 36.875 L 31.3125 36.75 Z M 36.1875 36.8125 L 35.84375 36.84375 L 35.75 36.84375 L 34.9375 36.96875 L 34.21875 37.46875 L 34.1875 38.375 L 34.875 38.9375 L 35.21875 38.9375 L 36.15625 38.8125 L 36.25 38.8125 L 36.3125 38.78125 L 37 38.1875 L 36.9375 37.3125 Z "></path>
</g>
</svg>
