<?xml version="1.0" encoding="UTF-8" standalone="no"?>
<!DOCTYPE svg PUBLIC "-//W3C//DTD SVG 1.1//EN" "http://www.w3.org/Graphics/SVG/1.1/DTD/svg11.dtd">
<svg xmlns="http://www.w3.org/2000/svg" viewBox="0 0 30 30">
    <path style="line-height:normal;text-indent:0;text-align:start;text-decoration-line:none;text-decoration-style:solid;text-decoration-color:#000;text-transform:none;block-progression:tb;isolation:auto;mix-blend-mode:normal" d="M 14.984375 2.9863281 A 1.0001 1.0001 0 0 0 14.207031 3.3769531 A 1.0001 1.0001 0 0 0 14.203125 3.3828125 L 9.2929688 8.2929688 A 1.0001 1.0001 0 1 0 10.707031 9.7070312 L 14 6.4140625 L 14 17 C 14 21.430666 10.430666 25 6 25 A 1.0001 1.0001 0 1 0 6 27 C 11.511334 27 16 22.511334 16 17 L 16 6.4140625 L 19.292969 9.7070312 A 1.0001 1.0001 0 1 0 20.707031 8.2929688 L 15.791016 3.3769531 A 1.0001 1.0001 0 0 0 14.984375 2.9863281 z M 17.21875 21.222656 C 16.94875 21.938656 16.612797 22.620672 16.216797 23.263672 C 18.051797 25.539672 20.856 27 24 27 C 24.552 27 25 26.552 25 26 C 25 25.448 24.552 25 24 25 C 21.14 25 18.63375 23.485656 17.21875 21.222656 z" font-weight="400" font-family="sans-serif" white-space="normal" overflow="visible"></path>
</svg>
