<svg viewBox="0 0 338 338" xmlns="http://www.w3.org/2000/svg" xmlns:serif="http://www.serif.com/" fill-rule="evenodd" clip-rule="evenodd" stroke-linecap="square"><g serif:id="The-Product-Field-|-01-Frame-|-Elements-and-Character"><path fill="#fff" d="M0 0h338v338H0z"/><path d="M99.691 99l-42-42" fill="none" stroke="#000"/><path d="M239.61 99l42-42M99.691 239l-42 42M239.61 239l42 42" fill="none" stroke="#000" serif:id="Line"/><path d="M39.22 40.492h2.216v-.624h-.712V35.46h.712v-.616H39.22v.616h.704v4.408h-.704v.624zm3.656 0h2.416c.448 0 .824-.032 1.192-.152 1.104-.352 1.784-1.304 1.784-2.672 0-1.376-.704-2.352-1.784-2.688-.376-.112-.728-.136-1.2-.136h-2.408v.616h.704v4.408h-.704v.624zm1.504-.656V35.5h.864c.368 0 .656.016.968.128.752.272 1.224 1 1.224 2.04 0 1.032-.472 1.76-1.232 2.024-.288.112-.592.144-.96.144h-.864zM39.22 49.458h4.224v-1.336h-.696v.68h-2.024v-1.864h2v-.656h-2v-1.816h1.888v.656h.696V43.81H39.22v.616h.704v4.408h-.704v.624zm4.92 0h1.96v-.624h-.608l.44-1.256h2l.44 1.256h-.6v.624h1.96v-.624h-.544l-1.8-5.024h-.904l-1.8 5.024h-.544v.624zm1.992-2.52l.696-1.96c.072-.232.096-.432.096-.432h.024s.016.2.096.432l.688 1.96h-1.6zM289.603 40.488h.848l1.784-5.032h.56v-.616h-2.016v.616h.624l-1.264 3.72c-.064.2-.096.44-.096.44h-.024s-.032-.24-.096-.44l-1.264-3.72h.624v-.616h-2.016v.616h.552l1.784 5.032zm3.472 0h1.96v-.624h-.608l.44-1.256h2l.44 1.256h-.6v.624h1.96v-.624h-.544l-1.8-5.024h-.904l-1.8 5.024h-.544v.624zm1.992-2.52l.696-1.96c.072-.232.096-.432.096-.432h.024s.016.2.096.432l.688 1.96h-1.6zm4.72 2.52h4.176V38.92h-.704v.912h-1.968v-4.336h.712v-.656h-2.216v.656h.704v4.368h-.704v.624zM288.131 47.398c0 .544.112 1.016.376 1.376.384.52 1.056.824 1.856.824.768 0 1.456-.28 1.84-.824.248-.352.392-.84.392-1.376V44.47h.704v-.616h-2.216v.616h.712v2.912c0 .368-.08.68-.216.912-.232.384-.68.592-1.216.592-.544 0-.984-.208-1.216-.576-.144-.232-.216-.552-.216-.92v-2.92h.712v-.616h-2.224v.616h.712v2.928zm6.44 2.104h4.224v-1.336h-.696v.68h-2.024v-1.864h2v-.656h-2V44.51h1.888v.656h.696v-1.312h-4.088v.616h.704v4.408h-.704v.624zM286.755 301.181h2.2v-.624h-.696v-1.976h.464c.232 0 .344.064.44.224l1.088 1.952c.176.312.312.424.784.424h.568v-.624h-.264c-.2 0-.312-.056-.4-.208l-1.016-1.768c-.16-.304-.32-.376-.32-.376v-.016l1.464-2.04h.544v-.616H289.7v.616h.52l-1.232 1.776h-.728v-1.776h.616v-.616h-2.12v.616h.704v4.408h-.704v.624zm6.036 0h4.224v-1.336h-.696v.68h-2.024v-1.864h2v-.656h-2v-1.816h1.888v.656h.696v-1.312h-4.088v.616h.704v4.408h-.704v.624zm6.676 0h2.224v-.624h-.712v-4.368h1.328v.88h.696v-1.536h-4.848v1.536h.696v-.88h1.328v4.368h-.712v.624zM286.635 292.472h2.176v-.624h-.68l.256-3.376c.008-.176-.024-.464-.024-.464h.024s.064.272.128.432l1.296 2.968h.704l1.296-2.968a3.91 3.91 0 0 0 .128-.432h.024s-.032.288-.024.464l.256 3.376h-.68v.624h2.176v-.624h-.704l-.36-4.408h.72v-.616h-1.6l-1.448 3.44c-.088.232-.128.408-.128.408h-.016s-.04-.176-.128-.408l-1.448-3.44h-1.6v.616h.72l-.36 4.408h-.704v.624zm7.748 0h1.96v-.624h-.608l.44-1.256h2l.44 1.256h-.6v.624h1.96v-.624h-.544l-1.8-5.024h-.904l-1.8 5.024h-.544v.624zm1.992-2.52l.696-1.96c.072-.232.096-.432.096-.432h.024s.016.2.096.432l.688 1.96h-1.6zm4.412 2.52h2.2v-.624h-.696v-1.656h.672c.344 0 .448.072.592.312l.872 1.544c.192.336.304.424.784.424h.48v-.624h-.168c-.2 0-.304-.032-.392-.184l-.8-1.392a.675.675 0 0 0-.24-.264v-.016c.72-.184 1.168-.768 1.168-1.584 0-.768-.392-1.264-.984-1.464-.312-.104-.64-.12-1.04-.12h-2.448v.616h.704v4.408h-.704v.624zm1.504-2.936v-2.056h.936c.272 0 .512.032.696.104.352.144.528.448.528.888 0 .664-.408 1.064-1.024 1.064h-1.136zM36.348 292.486h2.2v-.624h-.696v-1.656h.672c.344 0 .448.072.592.312l.872 1.544c.192.336.304.424.784.424h.48v-.624h-.168c-.2 0-.304-.032-.392-.184l-.8-1.392c-.096-.184-.24-.264-.24-.264v-.016c.72-.184 1.168-.768 1.168-1.584 0-.768-.392-1.264-.984-1.464-.312-.104-.64-.12-1.04-.12h-2.448v.616h.704v4.408h-.704v.624zm1.504-2.936v-2.056h.936c.272 0 .512.032.696.104.352.144.528.448.528.888 0 .664-.408 1.064-1.024 1.064h-1.136zm4.372 2.936h4.224v-1.336h-.696v.68h-2.024v-1.864h2v-.656h-2v-1.816h1.888v.656h.696v-1.312h-4.088v.616h.704v4.408h-.704v.624zm5.356-1.696v.592c0 .808.984 1.2 1.864 1.2 1.048 0 1.928-.56 1.928-1.64 0-1.048-.824-1.368-1.656-1.68-.632-.24-1.2-.44-1.2-1.04 0-.52.44-.776.992-.776.464 0 .968.176.968.504v.392h.744v-.664c0-.616-.864-.936-1.712-.936-.952 0-1.808.456-1.808 1.52 0 1 .76 1.32 1.504 1.6.696.272 1.36.488 1.36 1.144 0 .56-.472.864-1.12.864-.592 0-1.128-.248-1.128-.664v-.416h-.736zM36.316 307.382c0 1.648 1.224 2.952 2.92 2.952.784 0 2.2-.28 2.2-1.112v-.688h-.744v.44c0 .52-1.008.664-1.408.664-1.232 0-2.144-.952-2.144-2.288 0-1.28.888-2.168 2.096-2.168.52 0 1.376.184 1.376.68v.44h.744v-.688c0-.872-1.472-1.12-2.152-1.12-1.632 0-2.888 1.232-2.888 2.888zm6.284 2.856h4.224v-1.336h-.696v.68h-2.024v-1.864h2v-.656h-2v-1.816h1.888v.656h.696v-1.312H42.6v.616h.704v4.408H42.6v.624zm5.356-1.696v.592c0 .808.984 1.2 1.864 1.2 1.048 0 1.928-.56 1.928-1.64 0-1.048-.824-1.368-1.656-1.68-.632-.24-1.2-.44-1.2-1.04 0-.52.44-.776.992-.776.464 0 .968.176.968.504v.392h.744v-.664c0-.616-.864-.936-1.712-.936-.952 0-1.808.456-1.808 1.52 0 1 .76 1.32 1.504 1.6.696.272 1.36.488 1.36 1.144 0 .56-.472.864-1.12.864-.592 0-1.128-.248-1.128-.664v-.416h-.736zM36.308 298.514c0 1.664 1.264 2.96 2.904 2.96 1.632 0 2.904-1.296 2.904-2.96 0-1.624-1.272-2.88-2.904-2.88-1.64 0-2.904 1.256-2.904 2.88zm.824 0c0-1.232.928-2.176 2.08-2.176 1.144 0 2.072.944 2.072 2.176 0 1.272-.928 2.248-2.072 2.248-1.152 0-2.08-.976-2.08-2.248zm6.388.76c0 .544.112 1.016.376 1.376.384.52 1.056.824 1.856.824.768 0 1.456-.28 1.84-.824.248-.352.392-.84.392-1.376v-2.928h.704v-.616h-2.216v.616h.712v2.912c0 .368-.08.68-.216.912-.232.384-.68.592-1.216.592-.544 0-.984-.208-1.216-.576-.144-.232-.216-.552-.216-.92v-2.92h.712v-.616h-2.224v.616h.712v2.928zm5.94 2.104h2.2v-.624h-.696v-1.656h.672c.344 0 .448.072.592.312l.872 1.544c.192.336.304.424.784.424h.48v-.624h-.168c-.2 0-.304-.032-.392-.184l-.8-1.392c-.096-.184-.24-.264-.24-.264v-.016c.72-.184 1.168-.768 1.168-1.584 0-.768-.392-1.264-.984-1.464-.312-.104-.64-.12-1.04-.12H49.46v.616h.704v4.408h-.704v.624zm1.504-2.936v-2.056h.936c.272 0 .512.032.696.104.352.144.528.448.528.888 0 .664-.408 1.064-1.024 1.064h-1.136z"/><g><path d="M57.691 288.5V281h-7.5" fill="none" stroke="#000" stroke-linecap="butt"/></g><g><path d="M57.691 49.5V57h-7.5" fill="none" stroke="#000" stroke-linecap="butt"/></g><g><path d="M281.691 288.5V281h7.5" fill="none" stroke="#000" stroke-linecap="butt"/></g><g><path d="M281.691 49.5V57h7.5" fill="none" stroke="#000" stroke-linecap="butt"/></g><g fill="none" stroke="#000"><path stroke-linecap="butt" d="M99 98.5h141v141H99z"/><path serif:id="Line" d="M169.5 99v49.092"/><path d="M169.5 189.671v49.092M190.383 169h49.091M99.908 169H149"/></g><g><path d="M169.5 189c11.046 0 20-8.954 20-20.001 0-11.045-8.954-19.999-20-19.999s-20 8.954-20 19.999c0 11.047 8.954 20.001 20 20.001z" fill="none" stroke="#1d1c1b" stroke-linecap="butt"/></g><g><path d="M99.5 100.5a1.5 1.5 0 1 0 0-3 1.5 1.5 0 0 0 0 3M239.5 100.5a1.5 1.5 0 1 0 0-3 1.5 1.5 0 0 0 0 3M99.5 240.5a1.5 1.5 0 1 0 0-3 1.5 1.5 0 0 0 0 3M239.5 240.5a1.5 1.5 0 1 0 0-3 1.5 1.5 0 0 0 0 3"/></g><g fill="none" stroke="#000" stroke-linecap="butt"><path d="M169.5 49.086v49.415M169.5 288.95v-49.546M49.572 169H99.06" stroke-dasharray="1.98,1.98"/><path d="M289.84 169h-49.85" stroke-dasharray="1.99,1.99"/></g><g><path d="M115.083 136.153c-.316.372-.781.558-1.393.558-.507 0-.893-.147-1.158-.441-.265-.295-.399-.731-.402-1.308v-3.094h.813v3.072c0 .721.293 1.081.879 1.081.621 0 1.034-.231 1.239-.694v-3.459h.813v4.755h-.773l-.018-.47zm2.795-4.285l.026.598a1.734 1.734 0 0 1 1.424-.685c1.005 0 1.512.566 1.521 1.7v3.142h-.813v-3.146c-.003-.343-.082-.596-.235-.76-.154-.165-.394-.247-.719-.247-.263 0-.495.071-.694.211a1.44 1.44 0 0 0-.466.554v3.388h-.813v-4.755h.769zm5.08 4.755h-.813v-4.755h.813v4.755zm-.879-6.016c0-.132.041-.243.121-.334.081-.091.2-.136.358-.136.158 0 .279.045.361.136a.48.48 0 0 1 .123.334.465.465 0 0 1-.123.33c-.082.088-.203.132-.361.132-.158 0-.277-.044-.358-.132a.473.473 0 0 1-.121-.33zm1.982 3.599c0-.747.172-1.338.514-1.773.343-.435.803-.652 1.38-.652.563 0 1.007.188 1.332.566l.035-.479h.747v6.583h-.813v-2.267c-.328.351-.765.527-1.31.527-.574 0-1.032-.223-1.373-.67-.341-.447-.512-1.039-.512-1.778v-.057zm.813.093c0 .545.115.972.345 1.283.23.31.54.466.93.466.483 0 .852-.214 1.107-.642v-2.329c-.258-.419-.624-.629-1.099-.629-.392 0-.704.156-.936.469-.231.312-.347.772-.347 1.382zm7.436 1.854c-.317.372-.781.558-1.393.558-.507 0-.893-.147-1.158-.441-.265-.295-.399-.731-.402-1.308v-3.094h.813v3.072c0 .721.293 1.081.878 1.081.622 0 1.035-.231 1.24-.694v-3.459h.813v4.755h-.774l-.017-.47zm3.999.558c-.645 0-1.169-.211-1.573-.635-.405-.423-.607-.989-.607-1.698v-.15c0-.471.09-.893.27-1.263a2.1 2.1 0 0 1 .756-.87c.324-.21.675-.314 1.053-.314.618 0 1.098.203 1.441.61.343.408.514.991.514 1.749v.339h-3.221c.012.469.149.847.411 1.136.262.288.595.433 1 .433.287 0 .53-.059.729-.176.199-.117.374-.273.523-.466l.497.387c-.399.612-.996.918-1.793.918zm-.101-4.263c-.328 0-.604.12-.827.359-.222.238-.36.573-.413 1.004h2.382v-.062c-.023-.413-.135-.733-.334-.96-.199-.227-.468-.341-.808-.341zm3.665-.58l.026.598a1.732 1.732 0 0 1 1.424-.685c1.005 0 1.512.566 1.52 1.7v3.142h-.813v-3.146c-.003-.343-.081-.596-.235-.76-.153-.165-.393-.247-.718-.247a1.18 1.18 0 0 0-.695.211 1.437 1.437 0 0 0-.465.554v3.388h-.813v-4.755h.769zm6.17 4.843c-.645 0-1.169-.211-1.574-.635-.404-.423-.606-.989-.606-1.698v-.15c0-.471.09-.893.27-1.263a2.1 2.1 0 0 1 .756-.87c.324-.21.675-.314 1.053-.314.618 0 1.098.203 1.441.61.343.408.514.991.514 1.749v.339h-3.221c.012.469.149.847.411 1.136.262.288.595.433 1 .433.287 0 .53-.059.729-.176.199-.117.374-.273.523-.466l.497.387c-.399.612-.996.918-1.793.918zm-.101-4.263c-.329 0-.604.12-.827.359-.222.238-.36.573-.413 1.004h2.382v-.062c-.023-.413-.135-.733-.334-.96-.199-.227-.469-.341-.808-.341zm5.664 2.914a.6.6 0 0 0-.248-.512c-.166-.121-.454-.226-.866-.314s-.738-.193-.98-.317c-.242-.123-.42-.269-.536-.439a1.049 1.049 0 0 1-.174-.606c0-.39.165-.72.495-.989.329-.27.751-.404 1.263-.404.539 0 .977.139 1.312.417.335.278.503.634.503 1.068h-.817a.734.734 0 0 0-.284-.576 1.063 1.063 0 0 0-.714-.242c-.296 0-.527.065-.694.194a.609.609 0 0 0-.251.505c0 .197.078.344.233.444.156.1.436.195.842.286.406.091.734.199.986.325s.439.277.561.455c.121.177.182.393.182.648 0 .425-.17.765-.51 1.022-.34.256-.78.384-1.322.384-.381 0-.718-.067-1.011-.202a1.648 1.648 0 0 1-.688-.565 1.362 1.362 0 0 1-.248-.784h.813a.842.842 0 0 0 .327.648c.204.16.473.24.807.24.307 0 .554-.063.74-.187a.575.575 0 0 0 .279-.499zm4.641 0c0-.22-.083-.39-.249-.512-.165-.121-.454-.226-.865-.314-.412-.088-.739-.193-.98-.317-.242-.123-.421-.269-.536-.439a1.049 1.049 0 0 1-.174-.606c0-.39.165-.72.494-.989.33-.27.751-.404 1.264-.404.539 0 .976.139 1.312.417.335.278.503.634.503 1.068h-.818a.733.733 0 0 0-.283-.576 1.063 1.063 0 0 0-.714-.242c-.296 0-.528.065-.695.194a.61.61 0 0 0-.25.505c0 .197.078.344.233.444.155.1.436.195.841.286.406.091.735.199.987.325s.439.277.56.455c.122.177.183.393.183.648 0 .425-.17.765-.51 1.022-.34.256-.781.384-1.323.384-.381 0-.718-.067-1.011-.202a1.638 1.638 0 0 1-.687-.565 1.356 1.356 0 0 1-.249-.784h.813a.843.843 0 0 0 .328.648c.203.16.472.24.806.24.308 0 .555-.063.741-.187a.575.575 0 0 0 .279-.499zM121.831 205.245a.6.6 0 0 0-.248-.512c-.166-.121-.454-.226-.866-.314s-.738-.193-.98-.316a1.393 1.393 0 0 1-.536-.44 1.049 1.049 0 0 1-.174-.606c0-.39.165-.719.495-.989.329-.27.75-.404 1.263-.404.539 0 .976.139 1.312.417.335.278.503.634.503 1.068h-.817a.734.734 0 0 0-.284-.576c-.189-.161-.427-.241-.714-.241-.296 0-.527.064-.694.193a.609.609 0 0 0-.251.505c0 .197.078.345.233.444.155.1.436.195.842.286.405.091.734.199.986.325s.439.278.561.455c.121.177.182.393.182.648 0 .425-.17.765-.51 1.022-.34.256-.781.384-1.323.384a2.39 2.39 0 0 1-1.01-.202 1.641 1.641 0 0 1-.688-.565 1.355 1.355 0 0 1-.248-.784h.813a.836.836 0 0 0 .327.648c.204.16.472.24.806.24.308 0 .555-.062.741-.187a.575.575 0 0 0 .279-.499zm1.657-1.16c0-.466.091-.885.274-1.257.183-.372.438-.659.765-.861a2.082 2.082 0 0 1 1.118-.303c.648 0 1.172.224 1.571.672.4.448.6 1.044.6 1.789v.057c0 .463-.088.878-.266 1.246-.177.367-.43.654-.76.859a2.104 2.104 0 0 1-1.136.307c-.644 0-1.167-.224-1.566-.672-.4-.448-.6-1.042-.6-1.78v-.057zm.817.097c0 .527.122.95.367 1.27.245.319.572.479.982.479.413 0 .741-.162.985-.486.243-.324.364-.777.364-1.36 0-.521-.123-.944-.371-1.268a1.182 1.182 0 0 0-.987-.485c-.401 0-.725.159-.971.479-.246.319-.369.776-.369 1.371zm5.414 2.324h-.813v-6.75h.813v6.75zm4.236-.47c-.316.372-.78.558-1.393.558-.506 0-.892-.147-1.158-.441-.265-.295-.399-.731-.402-1.308v-3.093h.813v3.071c0 .721.293 1.081.879 1.081.621 0 1.034-.231 1.24-.694v-3.458h.812v4.754h-.773l-.018-.47zm3.129-5.436v1.152h.888v.628h-.888v2.949c0 .19.04.333.119.428.079.095.214.143.404.143.094 0 .223-.018.387-.053v.659a2.342 2.342 0 0 1-.624.088c-.363 0-.637-.11-.822-.329-.184-.22-.277-.532-.277-.936v-2.949h-.865v-.628h.865V200.6h.813zm2.721 5.906h-.813v-4.754h.813v4.754zm-.879-6.016c0-.132.04-.243.121-.334.08-.09.199-.136.358-.136.158 0 .278.046.36.136a.48.48 0 0 1 .123.334.465.465 0 0 1-.123.33c-.082.088-.202.132-.36.132-.159 0-.278-.044-.358-.132a.468.468 0 0 1-.121-.33zm1.964 3.595c0-.466.092-.885.275-1.257a2.05 2.05 0 0 1 .764-.861c.327-.202.7-.303 1.119-.303.647 0 1.171.224 1.571.672.4.448.6 1.044.6 1.789v.057c0 .463-.089.878-.266 1.246a2.024 2.024 0 0 1-.76.859c-.33.205-.709.307-1.136.307-.645 0-1.167-.224-1.567-.672-.4-.448-.6-1.042-.6-1.78v-.057zm.817.097c0 .527.123.95.367 1.27.245.319.572.479.983.479.413 0 .741-.162.984-.486.243-.324.365-.777.365-1.36 0-.521-.124-.944-.372-1.268a1.18 1.18 0 0 0-.986-.485c-.402 0-.725.159-.971.479-.247.319-.37.776-.37 1.371zm5.3-2.43l.027.597a1.73 1.73 0 0 1 1.423-.685c1.005 0 1.512.567 1.521 1.7v3.142h-.813v-3.146c-.003-.343-.081-.596-.235-.76-.154-.164-.393-.246-.719-.246-.263 0-.495.07-.694.211-.199.14-.354.325-.466.553v3.388h-.813v-4.754h.769zM192.603 134.299c0 .723-.165 1.306-.496 1.749-.331.442-.779.663-1.345.663-.577 0-1.031-.183-1.362-.549v2.289h-.813v-6.583h.742l.04.528c.331-.41.791-.615 1.38-.615.571 0 1.023.215 1.356.646.332.43.498 1.029.498 1.797v.075zm-.813-.093c0-.536-.114-.959-.342-1.27a1.107 1.107 0 0 0-.941-.466c-.492 0-.861.219-1.107.655v2.272c.243.434.615.651 1.116.651.39 0 .699-.155.929-.464.23-.309.345-.768.345-1.378zm4.144-1.608a2.376 2.376 0 0 0-.399-.031c-.534 0-.895.227-1.086.681v3.375h-.813v-4.755h.791l.013.55c.267-.425.645-.637 1.134-.637a.83.83 0 0 1 .36.061v.756zm.532 1.604c0-.466.092-.885.275-1.257.183-.372.438-.659.765-.861a2.08 2.08 0 0 1 1.118-.303c.647 0 1.171.224 1.571.672.4.448.6 1.044.6 1.788v.058c0 .462-.089.878-.266 1.245a2.026 2.026 0 0 1-.76.86c-.33.205-.709.307-1.136.307-.645 0-1.167-.224-1.567-.672-.4-.448-.6-1.042-.6-1.78v-.057zm.818.097c0 .527.122.95.367 1.27.244.319.572.479.982.479.413 0 .741-.162.984-.486.243-.324.365-.777.365-1.36 0-.522-.124-.944-.372-1.268a1.179 1.179 0 0 0-.986-.486c-.401 0-.725.16-.971.479-.246.32-.369.777-.369 1.372zm8.556 0c0 .726-.167 1.31-.501 1.751-.334.441-.782.661-1.345.661-.601 0-1.065-.212-1.393-.637l-.04.549h-.747v-6.75h.813v2.518c.328-.407.781-.61 1.358-.61.577 0 1.031.218 1.36.654.33.437.495 1.034.495 1.793v.071zm-.813-.093c0-.553-.107-.981-.321-1.283-.214-.302-.522-.453-.923-.453-.536 0-.921.249-1.156.748v2.056c.249.498.638.747 1.165.747.39 0 .693-.151.91-.452.216-.302.325-.756.325-1.363zm2.72 2.417h-.813v-6.75h.813v6.75zm3.274.088c-.645 0-1.169-.211-1.573-.635-.405-.423-.607-.989-.607-1.698v-.15c0-.471.09-.893.27-1.263.181-.371.433-.661.756-.87.324-.21.675-.314 1.053-.314.618 0 1.098.203 1.441.61.343.408.514.991.514 1.749v.339h-3.221c.012.469.149.847.411 1.136.262.288.596.433 1 .433.287 0 .53-.059.729-.176.2-.117.374-.273.523-.466l.497.387c-.399.612-.996.918-1.793.918zm-.101-4.263c-.328 0-.604.12-.826.359-.223.238-.361.573-.413 1.004h2.381v-.062c-.023-.413-.134-.733-.334-.96-.199-.227-.468-.341-.808-.341zm3.66-.58l.022.528c.349-.41.819-.615 1.411-.615.665 0 1.118.254 1.358.764.158-.228.364-.413.617-.554.254-.14.553-.21.899-.21 1.043 0 1.573.552 1.591 1.656v3.186h-.813v-3.137c0-.34-.078-.594-.233-.763-.155-.168-.416-.253-.782-.253-.302 0-.552.091-.752.271-.199.18-.315.422-.347.727v3.155h-.817v-3.115c0-.692-.339-1.038-1.015-1.038-.534 0-.898.228-1.095.682v3.471h-.813v-4.755h.769zM184.788 206.506c-.047-.093-.085-.26-.115-.501a1.81 1.81 0 0 1-1.353.589c-.469 0-.853-.132-1.154-.397a1.29 1.29 0 0 1-.45-1.009c0-.495.188-.88.565-1.153.376-.274.906-.411 1.588-.411h.791v-.374c0-.284-.085-.51-.255-.679-.17-.168-.42-.253-.751-.253-.29 0-.533.074-.73.22-.196.147-.294.324-.294.532h-.817c0-.237.084-.467.252-.688a1.73 1.73 0 0 1 .686-.525c.288-.129.606-.193.951-.193.548 0 .977.137 1.288.411.31.273.472.651.483 1.131v2.189c0 .436.056.783.167 1.041v.07h-.852zm-1.349-.619c.254 0 .496-.066.725-.198.228-.132.394-.303.496-.514v-.976h-.637c-.996 0-1.494.292-1.494.875 0 .255.085.454.255.597.17.144.388.216.655.216zm4.192.619h-.813v-6.75h.813v6.75zm2.404-5.906v1.152h.888v.628h-.888v2.949c0 .19.039.333.118.428.08.095.214.143.405.143.094 0 .222-.018.386-.053v.659a2.33 2.33 0 0 1-.624.088c-.363 0-.637-.11-.821-.329-.185-.22-.277-.532-.277-.936v-2.949h-.866v-.628h.866V200.6h.813zm3.81 5.994c-.645 0-1.169-.211-1.573-.635-.405-.423-.607-.989-.607-1.698v-.15c0-.471.09-.892.27-1.263.181-.371.433-.661.756-.87.324-.21.675-.314 1.053-.314.618 0 1.098.203 1.441.611.343.407.514.99.514 1.749v.338h-3.221c.012.469.149.847.411 1.136.262.288.596.433 1 .433.287 0 .53-.059.729-.176.2-.117.374-.272.523-.466l.497.387c-.399.612-.996.918-1.793.918zm-.101-4.262c-.328 0-.604.119-.826.358-.223.239-.361.573-.413 1.004h2.381v-.062c-.023-.413-.134-.733-.334-.96-.199-.227-.468-.34-.808-.34zm5.194.149a2.489 2.489 0 0 0-.4-.031c-.533 0-.895.227-1.085.681v3.375h-.813v-4.754h.791l.013.549c.267-.425.645-.637 1.134-.637a.83.83 0 0 1 .36.061v.756zm1.516-.729l.027.597a1.73 1.73 0 0 1 1.423-.685c1.005 0 1.512.567 1.521 1.7v3.142h-.813v-3.146c-.003-.343-.081-.596-.235-.76-.154-.164-.393-.246-.719-.246-.263 0-.495.07-.694.211-.199.14-.354.325-.466.553v3.388h-.813v-4.754h.769zm7.133 4.754c-.047-.093-.085-.26-.115-.501-.378.393-.829.589-1.353.589-.469 0-.853-.132-1.154-.397a1.29 1.29 0 0 1-.45-1.009c0-.495.188-.88.564-1.153.377-.274.906-.411 1.589-.411h.791v-.374c0-.284-.085-.51-.255-.679-.17-.168-.42-.253-.751-.253-.29 0-.533.074-.73.22-.196.147-.294.324-.294.532h-.818c0-.237.085-.467.253-.688a1.73 1.73 0 0 1 .686-.525 2.3 2.3 0 0 1 .951-.193c.548 0 .977.137 1.288.411.31.273.471.651.483 1.131v2.189c0 .436.056.783.167 1.041v.07h-.852zm-1.35-.619c.255 0 .497-.066.726-.198.228-.132.394-.303.496-.514v-.976h-.637c-.996 0-1.494.292-1.494.875 0 .255.085.454.255.597.17.144.388.216.654.216zm4.413-5.287v1.152h.887v.628h-.887v2.949c0 .19.039.333.118.428.079.095.214.143.405.143.093 0 .222-.018.386-.053v.659a2.342 2.342 0 0 1-.624.088c-.363 0-.637-.11-.822-.329-.184-.22-.276-.532-.276-.936v-2.949h-.866v-.628h.866V200.6h.813zm2.72 5.906h-.813v-4.754h.813v4.754zm-.879-6.016c0-.132.04-.243.121-.334.08-.09.2-.136.358-.136.158 0 .278.046.36.136a.48.48 0 0 1 .123.334.465.465 0 0 1-.123.33c-.082.088-.202.132-.36.132-.158 0-.278-.044-.358-.132a.468.468 0 0 1-.121-.33zm3.748 4.913l1.178-3.651h.831l-1.705 4.754h-.62l-1.723-4.754h.831l1.208 3.651zm4.764 1.191c-.644 0-1.169-.211-1.573-.635-.404-.423-.607-.989-.607-1.698v-.15c0-.471.09-.892.271-1.263a2.1 2.1 0 0 1 .756-.87c.323-.21.674-.314 1.052-.314.618 0 1.099.203 1.441.611.343.407.515.99.515 1.749v.338h-3.222c.012.469.149.847.411 1.136.262.288.596.433 1 .433.287 0 .53-.059.73-.176.199-.117.373-.272.522-.466l.497.387c-.398.612-.996.918-1.793.918zm-.101-4.262c-.328 0-.604.119-.826.358-.223.239-.361.573-.413 1.004h2.382v-.062c-.024-.413-.135-.733-.334-.96-.2-.227-.469-.34-.809-.34zm5.665 2.913c0-.22-.083-.39-.249-.512-.165-.121-.454-.226-.865-.314-.412-.088-.739-.193-.98-.316a1.397 1.397 0 0 1-.537-.44 1.056 1.056 0 0 1-.173-.606c0-.39.165-.719.494-.989.33-.27.751-.404 1.264-.404.539 0 .976.139 1.311.417.336.278.504.634.504 1.068h-.818a.733.733 0 0 0-.283-.576c-.189-.161-.427-.241-.714-.241-.296 0-.528.064-.695.193a.608.608 0 0 0-.25.505.49.49 0 0 0 .233.444c.155.1.436.195.841.286.406.091.735.199.987.325s.439.278.56.455c.122.177.183.393.183.648 0 .425-.17.765-.51 1.022-.34.256-.781.384-1.323.384-.381 0-.718-.067-1.011-.202a1.638 1.638 0 0 1-.687-.565 1.356 1.356 0 0 1-.249-.784h.813a.84.84 0 0 0 .328.648c.203.16.472.24.806.24.308 0 .554-.062.74-.187a.574.574 0 0 0 .28-.499zM183.703 81.611l2.092 5.221 2.092-5.221h1.094v6.398h-.843v-2.491l.079-2.69-2.101 5.181h-.646l-2.096-5.168.083 2.677v2.491h-.843v-6.398h1.089zm11.89 3.406c0 .627-.106 1.174-.317 1.641-.21.467-.509.824-.896 1.07-.387.246-.838.369-1.354.369-.503 0-.95-.124-1.34-.371a2.46 2.46 0 0 1-.907-1.059c-.216-.459-.326-.99-.332-1.593v-.462c0-.615.107-1.158.321-1.63.214-.472.516-.833.907-1.083a2.432 2.432 0 0 1 1.343-.376c.512 0 .964.124 1.355.371.392.248.693.607.903 1.077.211.47.317 1.017.317 1.641v.405zm-.839-.414c0-.758-.153-1.341-.457-1.746-.305-.406-.731-.609-1.279-.609-.534 0-.953.203-1.259.609-.306.405-.464.969-.473 1.689v.471c0 .735.155 1.313.464 1.733.309.421.734.631 1.276.631.545 0 .967-.199 1.266-.596.299-.397.453-.966.462-1.707v-.475zm6.607-2.298h-2.057v5.704h-.839v-5.704h-2.052v-.694h4.948v.694zm2.054 5.704h-.843v-6.398h.843v6.398zm3.861-1.12l1.828-5.278h.923l-2.373 6.398h-.747l-2.369-6.398h.919l1.819 5.278zm7.011-.55h-2.68l-.602 1.67h-.87l2.443-6.398h.738l2.448 6.398h-.866l-.611-1.67zm-2.425-.694h2.175l-1.09-2.993-1.085 2.993zm8.817-3.34h-2.056v5.704h-.84v-5.704h-2.052v-.694h4.948v.694zm2.055 5.704h-.844v-6.398h.844v6.398zm6.664-2.992c0 .627-.105 1.174-.316 1.641-.211.467-.51.824-.897 1.07-.386.246-.838.369-1.353.369-.504 0-.951-.124-1.341-.371a2.46 2.46 0 0 1-.907-1.059c-.215-.459-.326-.99-.332-1.593v-.462c0-.615.107-1.158.321-1.63.214-.472.516-.833.907-1.083a2.434 2.434 0 0 1 1.343-.376c.513 0 .965.124 1.356.371.391.248.692.607.903 1.077.211.47.316 1.017.316 1.641v.405zm-.839-.414c0-.758-.153-1.341-.457-1.746-.305-.406-.731-.609-1.279-.609-.533 0-.953.203-1.259.609-.306.405-.464.969-.472 1.689v.471c0 .735.154 1.313.463 1.733.309.421.735.631 1.277.631.545 0 .967-.199 1.265-.596.299-.397.453-.966.462-1.707v-.475zm7.222 3.406h-.848l-3.221-4.93v4.93h-.848v-6.398h.848l3.23 4.952v-4.952h.839v6.398zm3.584-2.852c-.724-.208-1.25-.463-1.58-.767a1.465 1.465 0 0 1-.494-1.122c0-.504.201-.921.604-1.251.403-.329.927-.494 1.571-.494.44 0 .831.085 1.176.255.344.17.611.404.799.703.189.299.284.625.284.98h-.848c0-.387-.123-.691-.369-.912-.246-.221-.594-.332-1.042-.332-.416 0-.74.092-.973.275-.233.183-.35.437-.35.762 0 .261.111.482.332.662.221.18.598.345 1.13.494.531.15.947.314 1.248.495.3.18.523.39.668.63.145.24.217.523.217.848 0 .519-.202.934-.606 1.246-.405.312-.945.468-1.622.468-.439 0-.85-.084-1.23-.253-.381-.168-.675-.399-.881-.692a1.685 1.685 0 0 1-.31-.997h.848c0 .386.143.692.428.916.286.224.668.336 1.145.336.445 0 .787-.091 1.024-.272a.886.886 0 0 0 .356-.743c0-.313-.11-.556-.33-.727-.219-.172-.618-.341-1.195-.508zM255.988 96.558v4.351c-.003.603-.193 1.097-.569 1.481-.376.383-.887.599-1.532.646l-.224.008c-.7 0-1.258-.189-1.674-.566-.416-.378-.627-.898-.633-1.56v-4.36h.835v4.333c0 .463.128.823.383 1.079.254.256.618.385 1.089.385.478 0 .843-.128 1.097-.383.253-.255.38-.614.38-1.076v-4.338h.848zm3.917 3.547c-.724-.208-1.25-.464-1.58-.767a1.465 1.465 0 0 1-.494-1.123c0-.504.201-.921.604-1.25.403-.33.926-.495 1.571-.495.439 0 .831.085 1.175.255.345.17.611.404.8.703a1.8 1.8 0 0 1 .284.98h-.848c0-.386-.123-.69-.37-.912-.246-.221-.593-.331-1.041-.331-.416 0-.741.091-.973.274-.233.183-.35.437-.35.763 0 .26.111.481.332.661.221.18.598.345 1.129.494.532.15.948.315 1.248.495.301.18.523.39.668.63.145.241.218.523.218.849 0 .518-.202.933-.607 1.245-.404.312-.944.468-1.621.468-.44 0-.85-.084-1.231-.252-.38-.169-.674-.399-.881-.692a1.694 1.694 0 0 1-.309-.998h.848c0 .387.142.692.428.916.286.224.667.337 1.145.337.445 0 .787-.091 1.024-.273a.886.886 0 0 0 .356-.743c0-.313-.11-.556-.33-.727-.22-.171-.618-.34-1.195-.507zm7.771-.106h-2.773v2.268h3.221v.69h-4.065v-6.399h4.021v.694h-3.177v2.057h2.773v.69zm4.545.369h-1.503v2.589h-.848v-6.399h2.118c.721 0 1.275.164 1.663.492.388.328.583.806.583 1.433 0 .398-.108.746-.323 1.041a1.928 1.928 0 0 1-.899.664l1.503 2.716v.053h-.905l-1.389-2.589zm-1.503-.69h1.296c.419 0 .753-.108 1-.325.248-.217.371-.507.371-.87 0-.396-.117-.699-.353-.91-.236-.211-.577-.318-1.022-.321h-1.292v2.426zm7.283.427c-.724-.208-1.25-.464-1.58-.767a1.469 1.469 0 0 1-.494-1.123c0-.504.201-.921.604-1.25.403-.33.927-.495 1.571-.495.439 0 .831.085 1.176.255.344.17.61.404.799.703a1.8 1.8 0 0 1 .284.98h-.848c0-.386-.123-.69-.369-.912-.247-.221-.594-.331-1.042-.331-.416 0-.74.091-.973.274-.233.183-.35.437-.35.763 0 .26.111.481.332.661.221.18.598.345 1.129.494.532.15.948.315 1.249.495.3.18.522.39.667.63.146.241.218.523.218.849 0 .518-.202.933-.606 1.245-.405.312-.945.468-1.622.468a3.01 3.01 0 0 1-1.23-.252c-.381-.169-.675-.399-.882-.692a1.694 1.694 0 0 1-.309-.998h.848c0 .387.143.692.428.916.286.224.667.337 1.145.337.445 0 .787-.091 1.024-.273a.886.886 0 0 0 .356-.743c0-.313-.11-.556-.33-.727-.219-.171-.618-.34-1.195-.507zM256.19 240.034c-.079.677-.329 1.199-.749 1.567-.42.367-.979.551-1.677.551-.755 0-1.361-.271-1.817-.813-.455-.542-.683-1.267-.683-2.175v-.615c0-.595.106-1.118.319-1.569a2.38 2.38 0 0 1 .903-1.04c.389-.241.84-.362 1.353-.362.68 0 1.225.19 1.635.569.41.379.649.905.716 1.575h-.848c-.073-.509-.232-.878-.477-1.107-.244-.228-.586-.343-1.026-.343-.539 0-.962.199-1.268.598-.306.398-.459.965-.459 1.701v.619c0 .695.145 1.247.435 1.657.29.41.696.615 1.217.615.469 0 .829-.106 1.079-.318.251-.213.417-.583.499-1.11h.848zm5.656-4.368v4.35c-.003.604-.193 1.098-.569 1.481-.377.384-.887.6-1.532.646l-.224.009c-.7 0-1.258-.189-1.674-.567-.416-.378-.627-.898-.633-1.56v-4.359h.835v4.333c0 .463.128.822.382 1.079.255.256.619.384 1.09.384.478 0 .843-.127 1.097-.382.253-.255.38-.614.38-1.077v-4.337h.848zm3.217 3.546c-.724-.208-1.25-.463-1.58-.767a1.462 1.462 0 0 1-.494-1.122c0-.504.201-.921.604-1.251.403-.329.926-.494 1.571-.494.439 0 .831.085 1.175.255.345.17.611.404.8.703.189.299.284.625.284.98h-.848c0-.387-.124-.691-.37-.912-.246-.221-.593-.332-1.041-.332-.416 0-.741.092-.974.275-.232.183-.349.437-.349.762 0 .261.111.482.332.662.221.18.598.345 1.129.494.532.15.948.314 1.248.495.301.18.523.39.668.63.145.24.218.523.218.848 0 .519-.202.934-.607 1.246-.404.312-.944.468-1.621.468a3 3 0 0 1-1.231-.253 2.068 2.068 0 0 1-.881-.692 1.692 1.692 0 0 1-.31-.997h.849c0 .387.142.692.428.916.286.224.667.336 1.145.336.445 0 .786-.091 1.024-.272a.886.886 0 0 0 .356-.743c0-.313-.11-.556-.33-.727-.22-.172-.618-.341-1.195-.508zm7.875-2.852h-2.057v5.704h-.839v-5.704h-2.052v-.694h4.948v.694zm5.871 2.712c0 .627-.106 1.174-.317 1.641-.21.467-.509.824-.896 1.07-.387.246-.838.369-1.354.369-.503 0-.95-.124-1.34-.371a2.454 2.454 0 0 1-.907-1.059c-.216-.459-.326-.99-.332-1.593v-.462c0-.615.107-1.158.321-1.63.214-.472.516-.833.907-1.083a2.432 2.432 0 0 1 1.343-.376c.512 0 .964.124 1.355.371.392.248.693.607.903 1.077.211.47.317 1.017.317 1.641v.405zm-.839-.413c0-.759-.153-1.342-.458-1.747-.304-.406-.73-.609-1.278-.609-.534 0-.953.203-1.259.609-.307.405-.464.969-.473 1.689v.471c0 .735.155 1.313.464 1.733.309.421.734.631 1.276.631.545 0 .967-.199 1.266-.596.299-.397.453-.966.462-1.707v-.474zm3.194-2.993l2.092 5.221 2.092-5.221h1.094v6.398h-.844v-2.491l.08-2.69-2.101 5.181h-.646l-2.096-5.168.083 2.677v2.491h-.843v-6.398h1.089zm10.385 3.441h-2.773v2.267h3.221v.69h-4.065v-6.398h4.021v.694h-3.177v2.057h2.773v.69zm3.845.369h-1.503v2.588h-.848v-6.398h2.118c.721 0 1.275.164 1.663.492.388.328.583.806.583 1.433 0 .398-.108.745-.323 1.041a1.935 1.935 0 0 1-.899.664l1.503 2.716v.052h-.905l-1.389-2.588zm-1.503-.69h1.296c.419 0 .752-.108 1-.325.248-.217.371-.507.371-.87 0-.396-.118-.699-.353-.91-.236-.211-.577-.318-1.022-.321h-1.292v2.426zm6.583.426c-.724-.208-1.25-.463-1.58-.767a1.462 1.462 0 0 1-.494-1.122c0-.504.201-.921.604-1.251.403-.329.926-.494 1.571-.494.439 0 .831.085 1.176.255.344.17.61.404.799.703.189.299.284.625.284.98h-.848c0-.387-.123-.691-.37-.912-.246-.221-.593-.332-1.041-.332-.416 0-.74.092-.973.275-.233.183-.35.437-.35.762 0 .261.111.482.332.662.221.18.598.345 1.129.494.532.15.948.314 1.248.495.301.18.523.39.668.63.145.24.218.523.218.848 0 .519-.202.934-.606 1.246-.405.312-.945.468-1.622.468a3 3 0 0 1-1.231-.253c-.38-.168-.674-.399-.881-.692a1.69 1.69 0 0 1-.309-.997h.848c0 .387.143.692.428.916.286.224.667.336 1.145.336.445 0 .787-.091 1.024-.272a.886.886 0 0 0 .356-.743c0-.313-.11-.556-.33-.727-.219-.172-.618-.341-1.195-.508zM181.71 256.045v-6.398h1.807c.556 0 1.048.123 1.476.369.428.246.758.596.991 1.05.233.455.351.976.354 1.565v.409c0 .603-.117 1.132-.349 1.586a2.46 2.46 0 0 1-.998 1.046c-.432.243-.935.368-1.51.373h-1.771zm.844-5.704v5.015h.888c.65 0 1.156-.203 1.518-.607.362-.404.543-.98.543-1.727v-.373c0-.727-.171-1.292-.512-1.695-.341-.402-.825-.607-1.452-.613h-.985zm6.164 5.704h-.844v-6.398h.844v6.398zm3.627-2.852c-.723-.208-1.25-.463-1.579-.766a1.466 1.466 0 0 1-.495-1.123c0-.504.202-.921.604-1.25.403-.33.927-.495 1.571-.495.44 0 .832.085 1.176.255.344.17.611.404.8.703.189.299.283.626.283.98h-.848c0-.387-.123-.691-.369-.912-.246-.221-.593-.332-1.042-.332-.416 0-.74.092-.973.275-.233.183-.349.437-.349.763 0 .26.11.481.331.661.222.18.598.345 1.13.494.532.15.948.315 1.248.495.3.18.523.39.668.63.145.241.217.523.217.849 0 .518-.202.933-.606 1.245-.404.312-.945.468-1.622.468-.439 0-.849-.084-1.23-.252-.381-.169-.675-.399-.881-.692a1.688 1.688 0 0 1-.31-.998h.848c0 .387.143.692.429.916.285.224.667.336 1.144.336.446 0 .787-.09 1.024-.272a.884.884 0 0 0 .356-.743c0-.313-.11-.556-.329-.727-.22-.171-.619-.341-1.196-.508zm8.075-2.852h-2.056v5.704h-.84v-5.704h-2.052v-.694h4.948v.694zm3.496 3.116h-1.503v2.588h-.848v-6.398h2.118c.721 0 1.275.164 1.664.492.388.328.582.806.582 1.433 0 .398-.108.745-.323 1.041a1.93 1.93 0 0 1-.899.664l1.503 2.716v.052h-.905l-1.389-2.588zm-1.503-.69h1.297c.419 0 .752-.108.999-.325.248-.217.372-.507.372-.87 0-.396-.118-.699-.354-.91-.236-.211-.576-.318-1.022-.321h-1.292v2.426zm5.803 3.278h-.843v-6.398h.843v6.398zm1.743 0v-6.398h2.092c.694 0 1.216.144 1.566.431.35.287.525.712.525 1.274 0 .299-.085.563-.254.793-.17.23-.402.408-.695.534.346.097.619.281.82.552.2.271.301.594.301.969 0 .574-.186 1.025-.558 1.353-.372.328-.898.492-1.578.492h-2.219zm.844-2.992v2.303h1.393c.392 0 .702-.102.929-.306.227-.203.341-.484.341-.841 0-.771-.419-1.156-1.257-1.156h-1.406zm0-.677h1.274c.369 0 .664-.092.885-.277.222-.184.332-.435.332-.751 0-.352-.102-.607-.307-.767-.205-.16-.517-.24-.936-.24h-1.248v2.035zm9.463-2.729v4.351c-.003.603-.192 1.097-.569 1.481-.376.383-.887.599-1.531.646l-.224.008c-.701 0-1.259-.189-1.675-.567-.416-.377-.627-.897-.633-1.56v-4.359h.835v4.333c0 .463.128.823.383 1.079s.618.384 1.09.384c.477 0 .843-.127 1.096-.382.253-.255.38-.614.38-1.077v-4.337h.848zm5.953.694h-2.057v5.704h-.839v-5.704h-2.053v-.694h4.949v.694zm2.054 5.704h-.844v-6.398h.844v6.398zm6.665-2.992c0 .627-.106 1.174-.317 1.641-.211.467-.51.824-.896 1.07-.387.246-.838.369-1.354.369-.504 0-.951-.123-1.34-.371a2.462 2.462 0 0 1-.908-1.059c-.215-.459-.326-.99-.331-1.593v-.461c0-.616.106-1.159.32-1.631.214-.472.517-.833.908-1.083a2.429 2.429 0 0 1 1.342-.376c.513 0 .965.124 1.356.371.391.248.692.607.903 1.077.211.47.317 1.017.317 1.642v.404zm-.84-.413c0-.759-.152-1.341-.457-1.747-.305-.406-.731-.609-1.279-.609-.533 0-.953.203-1.259.609-.306.406-.463.969-.472 1.69v.47c0 .735.154 1.313.464 1.733.309.421.734.631 1.276.631.545 0 .967-.198 1.266-.595.299-.397.452-.966.461-1.708v-.474zm7.223 3.405h-.849l-3.221-4.93v4.93h-.848v-6.398h.848l3.23 4.953v-4.953h.84v6.398zM98.238 253.541v2.504h-.844v-6.398h2.36c.701 0 1.249.179 1.646.536.397.358.596.831.596 1.42 0 .621-.195 1.099-.583 1.434-.388.336-.944.504-1.667.504h-1.508zm0-.69h1.516c.452 0 .797-.107 1.037-.319.241-.212.361-.519.361-.921 0-.38-.12-.685-.361-.914-.24-.228-.569-.347-.988-.356h-1.565v2.51zm7.181.606h-1.503v2.588h-.848v-6.398h2.118c.721 0 1.275.164 1.663.492.389.328.583.806.583 1.433 0 .398-.108.745-.323 1.041a1.935 1.935 0 0 1-.899.664l1.503 2.716v.052h-.905l-1.389-2.588zm-1.503-.69h1.296c.419 0 .753-.108 1-.325.248-.217.371-.507.371-.87 0-.396-.117-.699-.353-.91-.236-.211-.577-.318-1.022-.321h-1.292v2.426zm9.62.286c0 .627-.106 1.174-.317 1.641-.211.467-.51.824-.896 1.07-.387.246-.838.369-1.354.369-.504 0-.95-.123-1.34-.371a2.462 2.462 0 0 1-.908-1.059c-.215-.459-.326-.99-.331-1.593v-.461c0-.616.107-1.159.32-1.631.214-.472.517-.833.908-1.083a2.431 2.431 0 0 1 1.342-.376c.513 0 .965.124 1.356.371.391.248.692.607.903 1.077.211.47.317 1.017.317 1.642v.404zm-.84-.413c0-.759-.152-1.341-.457-1.747-.304-.406-.731-.609-1.279-.609-.533 0-.952.203-1.259.609-.306.406-.463.969-.472 1.69v.47c0 .735.155 1.313.464 1.733.309.421.734.631 1.276.631.545 0 .967-.198 1.266-.595.299-.397.452-.966.461-1.708v-.474zm2.105 3.405v-6.398h1.806c.557 0 1.049.123 1.477.369.428.246.758.596.991 1.05.233.455.351.976.354 1.565v.409c0 .603-.117 1.132-.35 1.586a2.457 2.457 0 0 1-.997 1.046c-.432.243-.936.368-1.51.373h-1.771zm.844-5.704v5.015h.888c.65 0 1.156-.203 1.518-.607.362-.404.543-.98.543-1.727v-.373c0-.727-.171-1.292-.512-1.695-.342-.402-.826-.607-1.453-.613h-.984zm9.562-.694v4.351c-.002.603-.192 1.097-.569 1.481-.376.383-.887.599-1.531.646l-.224.008c-.7 0-1.259-.189-1.675-.567-.416-.377-.626-.897-.632-1.56v-4.359h.835v4.333c0 .463.127.823.382 1.079s.618.384 1.09.384c.477 0 .843-.127 1.096-.382.254-.255.38-.614.38-1.077v-4.337h.848zm6.039 4.368c-.08.677-.329 1.199-.75 1.567-.42.368-.979.551-1.676.551-.756 0-1.362-.271-1.817-.813-.456-.542-.684-1.267-.684-2.175v-.615c0-.595.107-1.118.319-1.569.212-.451.513-.798.903-1.039.39-.242.841-.363 1.353-.363.68 0 1.225.19 1.635.569.41.38.649.905.717 1.576h-.849c-.073-.51-.232-.879-.476-1.108-.245-.228-.587-.343-1.027-.343-.539 0-.961.2-1.267.598-.306.399-.46.965-.46 1.701v.619c0 .695.145 1.247.436 1.657.29.41.695.615 1.217.615.469 0 .828-.106 1.079-.318.25-.213.416-.582.498-1.11h.849zm5.572-3.674h-2.057v5.704h-.839v-5.704h-2.052v-.694h4.948v.694zm1.854 5.704h-.843v-6.398h.843v6.398zm6.465-2.992c0 .627-.106 1.174-.317 1.641-.211.467-.509.824-.896 1.07-.387.246-.838.369-1.354.369-.504 0-.95-.123-1.34-.371a2.462 2.462 0 0 1-.908-1.059c-.215-.459-.325-.99-.331-1.593v-.461c0-.616.107-1.159.32-1.631.214-.472.517-.833.908-1.083a2.431 2.431 0 0 1 1.342-.376c.513 0 .965.124 1.356.371.391.248.692.607.903 1.077.211.47.317 1.017.317 1.642v.404zm-.84-.413c0-.759-.152-1.341-.457-1.747-.304-.406-.731-.609-1.279-.609-.533 0-.952.203-1.259.609-.306.406-.463.969-.472 1.69v.47c0 .735.155 1.313.464 1.733.309.421.734.631 1.276.631.545 0 .967-.198 1.266-.595.299-.397.453-.966.461-1.708v-.474zm7.023 3.405h-.848l-3.222-4.93v4.93h-.848v-6.398h.848l3.23 4.953v-4.953h.84v6.398zM46.601 239.107h-2.773v2.267h3.221v.69h-4.065v-6.398h4.021v.694h-3.177v2.057h2.773v.69zm6.716 2.957h-.848l-3.222-4.93v4.93h-.848v-6.398h.848l3.23 4.952v-4.952h.84v6.398zm5.411-1.67h-2.681l-.602 1.67h-.87l2.443-6.398h.738l2.448 6.398h-.866l-.61-1.67zm-2.426-.694h2.175l-1.09-2.993-1.085 2.993zm5.063 2.364v-6.398h2.092c.695 0 1.217.143 1.567.431.35.287.525.711.525 1.274 0 .299-.085.563-.255.793-.17.23-.401.408-.694.534.346.097.619.281.819.552.201.271.301.594.301.969 0 .574-.186 1.025-.558 1.353-.372.328-.898.492-1.577.492h-2.22zm.844-2.992v2.302h1.393c.393 0 .703-.101.93-.305.227-.204.34-.484.34-.842 0-.77-.419-1.155-1.257-1.155h-1.406zm0-.677h1.275c.369 0 .664-.092.885-.277.221-.185.332-.435.332-.751 0-.352-.103-.608-.308-.767-.205-.16-.517-.24-.936-.24h-1.248v2.035zm5.908 2.979h3.032v.69h-3.88v-6.398h.848v5.708zm7.911-2.267h-2.773v2.267h3.221v.69h-4.065v-6.398h4.021v.694h-3.177v2.057h2.773v.69zm4.145.369H78.67v2.588h-.848v-6.398h2.118c.721 0 1.275.164 1.664.492.388.328.582.806.582 1.433 0 .398-.108.745-.323 1.041a1.93 1.93 0 0 1-.899.664l1.503 2.716v.052h-.905l-1.389-2.588zm-1.503-.69h1.297c.419 0 .752-.108.999-.325.248-.217.372-.507.372-.87 0-.396-.118-.699-.354-.91-.236-.211-.576-.318-1.022-.321H78.67v2.426zm6.883.426c-.723-.208-1.25-.463-1.58-.767a1.465 1.465 0 0 1-.494-1.122c0-.504.201-.921.604-1.251.403-.329.927-.494 1.571-.494.44 0 .832.085 1.176.255.344.17.611.404.8.703.189.299.283.625.283.98h-.848c0-.387-.123-.691-.369-.912-.246-.221-.593-.332-1.042-.332-.416 0-.74.092-.973.275-.233.183-.349.437-.349.762 0 .261.11.482.331.662.222.18.598.345 1.13.494.532.15.948.314 1.248.495.3.18.523.39.668.63.145.24.217.523.217.848 0 .519-.202.934-.606 1.246-.404.312-.945.468-1.622.468-.439 0-.849-.084-1.23-.253-.381-.168-.675-.399-.881-.692a1.685 1.685 0 0 1-.31-.997h.848c0 .387.143.692.429.916.285.224.667.336 1.144.336.446 0 .787-.091 1.024-.272a.884.884 0 0 0 .356-.743c0-.313-.11-.556-.329-.727-.22-.172-.619-.341-1.196-.508zM50.994 102.957v-6.399H52.8c.557 0 1.049.123 1.477.369.428.246.758.596.991 1.051.233.454.351.975.354 1.564v.409c0 .603-.117 1.132-.35 1.586a2.457 2.457 0 0 1-.997 1.046c-.433.243-.936.368-1.51.374h-1.771zm.844-5.705v5.015h.888c.65 0 1.156-.203 1.518-.607.362-.404.543-.98.543-1.727v-.373c0-.727-.171-1.292-.512-1.694-.342-.403-.826-.608-1.453-.614h-.984zm7.805 3.116H58.14v2.589h-.848v-6.399h2.118c.72 0 1.275.164 1.663.492.388.328.582.806.582 1.433 0 .398-.107.746-.323 1.041a1.925 1.925 0 0 1-.898.664l1.503 2.716v.053h-.906l-1.388-2.589zm-1.503-.69h1.296c.419 0 .752-.108 1-.325.247-.217.371-.507.371-.87 0-.396-.118-.699-.354-.91-.235-.211-.576-.318-1.021-.321H58.14v2.426zm6.003 3.279h-.844v-6.399h.844v6.399zm4.06-1.121l1.828-5.278h.923l-2.373 6.399h-.747l-2.368-6.399h.918l1.819 5.278zm7.625-1.837h-2.773v2.268h3.221v.69h-4.065v-6.399h4.021v.694h-3.177v2.057h2.773v.69zm4.245.369H78.57v2.589h-.848v-6.399h2.118c.721 0 1.275.164 1.664.492.388.328.582.806.582 1.433 0 .398-.108.746-.323 1.041a1.923 1.923 0 0 1-.899.664l1.503 2.716v.053h-.905l-1.389-2.589zm-1.503-.69h1.297c.419 0 .752-.108.999-.325.248-.217.372-.507.372-.87 0-.396-.118-.699-.354-.91-.236-.211-.576-.318-1.022-.321H78.57v2.426zm6.983.427c-.723-.208-1.25-.464-1.58-.767a1.469 1.469 0 0 1-.494-1.123c0-.504.201-.921.604-1.25.403-.33.927-.495 1.571-.495.44 0 .832.085 1.176.255.344.17.611.404.8.703.189.299.283.626.283.98h-.848c0-.386-.123-.69-.369-.912-.246-.221-.593-.331-1.042-.331-.416 0-.74.091-.973.274-.233.183-.349.437-.349.763 0 .26.11.481.331.661.222.18.598.345 1.13.494.532.15.948.315 1.248.495.3.18.523.39.668.63.145.241.217.523.217.849 0 .518-.202.933-.606 1.245-.404.312-.945.468-1.622.468-.439 0-.849-.084-1.23-.252-.381-.169-.675-.399-.881-.692a1.688 1.688 0 0 1-.31-.998h.848c0 .387.143.692.429.916.285.224.667.337 1.144.337.446 0 .787-.091 1.024-.273a.884.884 0 0 0 .356-.743c0-.313-.11-.556-.329-.727-.22-.171-.619-.34-1.196-.507zM102.119 87.17a1.95 1.95 0 0 1-.908.696c-.388.154-.84.231-1.356.231-.521 0-.984-.122-1.388-.367a2.431 2.431 0 0 1-.938-1.044c-.222-.451-.335-.974-.341-1.568v-.558c0-.964.225-1.711.675-2.242.449-.53 1.081-.795 1.896-.795.668 0 1.205.171 1.613.512.407.341.656.825.747 1.452h-.844c-.158-.846-.662-1.27-1.512-1.27-.565 0-.994.199-1.285.596-.292.397-.439.972-.442 1.725v.523c0 .717.164 1.288.492 1.711.328.424.772.635 1.332.635.316 0 .593-.035.83-.105.238-.071.434-.189.589-.356v-1.437h-1.481v-.686h2.321v2.347zm6.928-2.153c0 .627-.106 1.174-.317 1.641-.211.467-.509.824-.896 1.07-.387.246-.838.369-1.354.369a2.45 2.45 0 0 1-1.34-.371 2.454 2.454 0 0 1-.907-1.059c-.216-.459-.326-.99-.332-1.593v-.462c0-.615.107-1.158.321-1.63.213-.472.516-.833.907-1.083a2.432 2.432 0 0 1 1.343-.376c.512 0 .964.124 1.355.371.391.248.692.607.903 1.077.211.47.317 1.017.317 1.641v.405zm-.84-.414c0-.758-.152-1.341-.457-1.746-.304-.406-.731-.609-1.278-.609-.534 0-.953.203-1.259.609-.307.405-.464.969-.473 1.689v.471c0 .735.155 1.313.464 1.733.309.421.734.631 1.276.631.545 0 .967-.199 1.266-.596.299-.397.453-.966.461-1.707v-.475zm6.146 1.736h-2.68l-.602 1.67h-.871l2.444-6.398h.738l2.448 6.398h-.866l-.611-1.67zm-2.425-.694h2.175l-1.09-2.993-1.085 2.993zm6.211 1.674h3.033v.69h-3.881v-6.398h.848v5.708zm6.48-2.162c-.723-.208-1.25-.463-1.58-.767a1.465 1.465 0 0 1-.494-1.122c0-.504.201-.921.604-1.251.403-.329.927-.494 1.571-.494.44 0 .832.085 1.176.255.344.17.611.404.8.703.189.299.283.625.283.98h-.848c0-.387-.123-.691-.369-.912-.246-.221-.593-.332-1.042-.332-.416 0-.74.092-.973.275-.233.183-.349.437-.349.762 0 .261.11.482.331.662.222.18.598.345 1.13.494.531.15.947.314 1.248.495.3.18.523.39.668.63.145.24.217.523.217.848 0 .519-.202.934-.606 1.246-.404.312-.945.468-1.622.468-.439 0-.849-.084-1.23-.253-.381-.168-.675-.399-.881-.692a1.685 1.685 0 0 1-.31-.997h.848c0 .386.143.692.428.916.286.224.668.336 1.145.336.446 0 .787-.091 1.024-.272a.886.886 0 0 0 .356-.743c0-.313-.11-.556-.329-.727-.22-.172-.619-.341-1.196-.508z"/></g></g></svg>