<svg xmlns="http://www.w3.org/2000/svg" width="100%" height="100%" viewBox="0 0 338 338" fill-rule="evenodd"><g fill="none"><path d="M57.5 289v-7.5H50M57.5 50v7.5H50M281.5 289v-7.5h7.5M281.5 50v7.5h7.5" stroke="#000"/><path d="M169.5 189.5c11.046 0 20-8.954 20-20s-8.954-20-20-20-20 8.954-20 20 8.954 20 20 20z" stroke="#1d1c1b"/></g><path d="M99.5 101a1.5 1.5 0 1 0 0-3 1.5 1.5 0 1 0 0 3m140 0a1.5 1.5 0 1 0 0-3 1.5 1.5 0 1 0 0 3m-140 140a1.5 1.5 0 0 0 0-3 1.5 1.5 0 0 0 0 3m140 0a1.5 1.5 0 0 0 0-3 1.5 1.5 0 0 0 0 3" fill="#1d1c1b"/></svg>