<svg viewBox="0 0 338 338" xmlns="http://www.w3.org/2000/svg" xmlns:serif="http://www.serif.com/" fill-rule="evenodd" clip-rule="evenodd"><g serif:id="The-Product-Field-|-04-Find-|-In-Practice"><path fill="#fff" d="M0 0h338v338H0z"/><g serif:id="force field"><path d="M167.11 196.291l4.84.256M167.11 196.291l4.84.256" fill="none" stroke="#d9d9d9"/><path d="M167.694 210.775l3.673-.005-3.673.005z" stroke="#d9d9d9" stroke-linejoin="round" stroke-miterlimit="1.414"/><path d="M171.368 210.77l-3.673.005M171.368 210.77l-3.673.005M167.697 212.251l-.005-3.673M167.697 212.251l-.005-3.673M169.533 212.251l-.004-3.673M169.533 212.251l-.004-3.673M172.028 224.54l-4.994-.264M172.028 224.54l-4.994-.264M166.902 227.246l.264-4.995M166.902 227.246l.264-4.995M169.4 227.246l.263-4.995M169.4 227.246l.263-4.995M172.18 238.951l-5.297-.379M172.18 238.951l-5.297-.379M166.693 241.026l.379-5.297M166.693 241.026l.379-5.296M169.342 241.026l.379-5.297M169.342 241.026l.379-5.296M172.202 253.313l-5.342-.396M172.202 253.313l-5.342-.396M166.662 255.402l.397-5.342M166.662 255.402l.397-5.343M169.333 255.402l.397-5.342M169.333 255.402l.397-5.343M172.187 266.943l-5.312-.384M172.187 266.943l-5.312-.384M166.683 269.741l.384-5.312M166.683 269.741l.384-5.312M169.339 269.741l.384-5.312M169.339 269.741l.384-5.312M172.134 281.277l-5.205-.344M172.134 281.277l-5.205-.344M166.757 283.326l.343-5.205M166.757 283.326l.343-5.205M169.359 283.326l.344-5.205M169.359 283.326l.344-5.205M172.04 295.597l-5.018-.276M172.04 295.597l-5.018-.276M166.884 297.59l.276-5.019M166.884 297.59l.276-5.019M169.393 297.59l.276-5.019M169.393 297.59l.276-5.019M171.899 309.19l-4.735-.19M171.899 309.19l-4.735-.19M167.069 311.807l.189-4.734M167.069 311.807l.189-4.734M169.436 311.807l.19-4.734M169.436 311.807l.19-4.734M185.97 196.712l-4.63-.592M185.97 196.712l-4.63-.592M181.044 198.33l.592-4.63M181.044 198.33l.592-4.63M183.359 198.33l.592-4.63M183.359 198.33l.592-4.63M186.307 211.196l-5.304-.857M186.307 211.196l-5.304-.857M180.575 213.008l.857-5.303M180.575 213.008l.857-5.303M183.227 213.008l.857-5.303M183.227 213.008l.857-5.303M186.402 224.875l-5.493-.943M186.402 224.875l-5.493-.943M180.437 226.736l.943-5.494M180.437 226.736l.943-5.494M183.184 227.453l.943-5.493M183.184 227.453l.943-5.493M186.46 239.257l-5.61-1M186.46 239.257l-5.61-1M180.35 241.146l1-5.61M180.35 241.146l1-5.61M183.155 241.146l1-5.61M183.155 241.146l1-5.61M186.483 253.621l-5.656-1.022M186.483 253.621l-5.656-1.022M180.317 254.803l1.022-5.655M180.317 254.803l1.022-5.655M183.144 255.521l1.022-5.656M183.144 255.521l1.022-5.656M186.468 267.25l-5.625-1.008M186.468 267.25l-5.625-1.008M180.339 269.143l1.007-5.626M180.339 269.143l1.007-5.626M183.152 269.86l1.007-5.625M183.152 269.86l1.007-5.625M186.416 281.58l-5.522-.958M186.416 281.58l-5.522-.958M180.415 283.447l.958-5.523M180.415 283.447l.958-5.523M183.177 284.164l.957-5.522M183.177 284.164l.957-5.522M186.329 295.893l-5.348-.877M186.329 295.893l-5.348-.877M180.543 297.716l.877-5.347M180.543 297.716l.877-5.347M183.217 297.716l.876-5.347M183.217 297.716l.876-5.347M186.203 309.476l-5.096-.769M186.203 309.476l-5.096-.769M180.722 311.231l.77-5.096M180.722 311.231l.77-5.096M183.27 311.95l.77-5.098M183.27 311.95l.77-5.098M195.763 168.628l4.032-.395M195.763 168.628l4.032-.395M199.896 182.684l-4.233-1.268M199.896 182.684l-4.233-1.268M195.029 183.72l1.267-4.233M195.029 183.72l1.267-4.233M197.145 184.438l1.268-4.233M197.145 184.438l1.268-4.233M200.242 197.11l-4.925-1.409M200.242 197.11l-4.925-1.409M194.613 198.424l1.408-4.925M194.613 198.424l1.408-4.925M197.075 198.424l1.408-4.925M197.075 198.424l1.408-4.925M200.496 211.49l-5.433-1.46M200.496 211.49l-5.433-1.46M194.332 212.32l1.46-5.434M194.332 212.32l1.46-5.434M197.049 213.038l1.46-5.434M197.049 213.038l1.46-5.434M200.625 225.161l-5.691-1.53M200.625 225.161l-5.691-1.53M194.169 226.802l1.53-5.69M194.169 226.802l1.53-5.69M197.014 227.52l1.53-5.69M197.014 227.52l1.53-5.69M200.687 239.548l-5.815-1.597M200.687 239.548l-5.815-1.597M194.073 240.498l1.597-5.815M194.073 240.498l1.597-5.815M196.98 241.934l1.598-5.815M196.98 241.934l1.598-5.815M200.71 253.914l-5.863-1.622M200.71 253.914l-5.863-1.622M194.036 254.875l1.623-5.863M194.036 254.875l1.623-5.863M196.968 255.593l1.622-5.864M196.968 255.593l1.622-5.864M200.695 267.542l-5.832-1.606M200.695 267.542l-5.832-1.606M194.06 269.213l1.607-5.83M194.06 269.213l1.607-5.83M196.977 269.931l1.605-5.83M196.977 269.931l1.605-5.83M200.64 281.866l-5.721-1.546M200.64 281.866l-5.721-1.546M194.145 282.796l1.546-5.72M194.145 282.796l1.546-5.72M197.006 284.232l1.546-5.722M197.006 284.232l1.546-5.722M200.55 296.174l-5.542-1.453M200.55 296.174l-5.542-1.453M194.28 297.063l1.454-5.543M194.28 297.063l1.454-5.543M197.053 297.781l1.453-5.543M197.053 297.781l1.453-5.543M200.429 309.751l-5.3-1.333M200.429 309.751l-5.3-1.333M194.463 311.3l1.332-5.3M194.463 311.3l1.332-5.3M197.113 312.017l1.333-5.3M197.113 312.017l1.333-5.3M209.755 168.748l4.297-.63M209.755 168.748l4.297-.63M213.845 182.907l-3.883-1.748M213.845 182.907l-3.883-1.747M209.088 183.501l1.747-3.884M209.088 183.501l1.747-3.884M211.029 184.218l1.748-3.883M211.029 184.218l1.748-3.883M214.249 197.383l-4.691-1.985M214.249 197.383l-4.691-1.985M208.565 197.548l1.985-4.69M208.565 197.548l1.985-4.69M210.91 198.984l1.986-4.692M210.91 198.984l1.986-4.692M214.538 211.787l-5.27-2.079M214.538 211.787l-5.27-2.079M208.229 212.2l2.079-5.27M208.229 212.2l2.079-5.27M210.864 212.917l2.079-5.27M210.864 212.917l2.079-5.27M214.773 225.436l-5.74-2.099M214.773 225.436l-5.74-2.099M207.985 226.078l2.098-5.738M207.985 226.078l2.098-5.738M210.854 227.514l2.099-5.739M210.854 227.514l2.099-5.739M214.874 239.816l-5.941-2.15M214.874 239.816l-5.941-2.15M207.858 240.534l2.15-5.94M207.858 240.534l2.15-5.94M210.828 241.97l2.15-5.94M210.828 241.97l2.15-5.94M214.903 254.186l-6-2.183M214.903 254.186l-6-2.184M207.812 254.917l2.183-6M207.812 254.917l2.183-6M210.81 255.634l2.185-6M210.81 255.634l2.185-6M214.883 267.811l-5.96-2.16M214.883 267.811l-5.96-2.16M207.843 268.533l2.16-5.96M207.843 268.533l2.16-5.96M210.823 269.97l2.16-5.962M210.823 269.97l2.16-5.962M214.82 282.13l-5.834-2.09M214.82 282.13l-5.834-2.09M207.942 282.825l2.09-5.834M207.942 282.825l2.09-5.834M210.858 284.26l2.09-5.833M210.858 284.26l2.09-5.833M214.723 296.431l-5.64-1.984M214.723 296.431l-5.64-1.983M208.092 297.083l1.983-5.639M208.092 297.083l1.983-5.639M210.912 297.801l1.983-5.64M210.912 297.801l1.983-5.64M214.598 310.001l-5.39-1.85M214.598 310.001l-5.39-1.85M208.283 311.315l1.85-5.39M208.283 311.315l1.85-5.39M210.978 312.033l1.85-5.39M210.978 312.033l1.85-5.39M223.745 168.863l4.565-.855M223.745 168.863l4.565-.855M227.718 183.031l-3.381-2.035M227.718 183.031l-3.381-2.035M223.319 183.212l2.035-3.38M223.319 183.212l2.035-3.38M225.01 183.93l2.035-3.382M225.01 183.93l2.035-3.382M228.217 197.594l-4.38-2.44M228.217 197.594l-4.38-2.44M222.617 197.358l2.44-4.38M222.617 197.358l2.44-4.38M224.807 198.793l2.44-4.38M224.807 198.793l2.44-4.38M228.546 212.03l-5.037-2.595M228.546 212.03l-5.037-2.595M222.212 211.333l2.594-5.038M222.212 211.333l2.594-5.038M224.73 212.768l2.595-5.037M224.73 212.768l2.595-5.037M228.815 225.7l-5.575-2.652M228.815 225.7l-5.575-2.652M221.914 225.966l2.652-5.576M221.914 225.966l2.652-5.576M224.702 227.401l2.65-5.575M224.702 227.401l2.65-5.575M229.03 240.057l-6.005-2.65M229.03 240.057l-6.005-2.65M221.699 240.543l2.652-6.005M221.699 240.543l2.652-6.005M224.702 241.978l2.65-6.004M224.702 241.978l2.65-6.004M229.07 254.435l-6.087-2.7M229.07 254.435l-6.087-2.7M221.634 254.22l2.699-6.088M221.634 254.22l2.699-6.088M224.678 255.656l2.699-6.088M224.678 255.656l2.699-6.088M229.043 268.055l-6.031-2.667M229.043 268.055l-6.031-2.667M221.679 268.546l2.666-6.03M221.679 268.546l2.666-6.03M224.694 269.981l2.666-6.03M224.694 269.981l2.666-6.03M228.96 282.363l-5.866-2.575M228.96 282.363l-5.866-2.575M221.806 282.82l2.575-5.869M221.806 282.82l2.575-5.869M224.74 284.254l2.575-5.867M224.74 284.254l2.575-5.867M228.85 296.656l-5.647-2.453M228.85 296.656l-5.647-2.453M221.977 297.064l2.453-5.648M221.977 297.064l2.453-5.648M224.8 297.782l2.454-5.649M224.8 297.782l2.454-5.649M228.72 310.221l-5.385-2.31M228.72 310.221l-5.385-2.31M222.179 310.57l2.31-5.385M222.179 310.57l2.31-5.385M224.872 312.006l2.31-5.386M224.872 312.006l2.31-5.386M237.733 168.965l4.837-1.055M237.733 168.965l4.837-1.055M238.349 181.627l3.605.897M238.349 181.627l3.605.897M242.152 197.735l-4.002-2.759M242.152 197.735l-4.002-2.759M236.77 197.14l2.76-4.003M236.77 197.14l2.76-4.003M238.77 198.575l2.76-4.002M238.77 198.575l2.76-4.002M242.523 212.213l-4.744-2.992M242.523 212.213l-4.744-2.99M236.284 211.16l2.992-4.745M236.284 211.16l2.99-4.745M238.656 212.594l2.99-4.744M238.656 212.594l2.99-4.744M242.826 225.908l-5.35-3.096M242.826 225.908l-5.35-3.096M235.929 225.827l3.096-5.35M235.929 225.827l3.096-5.35M238.604 227.262l3.095-5.349M238.604 227.262l3.095-5.349M243.088 240.285l-5.874-3.13M243.088 240.285l-5.874-3.13M235.649 239.736l3.13-5.874M235.649 239.736l3.13-5.874M238.586 241.89l3.13-5.875M238.586 241.89l3.13-5.875M243.223 254.661l-6.143-3.17M243.223 254.661l-6.143-3.17M235.495 254.23l3.169-6.144M235.495 254.23l3.169-6.144M238.567 255.664l3.169-6.143M238.567 255.664l3.169-6.143M243.166 268.265l-6.03-3.106M243.166 268.265l-6.03-3.106M235.584 268.526l3.106-6.03M235.584 268.526l3.106-6.03M238.598 269.961l3.106-6.029M238.598 269.961l3.106-6.029M243.058 282.56l-5.813-2.987M243.058 282.56l-5.813-2.987M235.752 282.772l2.986-5.813M235.752 282.772l2.986-5.813M238.658 284.207l2.986-5.813M238.658 284.207l2.986-5.813M242.935 296.845l-5.568-2.85M242.935 296.845l-5.568-2.85M235.942 296.286l2.85-5.569M235.942 296.286l2.85-5.569M238.726 297.721l2.85-5.568M238.726 297.721l2.85-5.568M242.799 310.407l-5.295-2.7M242.799 310.407l-5.295-2.7M236.154 310.503l2.7-5.294M236.154 310.503l2.7-5.294M238.8 311.938l2.702-5.294M238.8 311.938l2.702-5.294M251.72 169.047l5.11-1.216M251.72 169.047l5.11-1.216M252.22 181.44l4.11 1.285M252.22 181.44l4.11 1.285M256.056 197.798l-3.561-2.92M256.056 197.798l-3.561-2.92M251.034 196.895l2.92-3.56M251.034 196.895l2.92-3.56M252.814 198.331l2.922-3.56M252.814 198.331l2.922-3.56M256.47 212.333l-4.39-3.262M256.47 212.333l-4.39-3.262M250.45 210.96l3.262-4.39M250.45 210.96l3.262-4.39M252.645 212.394l3.26-4.389M252.645 212.394l3.26-4.389M256.794 226.053l-5.037-3.412M256.794 226.053l-5.037-3.412M250.05 225.65l3.412-5.038M250.05 225.65l3.412-5.038M252.569 227.085l3.412-5.037M252.569 227.085l3.412-5.037M257.072 240.445l-5.593-3.474M257.072 240.445l-5.593-3.474M249.742 239.575l3.473-5.593M249.742 239.575l3.473-5.593M252.539 241.73l3.473-5.595M252.539 241.73l3.473-5.595M257.26 254.81l-5.97-3.486M257.26 254.81l-5.97-3.487M249.548 254.125l3.486-5.969M249.548 254.125l3.486-5.969M252.532 255.561l3.487-5.969M252.532 255.561l3.487-5.969M257.203 268.415l-5.855-3.424M257.203 268.415l-5.855-3.424M249.636 268.422l3.424-5.855M249.636 268.422l3.424-5.855M252.563 269.857l3.424-5.855M252.563 269.857l3.424-5.855M257.094 282.71l-5.638-3.307M257.094 282.71l-5.638-3.307M249.804 281.95l3.305-5.639M249.804 281.95l3.305-5.639M252.623 284.102l3.305-5.638M252.623 284.102l3.305-5.638M256.972 296.995l-5.393-3.17M256.972 296.995l-5.393-3.17M249.994 296.18l3.17-5.393M249.994 296.18l3.17-5.393M252.69 297.615l3.17-5.393M252.69 297.615l3.17-5.393M256.835 310.555l-5.12-3.02M256.835 310.555l-5.12-3.02M250.206 310.396l3.02-5.119M250.206 310.396l3.02-5.119M252.766 311.832l3.02-5.12M252.766 311.832l3.02-5.12M265.72 169.097l5.359-1.315M265.72 169.097l5.359-1.315M266.209 181.244l4.38 1.69M266.209 181.244l4.38 1.69M269.927 197.77l-3.056-2.899M269.927 197.77l-3.056-2.899M265.422 196.623l2.898-3.056M265.422 196.623l2.898-3.056M266.95 198.06l2.898-3.057M266.95 198.06l2.898-3.057M270.393 212.388l-3.987-3.403M270.393 212.388l-3.987-3.403M264.705 210.74l3.402-3.988M264.705 210.74l3.402-3.988M266.698 212.174l3.403-3.987M266.698 212.174l3.403-3.987M270.724 226.135l-4.65-3.603M270.724 226.135l-4.65-3.603M264.273 225.437l3.603-4.65M264.273 225.437l3.603-4.65M266.598 226.872l3.603-4.649M266.598 226.872l3.603-4.649M270.992 240.534l-5.185-3.676M270.992 240.534l-5.185-3.676M263.969 239.353l3.676-5.185M263.969 239.353l3.676-5.185M266.56 241.506l3.677-5.185M266.56 241.506l3.677-5.185M271.183 254.885l-5.567-3.655M271.183 254.885l-5.567-3.655M263.788 253.908l3.656-5.566M263.788 253.908l3.656-5.566M266.572 255.343l3.655-5.566M266.572 255.343l3.655-5.566M271.154 268.505l-5.51-3.624M271.154 268.505l-5.51-3.624M263.833 268.233l3.624-5.509M263.833 268.233l3.624-5.509M266.587 269.668l3.625-5.509M266.587 269.668l3.625-5.509M271.072 282.813l-5.345-3.534M271.072 282.813l-5.345-3.534M263.96 281.786l3.534-5.345M263.96 281.786l3.534-5.345M266.632 283.94l3.535-5.346M266.632 283.94l3.535-5.346M270.962 297.105l-5.125-3.412M270.962 297.105l-5.125-3.412M264.13 296.03l3.413-5.127M264.13 296.03l3.413-5.127M266.693 297.464l3.413-5.125M266.693 297.464l3.413-5.125M270.832 310.667l-4.865-3.265M270.832 310.667l-4.865-3.265M264.334 310.252l3.265-4.866M264.334 310.252l3.265-4.866M266.767 311.687l3.265-4.866M266.767 311.687l3.265-4.866M279.747 169.1l5.553-1.322M279.747 169.1l5.553-1.322M280.274 181.04l4.499 2.12M280.274 181.04l4.499 2.12M281.07 195.69l2.908 1.541M281.07 195.69l2.908 1.541M284.305 212.384l-3.563-3.423M284.305 212.384l-3.563-3.423M279.03 210.511l3.424-3.563M279.03 210.511l3.424-3.563M280.812 211.946l3.423-3.562M280.812 211.946l3.423-3.562M284.638 226.164l-4.23-3.688M284.638 226.164l-4.23-3.688M278.564 224.493l3.688-4.23M278.564 224.493l3.688-4.23M280.679 226.647l3.688-4.23M280.679 226.647l3.688-4.23M284.897 240.578l-4.747-3.789M284.897 240.578l-4.747-3.789M278.255 239.118l3.79-4.748M278.255 239.118l3.79-4.748M280.629 241.271l3.789-4.748M280.629 241.271l3.789-4.748M285.094 254.94l-5.142-3.787M285.094 254.94l-5.142-3.787M278.06 253.68l3.785-5.142M278.06 253.68l3.785-5.142M280.63 255.115l3.786-5.142M280.63 255.115l3.786-5.142M285.075 268.563l-5.103-3.763M285.075 268.563l-5.103-3.763M278.09 267.296l3.763-5.103M278.09 267.296l3.763-5.103M280.642 269.45l3.763-5.104M280.642 269.45l3.763-5.104M285.012 282.881l-4.977-3.69M285.012 282.881l-4.977-3.69M278.189 281.586l3.692-4.977M278.189 281.586l3.692-4.977M280.678 283.74l3.69-4.977M280.678 283.74l3.69-4.977M284.917 297.18l-4.787-3.583M284.917 297.18l-4.787-3.583M278.34 295.843l3.58-4.786M278.34 295.843l3.58-4.786M280.733 297.28l3.58-4.788M280.733 297.28l3.58-4.788M284.796 310.742l-4.545-3.439M284.796 310.742l-4.545-3.439M278.532 310.075l3.438-4.545M278.532 310.075l3.438-4.545M280.804 311.51l3.439-4.545M280.804 311.51l3.439-4.545M293.813 169.046l5.669-1.218M293.813 169.046l5.669-1.218M294.407 180.834l4.48 2.557M294.407 180.834l4.48 2.557M294.886 195.355l3.523 2.24M294.886 195.355l3.523 2.24M298.215 212.327l-3.135-3.335M298.215 212.327l-3.135-3.335M293.412 210.285l3.335-3.136M293.412 210.285l3.335-3.136M294.98 211.72l3.335-3.135M294.98 211.72l3.335-3.135M298.555 226.153l-3.815-3.69M298.555 226.153l-3.815-3.69M292.895 224.272l3.69-3.815M292.895 224.272l3.69-3.815M294.803 226.425l3.689-3.815M294.803 226.425l3.69-3.815M298.809 240.59l-4.323-3.835M298.809 240.59l-4.323-3.835M292.569 238.891l3.834-4.322M292.569 238.891l3.834-4.322M294.73 241.044l3.835-4.322M294.73 241.044l3.835-4.322M298.996 254.967l-4.697-3.866M298.996 254.967l-4.697-3.866M292.366 253.442l3.866-4.697M292.366 253.442l3.866-4.697M294.714 254.877l3.866-4.697M294.714 254.877l3.866-4.697M298.98 268.594l-4.665-3.848M298.98 268.594l-4.665-3.848M292.39 267.062l3.849-4.665M292.39 267.062l3.849-4.665M294.724 269.215l3.848-4.665M294.724 269.215l3.848-4.665M298.928 282.915l-4.561-3.784M298.928 282.915l-4.561-3.784M292.475 281.363l3.784-4.56M292.475 281.363l3.784-4.56M294.755 283.516l3.785-4.56M294.755 283.516l3.785-4.56M298.844 297.216l-4.393-3.68M298.844 297.216l-4.393-3.68M292.61 295.631l3.68-4.393M292.61 295.631l3.68-4.393M294.807 297.066l3.68-4.393M294.807 297.066l3.68-4.393M298.73 310.778l-4.166-3.536M298.73 310.778l-4.166-3.536M292.796 309.87l3.536-4.167M292.796 309.87l3.536-4.167M294.88 311.306l3.536-4.167M294.88 311.306l3.536-4.167M307.905 168.95l5.732-1.03M307.905 168.95l5.732-1.03M308.593 180.638l4.357 2.98M308.593 180.638l4.357 2.98M308.967 195.136l3.61 2.71M308.967 195.136l3.61 2.71M312.119 212.21l-2.694-3.124M312.119 212.21l-2.694-3.124M307.862 210.054l3.125-2.695M307.862 210.054l3.125-2.694M309.209 211.49l3.125-2.696M309.209 211.49l3.125-2.695M312.48 226.107l-3.418-3.622M312.48 226.107l-3.418-3.622M307.25 224.781l3.622-3.42M307.25 224.781l3.622-3.419M308.96 226.216l3.622-3.42M308.96 226.216l3.622-3.419M312.733 240.572l-3.923-3.823M312.733 240.572l-3.923-3.823M306.898 238.68l3.824-3.924M306.898 238.68l3.824-3.924M308.86 240.832l3.823-3.923M308.86 240.832l3.823-3.923M312.887 254.966l-4.231-3.889M312.887 254.966l-4.231-3.889M306.712 253.194l3.889-4.23M306.712 253.194l3.889-4.23M308.827 254.63l3.889-4.23M308.827 254.63l3.889-4.23M312.873 268.593l-4.203-3.87M312.873 268.593l-4.203-3.87M306.734 266.817l3.87-4.204M306.734 266.817l3.87-4.204M308.836 268.97l3.87-4.204M308.836 268.97l3.87-4.204M312.827 282.915l-4.111-3.81M312.827 282.915l-4.111-3.81M306.81 281.123l3.81-4.11M306.81 281.123l3.81-4.11M308.867 283.276l3.809-4.11M308.867 283.276l3.809-4.11M312.749 297.214l-3.955-3.703M312.749 297.214l-3.955-3.703M306.942 295.398l3.703-3.956M306.942 295.398l3.703-3.956M308.92 296.833l3.703-3.956M308.92 296.833l3.703-3.956M312.64 310.771l-3.738-3.548M312.64 310.771l-3.738-3.548M307.128 309.641l3.549-3.738M307.128 309.641l3.548-3.738M308.998 311.076l3.547-3.738M308.998 311.076l3.547-3.738M166.416 139.964l6.23.96M166.416 139.964l6.23.96M166.422 125.607l6.218.966M166.422 125.607l6.218.966M166.507 112.02l6.049.866M166.507 112.02l6.049.867M166.684 97.767l5.694.663M166.684 97.767l5.694.663M167.002 83.563l5.058.36M167.002 83.563l5.058.36M167.299 70.028l4.465.157M167.299 70.028l4.465.157M167.916 55.753h3.23M167.916 55.753h3.23M167.916 41.4h3.23M167.916 41.4h3.23M167.916 27.763h3.23M167.916 27.763h3.23M180.948 140.603l5.414-.326M180.948 140.603l5.414-.326M181.053 126.277l5.204-.38M181.053 126.277l5.204-.38M181.27 112.671l4.77-.44M181.27 112.671l4.77-.44M181.68 98.322l3.95-.447M181.68 98.322l3.95-.447M182.048 83.905l3.214-.322M182.048 83.905l3.214-.322M182.048 70.27l3.214-.323M182.048 70.27l3.214-.323M182.048 55.915l3.214-.32M182.048 55.915l3.214-.32M182.048 41.561l3.214-.32M182.048 41.561l3.214-.32M182.048 27.925l3.214-.32M182.048 27.925l3.214-.32M195.763 168.628l4.032-.395M195.763 168.628l4.032-.395M195.43 155.407l4.698-1.205M195.43 155.407l4.698-1.205M195.39 141.06l4.779-1.218M195.39 141.06l4.779-1.218M195.406 126.696l4.747-1.199M195.406 126.696l4.747-1.199M195.455 113.033l4.648-1.146M195.455 113.033l4.648-1.146M195.542 98.634l4.474-1.057M195.542 98.634l4.474-1.057M195.68 84.218l4.197-.934M195.68 84.218l4.197-.934M195.94 70.492l3.677-.756M195.94 70.492l3.677-.757M196.196 56.076l3.167-.633M196.196 56.076l3.167-.633M196.196 41.723l3.167-.634M196.196 41.723l3.167-.634M196.196 28.087l3.167-.634M196.196 28.087l3.167-.634M209.755 168.748l4.297-.63M209.755 168.748l4.297-.63M209.545 155.731l4.717-1.828M209.545 155.731l4.717-1.828M209.407 141.373l4.992-1.823M209.407 141.373l4.992-1.823M209.422 127.01l4.962-1.804M209.422 127.01l4.962-1.804M209.467 113.343l4.873-1.744M209.467 113.343l4.873-1.744M209.542 98.94l4.723-1.648M209.542 98.94l4.723-1.648M209.652 84.52l4.502-1.518M209.652 84.52l4.502-1.518M209.814 70.797l4.179-1.347M209.814 70.797l4.179-1.347M210.108 56.315l3.59-1.094M210.108 56.315l3.59-1.094M210.357 41.878l3.093-.928M210.357 41.878l3.093-.928M210.357 28.242l3.093-.928M210.357 28.242l3.093-.928M223.745 168.863l4.565-.855M223.745 168.863l4.565-.855M223.665 156.027l4.725-2.39M223.665 156.027l4.725-2.39M223.473 141.665l5.108-2.384M223.473 141.665l5.108-2.384M223.489 127.3l5.077-2.36M223.489 127.3l5.077-2.36M223.533 113.63l4.988-2.295M223.533 113.63l4.988-2.295M223.606 99.223l4.842-2.19M223.606 99.223l4.842-2.19M223.708 84.798l4.639-2.05M223.708 84.798l4.639-2.05M223.845 71.073l4.365-1.875M223.845 71.073l4.365-1.875M224.042 56.604l3.97-1.648M224.042 56.604l3.97-1.648M224.528 42.024l2.998-1.199M224.528 42.024l2.998-1.199M224.528 28.388l2.998-1.199M224.528 28.388l2.998-1.199M237.733 168.965l4.837-1.055M237.733 168.965l4.837-1.055M237.78 156.292l4.743-2.893M237.78 156.292l4.743-2.893M237.568 141.932l5.166-2.893M237.568 141.932l5.166-2.893M237.586 127.564l5.13-2.865M237.586 127.564l5.13-2.865M237.635 113.89l5.032-2.79M237.635 113.89l5.032-2.79M237.712 99.476l4.879-2.672M237.712 99.476l4.879-2.672M237.812 85.046l4.678-2.522M237.812 85.046l4.678-2.522M237.94 71.318l4.422-2.34M237.94 71.318l4.422-2.34M238.11 56.851l4.083-2.116M238.11 56.851l4.083-2.116M238.377 42.334l3.548-1.794M238.377 42.334l3.548-1.794M238.707 28.523l2.889-1.444M238.707 28.523l2.889-1.444M251.72 169.047l5.11-1.216M251.72 169.047l5.11-1.216M251.886 156.526l4.778-3.337M251.886 156.526l4.778-3.337M251.68 142.173l5.19-3.353M251.68 142.173l5.19-3.353M251.704 127.801l5.143-3.316M251.704 127.801l5.143-3.316M251.764 114.117l5.023-3.22M251.764 114.117l5.023-3.22M251.848 99.696l4.854-3.088M251.848 99.696l4.854-3.088M251.953 85.261l4.645-2.927M251.953 85.261l4.645-2.927M252.079 71.53l4.393-2.738M252.079 71.53l4.393-2.738M252.237 57.061l4.077-2.51M252.237 57.061l4.077-2.51M252.458 42.554l3.634-2.206M252.458 42.554l3.634-2.206M252.89 28.645l2.77-1.662M252.89 28.645l2.77-1.662M265.72 169.097l5.359-1.315M265.72 169.097l5.359-1.315M265.987 156.728l4.825-3.72M265.987 156.728l4.825-3.72M265.804 142.392l5.19-3.768M265.804 142.392l5.19-3.768M265.84 128.008l5.117-3.708M265.84 128.008l5.117-3.708M265.919 114.31l4.96-3.584M265.919 114.31l4.96-3.584M266.014 99.88l4.77-3.432M266.014 99.88l4.77-3.432M266.123 85.44l4.553-3.26M266.123 85.44l4.553-3.26M266.25 71.705l4.299-3.064M266.25 71.705l4.299-3.064M266.402 57.234l3.995-2.83M266.402 57.234l3.995-2.83M266.605 42.728l3.589-2.527M266.605 42.728l3.589-2.527M267.077 28.754l2.646-1.853M267.077 28.754l2.646-1.853M279.747 169.1l5.553-1.322M279.747 169.1l5.553-1.322M280.109 156.88l4.829-4.009M280.109 156.88l4.829-4.009M279.933 142.59l5.18-4.144M279.933 142.59l5.18-4.144M280.019 128.168l5.009-4.007M280.019 128.168l5.009-4.007M280.11 114.458l4.826-3.859M280.11 114.458l4.826-3.859M280.212 100.024l4.623-3.699M280.212 100.024l4.623-3.699M280.323 85.582l4.4-3.52M280.323 85.582l4.4-3.52M280.449 71.845l4.149-3.32M280.449 71.845l4.149-3.32M280.598 57.372l3.85-3.08M280.598 57.372l3.85-3.08M280.793 42.862l3.46-2.769M280.793 42.862l3.46-2.769M281.262 28.85l2.522-2.017M281.262 28.85l2.522-2.017M293.813 169.046l5.669-1.218M293.813 169.046l5.669-1.218M294.286 156.963l4.723-4.16M294.286 156.963l4.723-4.16M294.233 142.64l4.829-4.223M294.233 142.64l4.829-4.223M294.27 128.255l4.755-4.16M294.27 128.255l4.755-4.16M294.348 114.557l4.599-4.036M294.348 114.557l4.599-4.036M294.442 100.127l4.41-3.883M294.442 100.127l4.41-3.883M294.55 85.686l4.195-3.708M294.55 85.686l4.195-3.708M294.673 71.95l3.949-3.506M294.673 71.95l3.949-3.506M294.82 57.472l3.655-3.257M294.82 57.472l3.655-3.257M295.013 42.955l3.269-2.928M295.013 42.955l3.269-2.928M295.447 28.935l2.4-2.16M295.447 28.935l2.4-2.16M307.905 168.95l5.732-1.03M307.905 168.95l5.732-1.03M308.559 157.006l4.425-4.227M308.559 157.006l4.425-4.227M308.536 142.671l4.47-4.264M308.536 142.671l4.47-4.264M308.559 128.298l4.425-4.226M308.559 128.298l4.425-4.226M308.618 114.614l4.307-4.129M308.618 114.614l4.307-4.129M308.7 100.193l4.142-3.993M308.7 100.193l4.142-3.993M308.8 85.755l3.942-3.822M308.8 85.755l3.942-3.822M308.92 72.017l3.703-3.617M308.92 72.017l3.703-3.617M309.066 57.535l3.412-3.359M309.066 57.535l3.412-3.359M309.263 43.001l3.017-2.995M309.263 43.001l3.017-2.995M309.63 29.01l2.283-2.284M309.63 29.01l2.283-2.284M166.416 139.964l6.23.96M166.416 139.964l6.23.96M166.422 125.607l6.218.966M166.422 125.607l6.218.966M166.507 112.02l6.049.866M166.507 112.02l6.049.867M166.684 97.767l5.694.663M166.684 97.767l5.694.663M167.002 83.563l5.058.36M167.002 83.563l5.058.36M167.299 70.028l4.465.157M167.299 70.028l4.465.157M167.916 55.753h3.23M167.916 55.753h3.23M167.916 41.4h3.23M167.916 41.4h3.23M167.916 27.763h3.23M167.916 27.763h3.23M151.912 139.426l6.99 2.057M151.912 139.426l6.99 2.057M151.92 125.07l6.975 2.061M151.92 125.07l6.975 2.061M151.988 111.48l6.838 1.967M151.988 111.48l6.838 1.967M152.122 97.222l6.57 1.773M152.122 97.222l6.57 1.773M152.335 83.015l6.145 1.474M152.335 83.015l6.145 1.474M152.668 69.581l5.478 1.064M152.668 69.581l5.478 1.064M152.948 55.37l4.918.774M152.948 55.37l4.918.773M153.328 41.155l4.158.493M153.328 41.155l4.158.493M153.8 27.604l3.214.322M153.8 27.604l3.214.322M137.572 167.5l7.422 1.881M137.572 167.5l7.422 1.881M137.584 153.381l7.398 2.873M137.584 153.381l7.398 2.873M137.535 138.98l7.496 2.971M137.535 138.98l7.496 2.971M137.545 124.624l7.476 2.974M137.545 124.624l7.476 2.974M137.61 111.032l7.345 2.885M137.61 111.032l7.345 2.885M137.734 96.768l7.098 2.703M137.734 96.768l7.098 2.703M137.919 82.551l6.728 2.425M137.919 82.551l6.728 2.425M138.182 69.102l6.202 2.044M138.182 69.102l6.202 2.044M138.552 54.986l5.462 1.561M138.552 54.986l5.462 1.561M138.797 40.775l4.972 1.27M138.797 40.775l4.972 1.27M139.225 27.326l4.116.89M139.225 27.326l4.116.89M123.179 167.261l7.959 2.366M123.179 167.261l7.959 2.366M123.268 153.006l7.782 3.641M123.268 153.006l7.782 3.641M123.22 138.606l7.878 3.736M123.22 138.606l7.878 3.736M123.234 124.252l7.85 3.737M123.234 124.252l7.85 3.737M123.304 110.66l7.71 3.648M123.304 110.66l7.71 3.648M123.429 96.394l7.46 3.47M123.429 96.394l7.46 3.47M123.609 82.172l7.1 3.204M123.609 82.172l7.1 3.204M123.853 68.712l6.613 2.847M123.853 68.712l6.613 2.847" fill="none" stroke="#d9d9d9"/><path d="M130.136 56.97l-5.954-2.382 5.954 2.381z" stroke="#d9d9d9" stroke-linejoin="round" stroke-miterlimit="1.414"/><path d="M124.182 54.587l5.954 2.382M124.182 54.587l5.954 2.382M124.489 40.435l5.34 1.972M124.489 40.435l5.34 1.972M124.789 26.978l4.74 1.61M124.789 26.978l4.74 1.608M108.839 167.063l8.392 2.768M108.839 167.063l8.392 2.768M108.992 152.691l8.086 4.288M108.992 152.691l8.086 4.288M108.946 138.292l8.178 4.38M108.946 138.292l8.178 4.38M108.966 123.94l8.138 4.377M108.966 123.94l8.138 4.377M109.043 110.35l7.984 4.285M109.043 110.35l7.984 4.285M109.176 96.084l7.718 4.108M109.176 96.084l7.718 4.108M109.364 81.862l7.342 3.842M109.364 81.862l7.342 3.842M109.608 68.398l6.854 3.495M109.608 68.398l6.854 3.495M109.92 54.261l6.23 3.056M109.92 54.261l6.23 3.056M110.276 40.147l5.518 2.571M110.276 40.147l5.518 2.571M110.537 26.684l4.996 2.22M110.537 26.684l4.995 2.22M94.547 166.91l8.728 3.08M94.547 166.91l8.728 3.08M94.748 152.423l8.326 4.837M94.748 152.423l8.326 4.837M94.71 138.03l8.402 4.917M94.71 138.03l8.402 4.917M94.74 123.682l8.342 4.906M94.74 123.682l8.342 4.907M94.82 110.09l8.18 4.82M94.82 110.09l8.18 4.82M94.966 95.827l7.89 4.637M94.966 95.827l7.89 4.637M95.17 81.611l7.482 4.361M95.17 81.611l7.482 4.361M95.426 68.148l6.97 4.012M95.426 68.148l6.97 4.012M95.739 54.007l6.344 3.584M95.739 54.007l6.344 3.584M96.125 39.91l5.572 3.068M96.125 39.91l5.572 3.068M96.372 26.444l5.078 2.723M96.372 26.444l5.078 2.723M80.335 166.828l8.904 3.246M80.335 166.828l8.904 3.246M80.533 152.198l8.508 5.3M80.533 152.198l8.508 5.3M80.55 137.836l8.474 5.317M80.55 137.836l8.474 5.317M80.576 123.481l8.42 5.32M80.576 123.481l8.42 5.32M80.642 109.873l8.29 5.265M80.642 109.873l8.29 5.265M80.803 95.62l7.968 5.064M80.803 95.62l7.968 5.064M81.033 81.416l7.507 4.765M81.033 81.416l7.507 4.765M81.306 67.958l6.962 4.407M81.306 67.958l6.962 4.407M81.626 53.815l6.32 3.986M81.626 53.815l6.32 3.986M82.023 39.72l5.528 3.467M82.023 39.72l5.528 3.467M82.266 26.254l5.04 3.126M82.266 26.254l5.04 3.126M66.247 166.854l8.832 3.192M66.247 166.854l8.832 3.192M66.585 152.142l8.156 5.423M66.585 152.142l8.156 5.423M66.524 137.736l8.278 5.528M66.524 137.736l8.278 5.528M66.512 123.357l8.302 5.58M66.512 123.357l8.302 5.58M66.513 109.703l8.3 5.617M66.513 109.703l8.3 5.617M66.72 95.478l7.886 5.36M66.72 95.478l7.886 5.36M66.972 81.284l7.382 5.041M66.972 81.284l7.382 5.041M67.255 67.827l6.816 4.685M67.255 67.827l6.816 4.685M67.582 53.682l6.162 4.27M67.582 53.682l6.162 4.27M67.968 39.577l5.39 3.774M67.968 39.577l5.39 3.774M68.21 26.111l4.906 3.433M68.21 26.111l4.906 3.433M52.238 166.952l8.602 2.994M52.238 166.952l8.602 2.994M52.68 152.117l7.717 5.484M52.68 152.117l7.717 5.484M52.6 137.704l7.877 5.604M52.6 137.704l7.877 5.604M52.578 123.323l7.92 5.66M52.578 123.323l7.92 5.66M52.62 109.701l7.838 5.632M52.62 109.701l7.838 5.632M52.773 95.435l7.532 5.458M52.773 95.435l7.532 5.458M53.003 81.221l7.072 5.181M53.003 81.221l7.072 5.181M53.28 67.755l6.518 4.845M53.28 67.755l6.518 4.845M53.608 53.606l5.862 4.44M53.608 53.606l5.862 4.44M53.957 39.48l5.163 3.988M53.957 39.48l5.163 3.988M54.2 26.015l4.677 3.648M54.2 26.015l4.677 3.648M38.277 167.097l8.275 2.7M38.277 167.097l8.275 2.7M38.824 152.125l7.182 5.484M38.824 152.125l7.182 5.484M38.745 137.716l7.34 5.594M38.745 137.716l7.34 5.594M38.727 123.342l7.375 5.635M38.727 123.342l7.375 5.635M38.779 109.728l7.272 5.592M38.779 109.728l7.272 5.592M38.91 95.447l7.009 5.448M38.91 95.447l7.009 5.448M39.115 81.213l6.6 5.213M39.115 81.213l6.6 5.213M39.379 67.737l6.07 4.898M39.379 67.737l6.07 4.898M39.708 53.588l5.414 4.494M39.708 53.588l5.414 4.494M39.99 39.425l4.849 4.118M39.99 39.425l4.849 4.118M40.235 25.967l4.36 3.767M40.235 25.967l4.36 3.767M24.363 167.284l7.856 2.32M24.363 167.284l7.856 2.32M25.014 152.164l6.554 5.423M25.014 152.164l6.554 5.423M24.94 137.76l6.702 5.523M24.94 137.76l6.702 5.523M24.927 123.392l6.728 5.552M24.927 123.392l6.728 5.552M24.98 109.78l6.622 5.505M24.98 109.78l6.622 5.505M25.102 95.494l6.378 5.373M25.102 95.494l6.378 5.373M25.292 81.251l5.998 5.156M25.292 81.251l5.998 5.156M25.549 67.773l5.483 4.847M25.549 67.773l5.483 4.847M25.869 53.627l4.843 4.44M25.869 53.627l4.843 4.44M26.067 39.418l4.448 4.155M26.067 39.418l4.448 4.155M26.315 25.974l3.952 3.777M26.315 25.974l3.952 3.777M167.11 196.291l4.84.256M167.11 196.291l4.84.256M171.368 210.77l-3.673.005M171.368 210.77l-3.673.005M167.697 212.251l-.005-3.673M167.697 212.251l-.005-3.673M169.533 212.251l-.004-3.673M169.533 212.251l-.004-3.673M172.028 224.54l-4.994-.264M172.028 224.54l-4.994-.264M166.902 227.246l.264-4.995M166.902 227.246l.264-4.995M169.4 227.246l.263-4.995M169.4 227.246l.263-4.995M172.18 238.951l-5.297-.379M172.18 238.951l-5.297-.379M166.693 241.026l.379-5.297M166.693 241.026l.379-5.296M169.342 241.026l.379-5.297M169.342 241.026l.379-5.296M172.202 253.313l-5.342-.396M172.202 253.313l-5.342-.396M166.662 255.402l.397-5.342M166.662 255.402l.397-5.343M169.333 255.402l.397-5.342M169.333 255.402l.397-5.343M172.187 266.943l-5.312-.384M172.187 266.943l-5.312-.384M166.683 269.741l.384-5.312M166.683 269.741l.384-5.312M169.339 269.741l.384-5.312M169.339 269.741l.384-5.312M172.134 281.277l-5.205-.344M172.134 281.277l-5.205-.344M166.757 283.326l.343-5.205M166.757 283.326l.343-5.205M169.359 283.326l.344-5.205M169.359 283.326l.344-5.205M172.04 295.597l-5.018-.276M172.04 295.597l-5.018-.276M166.884 297.59l.276-5.019M166.884 297.59l.276-5.019M169.393 297.59l.276-5.019M169.393 297.59l.276-5.019M171.899 309.19l-4.735-.19M171.899 309.19l-4.735-.19M167.069 311.807l.189-4.734M167.069 311.807l.189-4.734M169.436 311.807l.19-4.734M169.436 311.807l.19-4.734M152.445 196.296l5.924.246M152.445 196.296l5.924.246M152.75 210.79l5.313-.035M152.75 210.79l5.313-.035M153.239 224.556l4.336-.293M153.239 224.556l4.336-.294M157.7 238.62l-4.586.283M157.7 238.62l-4.586.283M153.256 241.436l-.283-4.585M153.256 241.436l-.283-4.585M155.549 240.718l-.284-4.585M155.549 240.718l-.284-4.585M157.843 253.008l-4.872.216M157.843 253.008l-4.872.216M153.079 255.21l-.216-4.873M153.079 255.21l-.216-4.873M155.515 255.21l-.216-4.873M155.515 255.21l-.216-4.873M157.826 266.64l-4.838.224M157.826 266.64l-4.838.224M153.1 269.546l-.224-4.837M153.1 269.546l-.224-4.837M155.519 269.546l-.224-4.837M155.519 269.546l-.224-4.837M157.764 280.98l-4.714.252M157.764 280.98l-4.714.252M153.177 283.841l-.253-4.714M153.177 283.841l-.254-4.714" fill="none" stroke="#d9d9d9"/><path d="M155.534 283.123l-.254-4.714.254 4.714z" stroke="#d9d9d9" stroke-linejoin="round" stroke-miterlimit="1.414"/><path d="M155.534 283.123l-.254-4.714M155.534 283.123l-.254-4.714M157.649 295.311l-4.484.296M157.649 295.311l-4.484.296M153.313 297.366l-.296-4.484M153.313 297.366l-.296-4.484M155.555 297.366l-.296-4.484M155.555 297.366l-.296-4.484M157.45 308.924l-4.086.341M157.45 308.924l-4.086.341M153.534 311.528l-.341-4.088M153.534 311.528l-.341-4.088M155.578 311.528l-.341-4.088M155.578 311.528l-.341-4.088M137.572 167.5l7.422 1.881M137.572 167.5l7.422 1.881M137.69 181.742l7.186.65M137.69 181.742l7.186.65M137.99 196.336l6.585.165M137.99 196.336l6.585.165M138.212 210.83l6.142-.115M138.212 210.83l6.142-.115M138.514 224.614l5.538-.409M138.514 224.614l5.538-.409M138.968 239.101l4.629-.67M138.968 239.101l4.629-.67M143.34 252.746l-4.115.73M143.34 252.746l-4.115.73M139.59 255.596l-.73-4.117M139.59 255.596l-.73-4.116M141.648 254.878l-.73-4.117M141.648 254.878l-.73-4.116M143.315 266.381l-4.064.73M143.315 266.381l-4.064.73M139.616 269.206l-.73-4.064M139.616 269.206l-.73-4.064M141.648 269.206l-.73-4.064M141.648 269.206l-.73-4.064M143.209 280.738l-3.852.723M143.209 280.738l-3.852.723M139.719 283.457l-.724-3.853M139.719 283.457l-.724-3.853M141.645 282.74l-.723-3.853M141.645 282.74l-.723-3.853M139.7 295.783l3.167-.634M139.7 295.783l3.167-.634M139.7 309.42l3.167-.635M139.7 309.42l3.167-.635M123.179 167.261l7.959 2.366M123.179 167.261l7.959 2.366M123.248 181.701l7.822.731M123.248 181.701l7.822.731M123.536 196.318l7.247.202M123.536 196.318l7.247.202M123.9 210.951l6.517-.355M123.9 210.951l6.517-.355M124.16 224.735l5.998-.649M124.16 224.735l5.998-.649M124.503 239.232l5.312-.929M124.503 239.232l5.312-.929M125.025 253.68l4.269-1.105M125.025 253.68l4.269-1.105M125.612 267.231l3.094-.928M125.612 267.231l3.094-.928M125.612 281.585l3.094-.928M125.612 281.585l3.094-.928M125.612 295.938l3.094-.928M125.612 295.938l3.094-.928M125.612 309.574l3.094-.928M125.612 309.574l3.094-.928M108.839 167.063l8.392 2.768M108.839 167.063l8.392 2.768M108.874 181.695l8.322.743M108.874 181.695l8.322.743M109.17 196.34l7.73.158M109.17 196.34l7.73.158M109.57 211.031l6.93-.515M109.57 211.031l6.93-.515M109.918 224.892l6.234-.959M109.918 224.892l6.234-.959M110.259 239.401l5.552-1.26M110.259 239.401l5.552-1.26M110.726 253.866l4.617-1.466M110.726 253.866l4.617-1.466M111.536 267.377l2.998-1.199M111.536 267.377l2.998-1.199M111.536 281.731l2.998-1.199M111.536 281.731l2.998-1.199M111.536 296.085l2.998-1.2M111.536 296.085l2.998-1.2M111.536 309.721l2.998-1.2M111.536 309.721l2.998-1.2M94.547 166.91l8.728 3.08M94.547 166.91l8.728 3.08M94.569 181.74l8.684.652M94.569 181.74l8.684.652M94.886 196.416l8.05.005M94.886 196.416l8.05.005M95.295 211.132l7.232-.715M95.295 211.132l7.232-.715M95.743 225.073l6.336-1.314M95.743 225.073l6.336-1.314M96.093 239.586l5.636-1.62M96.093 239.586l5.636-1.62M96.549 254.051l4.724-1.822M96.549 254.051l4.724-1.822M97.467 267.512l2.888-1.444M97.467 267.512l2.888-1.444M97.467 281.866l2.888-1.444M97.467 281.866l2.888-1.444M97.467 296.22l2.888-1.445M97.467 296.22l2.888-1.445M97.467 309.855l2.888-1.444M97.467 309.855l2.888-1.444M80.335 166.828l8.904 3.246M80.335 166.828l8.904 3.246M80.354 181.864l8.867.402M80.354 181.864l8.867.402M80.69 196.565l8.194-.292M80.69 196.565l8.194-.292M81.118 211.296l7.338-1.04M81.118 211.296l7.338-1.04M81.639 225.28l6.296-1.718M81.639 225.28l6.296-1.717M82 239.786l5.572-2.006M82 239.786l5.572-2.005M82.46 254.235l4.653-2.17M82.46 254.235l4.653-2.17M83.402 267.634l2.77-1.662M83.402 267.634l2.77-1.662M83.402 281.988l2.77-1.662M83.402 281.988l2.77-1.662M83.402 296.341l2.77-1.66M83.402 296.341l2.77-1.66M83.402 309.977l2.77-1.66M83.402 309.977l2.77-1.66M66.247 166.854l8.832 3.192M66.247 166.854l8.832 3.192M66.247 182.095l8.832-.059M66.247 182.095l8.832-.059M66.596 196.798l8.134-.755M66.596 196.798l8.134-.755M67.045 211.53l7.236-1.498M67.045 211.53l7.236-1.498M67.613 225.51l6.1-2.16M67.613 225.51l6.1-2.16M67.988 239.994l5.35-2.4M67.988 239.994l5.35-2.4M68.458 254.407l4.41-2.49M68.458 254.407l4.41-2.49M69.34 267.743l2.646-1.853M69.34 267.743l2.646-1.853M69.34 282.097l2.646-1.853M69.34 282.097l2.646-1.853M69.34 296.45l2.646-1.852M69.34 296.45l2.646-1.852M69.34 310.086l2.646-1.852M69.34 310.086l2.646-1.852M52.238 166.952l8.602 2.994M52.238 166.952l8.602 2.994M52.252 182.425l8.573-.717M52.252 182.425l8.573-.717M52.612 197.112l7.854-1.376M52.612 197.112l7.854-1.376M53.089 211.821l6.899-2.067M53.089 211.821l6.899-2.067M53.669 225.747l5.74-2.612M53.669 225.747l5.74-2.612M54.053 240.194l4.972-2.773M54.053 240.194l4.972-2.773M54.54 253.83l3.998-2.737M54.54 253.83l3.998-2.737M55.278 267.84l2.522-2.018M55.278 267.84l2.522-2.018M55.278 282.193l2.522-2.017M55.278 282.193l2.522-2.017M55.278 296.547l2.522-2.018M55.278 296.547l2.522-2.018M55.278 310.183l2.522-2.018M55.278 310.183l2.522-2.018M38.277 167.097l8.275 2.7M38.277 167.097l8.275 2.7M38.368 182.83l8.094-1.518M38.368 182.83l8.094-1.518M38.75 197.488l7.329-2.11M38.75 197.488l7.329-2.11M39.264 211.43l6.302-2.69M39.264 211.43l6.302-2.69M39.806 225.97l5.218-3.026M39.806 225.97l5.218-3.026M40.197 240.36l4.435-3.067M40.197 240.36l4.435-3.067M40.719 253.89l3.392-2.818M40.719 253.89l3.392-2.818M41.215 267.924l2.4-2.16M41.215 267.924l2.4-2.16M41.215 282.278l2.4-2.16M41.215 282.278l2.4-2.16M41.215 295.914l2.4-2.16M41.215 295.914l2.4-2.16M41.215 310.268l2.4-2.16M41.215 310.268l2.4-2.16M24.363 167.284l7.856 2.32M24.363 167.284l7.856 2.32M24.612 183.28l7.358-2.393M24.612 183.28l7.358-2.393M25.026 197.883l6.529-2.867M25.026 197.883l6.529-2.867M25.582 211.733l5.417-3.254M25.582 211.733l5.417-3.254M26.019 226.145l4.543-3.334M26.019 226.145l4.543-3.333M26.422 240.45l3.737-3.202M26.422 240.45l3.737-3.202M27.149 253.645l2.284-2.284M27.149 253.645l2.284-2.284M27.149 268l2.284-2.285M27.149 268l2.284-2.285M27.149 282.353l2.284-2.284M27.149 282.353l2.284-2.284M27.149 295.99l2.284-2.285M27.149 295.99l2.284-2.285M27.149 310.342l2.284-2.283M27.149 310.342l2.284-2.283" fill="none" stroke="#d9d9d9"/></g><path d="M57.5 288.5V281H50M57.5 49.5V57H50M281.5 288.5V281h7.5M281.5 49.5V57h7.5" fill="none" stroke="#000"/><path d="M99.5 99l-42-42" fill="none" stroke="#000" stroke-linecap="square"/><path d="M239.418 99l42-42M99.5 239l-42 42M239.418 239l42 42" fill="none" stroke="#000" stroke-linecap="square" serif:id="Line"/><g fill="none" stroke="#000"><path d="M99 98.5h141v141H99z"/><path serif:id="Line" d="M169.5 99v49.092" stroke-linecap="square"/><path d="M169.5 189.671v49.092M190.383 169h49.091M99.908 169H149" stroke-linecap="square"/></g><g><path d="M169.5 189c11.046 0 20-8.954 20-20.001 0-11.045-8.954-19.999-20-19.999s-20 8.954-20 19.999c0 11.047 8.954 20.001 20 20.001z" fill="none" stroke="#1d1c1b"/></g><g><path d="M99.5 100.5a1.5 1.5 0 1 0 0-3 1.5 1.5 0 0 0 0 3M239.5 100.5a1.5 1.5 0 1 0 0-3 1.5 1.5 0 0 0 0 3M99.5 240.5a1.5 1.5 0 1 0 0-3 1.5 1.5 0 0 0 0 3M239.5 240.5a1.5 1.5 0 1 0 0-3 1.5 1.5 0 0 0 0 3"/></g><g fill="none" stroke="#000"><path d="M169.5 49.086v49.415M169.5 288.95v-49.546M49.572 169H99.06" stroke-dasharray="1.98,1.98"/><path d="M289.84 169h-49.85" stroke-dasharray="1.99,1.99"/></g><g><path d="M39.029 40.492h2.216v-.624h-.712V35.46h.712v-.616h-2.216v.616h.704v4.408h-.704v.624zm3.656 0h2.416c.448 0 .824-.032 1.192-.152 1.104-.352 1.784-1.304 1.784-2.672 0-1.376-.704-2.352-1.784-2.688-.376-.112-.728-.136-1.2-.136h-2.408v.616h.704v4.408h-.704v.624zm1.504-.656V35.5h.864c.368 0 .656.016.968.128.752.272 1.224 1 1.224 2.04 0 1.032-.472 1.76-1.232 2.024-.288.112-.592.144-.96.144h-.864zM39.029 49.458h4.224v-1.336h-.696v.68h-2.024v-1.864h2v-.656h-2v-1.816h1.888v.656h.696V43.81h-4.088v.616h.704v4.408h-.704v.624zm4.92 0h1.96v-.624h-.608l.44-1.256h2l.44 1.256h-.6v.624h1.96v-.624h-.544l-1.8-5.024h-.904l-1.8 5.024h-.544v.624zm1.992-2.52l.696-1.96c.072-.232.096-.432.096-.432h.024s.016.2.096.432l.688 1.96h-1.6z"/></g><g><path d="M289.412 40.488h.848l1.784-5.032h.56v-.616h-2.016v.616h.624l-1.264 3.72c-.064.2-.096.44-.096.44h-.024s-.032-.24-.096-.44l-1.264-3.72h.624v-.616h-2.016v.616h.552l1.784 5.032zm3.472 0h1.96v-.624h-.608l.44-1.256h2l.44 1.256h-.6v.624h1.96v-.624h-.544l-1.8-5.024h-.904l-1.8 5.024h-.544v.624zm1.992-2.52l.696-1.96c.072-.232.096-.432.096-.432h.024s.016.2.096.432l.688 1.96h-1.6zm4.72 2.52h4.176V38.92h-.704v.912H301.1v-4.336h.712v-.656h-2.216v.656h.704v4.368h-.704v.624zM287.94 47.398c0 .544.112 1.016.376 1.376.384.52 1.056.824 1.856.824.768 0 1.456-.28 1.84-.824.248-.352.392-.84.392-1.376V44.47h.704v-.616h-2.216v.616h.712v2.912c0 .368-.08.68-.216.912-.232.384-.68.592-1.216.592-.544 0-.984-.208-1.216-.576-.144-.232-.216-.552-.216-.92v-2.92h.712v-.616h-2.224v.616h.712v2.928zm6.44 2.104h4.224v-1.336h-.696v.68h-2.024v-1.864h2v-.656h-2V44.51h1.888v.656h.696v-1.312h-4.088v.616h.704v4.408h-.704v.624z"/></g><g><path d="M286.564 301.181h2.2v-.624h-.696v-1.976h.464c.232 0 .344.064.44.224l1.088 1.952c.176.312.312.424.784.424h.568v-.624h-.264c-.2 0-.312-.056-.4-.208l-1.016-1.768c-.16-.304-.32-.376-.32-.376v-.016l1.464-2.04h.544v-.616h-1.912v.616h.52l-1.232 1.776h-.728v-1.776h.616v-.616h-2.12v.616h.704v4.408h-.704v.624zm6.036 0h4.224v-1.336h-.696v.68h-2.024v-1.864h2v-.656h-2v-1.816h1.888v.656h.696v-1.312H292.6v.616h.704v4.408h-.704v.624zm6.676 0h2.224v-.624h-.712v-4.368h1.328v.88h.696v-1.536h-4.848v1.536h.696v-.88h1.328v4.368h-.712v.624zM286.444 292.472h2.176v-.624h-.68l.256-3.376c.008-.176-.024-.464-.024-.464h.024s.064.272.128.432l1.296 2.968h.704l1.296-2.968a3.91 3.91 0 0 0 .128-.432h.024s-.032.288-.024.464l.256 3.376h-.68v.624h2.176v-.624h-.704l-.36-4.408h.72v-.616h-1.6l-1.448 3.44c-.088.232-.128.408-.128.408h-.016s-.04-.176-.128-.408l-1.448-3.44h-1.6v.616h.72l-.36 4.408h-.704v.624zm7.748 0h1.96v-.624h-.608l.44-1.256h2l.44 1.256h-.6v.624h1.96v-.624h-.544l-1.8-5.024h-.904l-1.8 5.024h-.544v.624zm1.992-2.52l.696-1.96c.072-.232.096-.432.096-.432H297s.016.2.096.432l.688 1.96h-1.6zm4.412 2.52h2.2v-.624h-.696v-1.656h.672c.344 0 .448.072.592.312l.872 1.544c.192.336.304.424.784.424h.48v-.624h-.168c-.2 0-.304-.032-.392-.184l-.8-1.392a.675.675 0 0 0-.24-.264v-.016c.72-.184 1.168-.768 1.168-1.584 0-.768-.392-1.264-.984-1.464-.312-.104-.64-.12-1.04-.12h-2.448v.616h.704v4.408h-.704v.624zm1.504-2.936v-2.056h.936c.272 0 .512.032.696.104.352.144.528.448.528.888 0 .664-.408 1.064-1.024 1.064H302.1z"/></g><g><path d="M36.157 292.486h2.2v-.624h-.696v-1.656h.672c.344 0 .448.072.592.312l.872 1.544c.192.336.304.424.784.424h.48v-.624h-.168c-.2 0-.304-.032-.392-.184l-.8-1.392c-.096-.184-.24-.264-.24-.264v-.016c.72-.184 1.168-.768 1.168-1.584 0-.768-.392-1.264-.984-1.464-.312-.104-.64-.12-1.04-.12h-2.448v.616h.704v4.408h-.704v.624zm1.504-2.936v-2.056h.936c.272 0 .512.032.696.104.352.144.528.448.528.888 0 .664-.408 1.064-1.024 1.064h-1.136zm4.372 2.936h4.224v-1.336h-.696v.68h-2.024v-1.864h2v-.656h-2v-1.816h1.888v.656h.696v-1.312h-4.088v.616h.704v4.408h-.704v.624zm5.356-1.696v.592c0 .808.984 1.2 1.864 1.2 1.048 0 1.928-.56 1.928-1.64 0-1.048-.824-1.368-1.656-1.68-.632-.24-1.2-.44-1.2-1.04 0-.52.44-.776.992-.776.464 0 .968.176.968.504v.392h.744v-.664c0-.616-.864-.936-1.712-.936-.952 0-1.808.456-1.808 1.52 0 1 .76 1.32 1.504 1.6.696.272 1.36.488 1.36 1.144 0 .56-.472.864-1.12.864-.592 0-1.128-.248-1.128-.664v-.416h-.736zM36.125 307.382c0 1.648 1.224 2.952 2.92 2.952.784 0 2.2-.28 2.2-1.112v-.688h-.744v.44c0 .52-1.008.664-1.408.664-1.232 0-2.144-.952-2.144-2.288 0-1.28.888-2.168 2.096-2.168.52 0 1.376.184 1.376.68v.44h.744v-.688c0-.872-1.472-1.12-2.152-1.12-1.632 0-2.888 1.232-2.888 2.888zm6.284 2.856h4.224v-1.336h-.696v.68h-2.024v-1.864h2v-.656h-2v-1.816h1.888v.656h.696v-1.312h-4.088v.616h.704v4.408h-.704v.624zm5.356-1.696v.592c0 .808.984 1.2 1.864 1.2 1.048 0 1.928-.56 1.928-1.64 0-1.048-.824-1.368-1.656-1.68-.632-.24-1.2-.44-1.2-1.04 0-.52.44-.776.992-.776.464 0 .968.176.968.504v.392h.744v-.664c0-.616-.864-.936-1.712-.936-.952 0-1.808.456-1.808 1.52 0 1 .76 1.32 1.504 1.6.696.272 1.36.488 1.36 1.144 0 .56-.472.864-1.12.864-.592 0-1.128-.248-1.128-.664v-.416h-.736zM36.117 298.514c0 1.664 1.264 2.96 2.904 2.96 1.632 0 2.904-1.296 2.904-2.96 0-1.624-1.272-2.88-2.904-2.88-1.64 0-2.904 1.256-2.904 2.88zm.824 0c0-1.232.928-2.176 2.08-2.176 1.144 0 2.072.944 2.072 2.176 0 1.272-.928 2.248-2.072 2.248-1.152 0-2.08-.976-2.08-2.248zm6.388.76c0 .544.112 1.016.376 1.376.384.52 1.056.824 1.856.824.768 0 1.456-.28 1.84-.824.248-.352.392-.84.392-1.376v-2.928h.704v-.616h-2.216v.616h.712v2.912c0 .368-.08.68-.216.912-.232.384-.68.592-1.216.592-.544 0-.984-.208-1.216-.576-.144-.232-.216-.552-.216-.92v-2.92h.712v-.616h-2.224v.616h.712v2.928zm5.94 2.104h2.2v-.624h-.696v-1.656h.672c.344 0 .448.072.592.312l.872 1.544c.192.336.304.424.784.424h.48v-.624h-.168c-.2 0-.304-.032-.392-.184l-.8-1.392c-.096-.184-.24-.264-.24-.264v-.016c.72-.184 1.168-.768 1.168-1.584 0-.768-.392-1.264-.984-1.464-.312-.104-.64-.12-1.04-.12h-2.448v.616h.704v4.408h-.704v.624zm1.504-2.936v-2.056h.936c.272 0 .512.032.696.104.352.144.528.448.528.888 0 .664-.408 1.064-1.024 1.064h-1.136z"/></g><g><g serif:id="+" stroke="#00b872"><path d="M239.5 79a8.001 8.001 0 1 0-.002-16.002A8.001 8.001 0 0 0 239.5 79z" fill="#fff"/><path d="M236.5 71.306h2.656V74h.7v-2.694h2.644v-.612h-2.644V68h-.7v2.694H236.5v.612z" stroke-linejoin="round" stroke-miterlimit="1.414"/></g><g serif:id="+" stroke="#00b872"><path serif:id="Stroke-3" d="M286.5 121a8.001 8.001 0 1 0-.002-16.002A8.001 8.001 0 0 0 286.5 121z" fill="#fff"/><path serif:id="Fill-6" d="M283.5 113.306h2.656V116h.7v-2.694h2.644v-.612h-2.644V110h-.7v2.694H283.5v.612z" stroke-linejoin="round" stroke-miterlimit="1.414"/></g><g serif:id="+" stroke="#00b872"><path serif:id="Stroke-3" d="M78.5 205a8.001 8.001 0 1 0-.002-16.002A8.001 8.001 0 0 0 78.5 205z" fill="#fff"/><path serif:id="Fill-6" d="M75.5 197.306h2.656V200h.7v-2.694H81.5v-.612h-2.644V194h-.7v2.694H75.5v.612z" stroke-linejoin="round" stroke-miterlimit="1.414"/></g><g serif:id="+" stroke="#00b872"><path serif:id="Stroke-3" d="M71.5 121a8.001 8.001 0 1 0-.002-16.002A8.001 8.001 0 0 0 71.5 121z" fill="#fff"/><path serif:id="Fill-6" d="M68.5 113.306h2.656V116h.7v-2.694H74.5v-.612h-2.644V110h-.7v2.694H68.5v.612z" stroke-linejoin="round" stroke-miterlimit="1.414"/></g><g serif:id="+" stroke="#00b872"><path serif:id="Stroke-3" d="M57.5 93a8.001 8.001 0 1 0-.002-16.002A8.001 8.001 0 0 0 57.5 93z" fill="#fff"/><path serif:id="Fill-6" d="M54.5 85.306h2.656V88h.7v-2.694H60.5v-.612h-2.644V82h-.7v2.694H54.5v.612z" stroke-linejoin="round" stroke-miterlimit="1.414"/></g><g serif:id="-" stroke="#f13872"><path d="M137.629 55.258a8.129 8.129 0 1 0 0-16.258 8.129 8.129 0 0 0 0 16.258z" fill="#fff"/><path stroke-linejoin="round" stroke-miterlimit="1.414" d="M134.5 46.5h5.999v.695H134.5z"/></g><g serif:id="-" stroke="#f13872"><path serif:id="Stroke-51" d="M216.629 275.258a8.129 8.129 0 1 0 0-16.258 8.129 8.129 0 0 0 0 16.258z" fill="#fff"/><path serif:id="Fill-54" stroke-linejoin="round" stroke-miterlimit="1.414" d="M213.5 266.5h5.999v.695H213.5z"/></g><g serif:id="-" stroke="#f13872"><path serif:id="Stroke-51" d="M239.629 275.258a8.129 8.129 0 1 0 0-16.258 8.129 8.129 0 0 0 0 16.258z" fill="#fff"/><path serif:id="Fill-54" stroke-linejoin="round" stroke-miterlimit="1.414" d="M236.5 266.5h5.999v.695H236.5z"/></g><g serif:id="-" stroke="#f13872"><path serif:id="Stroke-51" d="M236.629 303.258a8.129 8.129 0 1 0 0-16.258 8.129 8.129 0 0 0 0 16.258z" fill="#fff"/><path serif:id="Fill-54" stroke-linejoin="round" stroke-miterlimit="1.414" d="M233.5 294.5h5.999v.695H233.5z"/></g></g><g><path fill="#fff" d="M248.8 71.074h30v37.013h-30z"/><path d="M279.3 108.588h-31V70.573h31v38.015zm-30-37.014v36.012h29V71.574h-29z" fill="#385af1" fill-rule="nonzero"/><path d="M263.8 77.264h10.5M263.8 80.99h10.5M263.8 87.717h10.5M263.8 91.443h10.5M263.929 98.17h10.5M263.8 101.897h10.5" fill="#fff" stroke="#385af1" stroke-width="1" serif:id="Stroke-98"/><path d="M256.769 82.853a3.727 3.727 0 1 0-.001-7.454 3.727 3.727 0 0 0 0 7.454zM256.769 93.307a3.727 3.727 0 1 0-.001-7.454 3.727 3.727 0 0 0 0 7.454zM256.898 103.76a3.727 3.727 0 1 0-.001-7.454 3.727 3.727 0 0 0 0 7.454z" fill="#fff" stroke="#385af1" stroke-width=".9993556" serif:id="Stroke-51"/></g><g serif:id="Todo"><path fill="#fff" d="M35.5 90.994h30v37.013h-30z" serif:id="path-29"/><path d="M66 128.508H35V90.493h31v38.015zM36 91.494v36.012h29V91.494H36z" fill="#385af1" fill-rule="nonzero"/><path d="M50.5 97.184H61M50.5 100.91H61M50.5 107.637H61M50.5 111.363H61M50.629 118.09h10.5M50.5 121.817H61" fill="#fff" stroke="#385af1" stroke-width="1" serif:id="Stroke-98"/><path d="M43.469 102.773a3.727 3.727 0 1 0-.001-7.454 3.727 3.727 0 0 0 0 7.454zM43.469 113.227a3.727 3.727 0 1 0-.001-7.454 3.727 3.727 0 0 0 0 7.454zM43.598 123.68a3.727 3.727 0 1 0-.001-7.454 3.727 3.727 0 0 0 0 7.454z" fill="#fff" stroke="#385af1" stroke-width=".9993556" serif:id="Stroke-51"/><path d="M45.306 97.5l-2.602 3.07-1.095-1.021-.184.197 1.302 1.214 2.784-3.286-.205-.174z" fill="#385af1" fill-rule="nonzero" stroke="#385af1" stroke-width=".8496414999999999" stroke-linejoin="round" stroke-miterlimit="1.414"/></g><g serif:id="Todo"><path fill="#fff" d="M201.05 273.983h30v37.013h-30z" serif:id="path-29"/><path d="M231.55 311.497h-31v-38.015h31v38.015zm-30-37.014v36.012h29v-36.012h-29z" fill="#385af1" fill-rule="nonzero"/><path d="M216.05 280.173h10.5M216.05 283.9h10.5M216.05 290.626h10.5M216.05 294.352h10.5M216.18 301.08h10.5M216.05 304.806h10.5" fill="#fff" stroke="#385af1" stroke-width="1" serif:id="Stroke-98"/><path d="M209.019 285.762a3.727 3.727 0 1 0-.001-7.454 3.727 3.727 0 0 0 0 7.454zM209.019 296.216a3.727 3.727 0 1 0-.001-7.454 3.727 3.727 0 0 0 0 7.454zM209.148 306.67a3.727 3.727 0 1 0-.001-7.455 3.727 3.727 0 0 0 0 7.454z" fill="#fff" stroke="#385af1" stroke-width=".9993556" serif:id="Stroke-51"/><path d="M210.856 280.5l-2.602 3.07-1.095-1.021-.184.197 1.302 1.214 2.784-3.286-.205-.174zM210.856 290.953l-2.602 3.07-1.095-1.021-.184.197 1.302 1.214 2.784-3.286-.205-.174z" fill="#385af1" fill-rule="nonzero" stroke="#385af1" stroke-width=".8496414999999999" stroke-linejoin="round" stroke-miterlimit="1.414"/></g></g></svg>