<svg xmlns="http://www.w3.org/2000/svg" width="100%" height="100%" viewBox="0 0 338 338" fill-rule="evenodd" stroke-linejoin="round" stroke-miterlimit="1.41421"><style><![CDATA[.B{stroke-miterlimit:4}.C{stroke-linejoin:miter}]]></style><g stroke="#385af1" fill="#fff"><path d="M104 32.5h30v17h-30z"/><g class="B C"><path d="M104 32.5h30v17h-30z"/><path d="M109 38.004h21M111 43h17"/></g><path d="M91 56.5h30v17H91z"/><g class="B C"><path d="M91 56.5h30v17H91z"/><path d="M96 62.004h21M98 67h17"/></g><path d="M132 68.5h30v17h-30z"/><g class="B C"><path d="M132 68.5h30v17h-30z"/><path d="M137 74.004h21M139 79h17"/></g><path d="M27 69.5h30v17H27z"/><g class="B C"><path d="M27 69.5h30v17H27z"/><path d="M32 75.004h21M34 80h17"/></g><path d="M42 109.5h30v17H42z"/><g class="B C"><path d="M42 109.5h30v17H42z"/><path d="M47 115.004h21M49 120h17"/></g><path d="M50 132.5h30v17H50z"/><g class="B C"><path d="M50 132.5h30v17H50z"/><path d="M55 138.004h21M57 143h17"/></g><path d="M125 109.5h30v17h-30z"/><g class="B C"><path d="M125 109.5h30v17h-30z"/><path d="M130 115.004h21M132 120h17"/></g><path d="M182 104.5h30v17h-30z"/><g class="B C"><path d="M182 104.5h30v17h-30z"/><path d="M187 110.004h21M189 115h17"/></g><path d="M196 146.5h30v17h-30z"/><g class="B C"><path d="M196 146.5h30v17h-30z"/><path d="M201 152.004h21M203 157h17"/></g><path d="M175 48.5h30v17h-30z"/><g class="B C"><path d="M175 48.5h30v17h-30z"/><path d="M180 54.004h21M182 59h17"/></g><path d="M212 57.5h30v17h-30z"/><g class="B C"><path d="M212 57.5h30v17h-30z"/><path d="M217 63.004h21M219 68h17"/></g><path d="M218 34.5h30v17h-30z"/><g class="B C"><path d="M218 34.5h30v17h-30z"/><path d="M223 40.004h21M225 45h17"/></g><path d="M280 69.5h30v17h-30z"/><g class="B C"><path d="M280 69.5h30v17h-30z"/><path d="M285 75.004h21M287 80h17"/></g><path d="M287 104.5h30v17h-30z"/><g class="B C"><path d="M287 104.5h30v17h-30z"/><path d="M292 110.004h21M294 115h17"/></g><path d="M246 118.5h30v17h-30z"/><g class="B C"><path d="M246 118.5h30v17h-30z"/><path d="M251 124.004h21M253 129h17"/></g><path d="M105 146.5h30v17h-30z"/><g class="B C"><path d="M105 146.5h30v17h-30z"/><path d="M110 152.004h21M112 157h17"/></g><path d="M105 173.5h30v17h-30z"/><g class="B C"><path d="M105 173.5h30v17h-30z"/><path d="M110 179.004h21M112 184h17"/></g><path d="M105 215.5h30v17h-30z"/><g class="B C"><path d="M105 215.5h30v17h-30z"/><path d="M110 221.004h21M112 226h17"/></g><path d="M50 188.5h30v17H50z"/><g class="B C"><path d="M50 188.5h30v17H50z"/><path d="M55 194.004h21M57 199h17"/></g><path d="M35.5 216.5h30v17h-30z"/><g class="B C"><path d="M35.5 216.5h30v17h-30z"/><path d="M40.5 222.004H62M42.5 227H60"/></g><path d="M28 251.5h30v17H28z"/><g class="B C"><path d="M28 251.5h30v17H28z"/><path d="M33 257.004h21M35 262h17"/></g><path d="M78 272.5h30v17H78z"/><g class="B C"><path d="M78 272.5h30v17H78z"/><path d="M83 278.004h21M85 283h17"/></g><path d="M78 300.5h30v17H78z"/><g class="B C"><path d="M78 300.5h30v17H78z"/><path d="M83 306.004h21M85 311h17"/></g><path d="M125 263.5h30v17h-30z"/><g class="B C"><path d="M125 263.5h30v17h-30z"/><path d="M130 269.004h21M132 274h17"/></g><path d="M119 286.5h30v17h-30z"/><g class="B C"><path d="M119 286.5h30v17h-30z"/><path d="M124 292.004h21M126 297h17"/></g><path d="M217 263.5h30v17h-30z"/><g class="B C"><path d="M217 263.5h30v17h-30z"/><path d="M222 269.004h21M224 274h17"/></g><path d="M190 286.5h30v17h-30z"/><g class="B C"><path d="M190 286.5h30v17h-30z"/><path d="M195 292.004h21M197 297h17"/></g><path d="M231 292.5h30v17h-30z"/><g class="B C"><path d="M231 292.5h30v17h-30z"/><path d="M236 298.004h21M238 303h17"/></g><path d="M189 215.5h30v17h-30z"/><g class="B C"><path d="M189 215.5h30v17h-30z"/><path d="M194 221.004h21M196 226h17"/></g><path d="M203 174.5h30v17h-30z"/><g class="B C"><path d="M203 174.5h30v17h-30z"/><path d="M208 180.004h21M210 185h17"/></g><path d="M246 189.5h30v17h-30z"/><g class="B C"><path d="M246 189.5h30v17h-30z"/><path d="M251 195.004h21M253 200h17"/></g><path d="M258 216.5h30v17h-30z"/><g class="B C"><path d="M258 216.5h30v17h-30z"/><path d="M263 222.004h21M265 227h17"/></g></g></svg>