<svg viewBox="0 0 338 338" xmlns="http://www.w3.org/2000/svg" xmlns:serif="http://www.serif.com/" fill-rule="evenodd" clip-rule="evenodd"><g serif:id="The-Product-Field-|-03-Check-|-In-Practice"><path fill="#fff" d="M0 0h338v338H0z"/><path d="M57.5 288.5V281H50M57.5 49.5V57H50M281.5 288.5V281h7.5M281.5 49.5V57h7.5" fill="none" stroke="#000"/><path d="M99.5 99l-42-42" fill="none" stroke="#000" stroke-linecap="square"/><path d="M239.418 99l42-42M99.5 239l-42 42M239.418 239l42 42" fill="none" stroke="#000" stroke-linecap="square" serif:id="Line"/><g fill="none" stroke="#000"><path d="M99 98.5h141v141H99z"/><path serif:id="Line" d="M169.5 99v49.092" stroke-linecap="square"/><path d="M169.5 189.671v49.092M190.383 169h49.091M99.908 169H149" stroke-linecap="square"/></g><path d="M169.5 189c11.046 0 20-8.954 20-20.001 0-11.045-8.954-19.999-20-19.999s-20 8.954-20 19.999c0 11.047 8.954 20.001 20 20.001z" fill="#fff" stroke="#385af1"/><path d="M99.5 100.5a1.5 1.5 0 1 0 0-3 1.5 1.5 0 0 0 0 3M239.5 100.5a1.5 1.5 0 1 0 0-3 1.5 1.5 0 0 0 0 3M99.5 240.5a1.5 1.5 0 1 0 0-3 1.5 1.5 0 0 0 0 3M239.5 240.5a1.5 1.5 0 1 0 0-3 1.5 1.5 0 0 0 0 3"/><g fill="none" stroke="#000"><path d="M169.5 49.086v49.415M169.5 288.95v-49.546M49.572 169H99.06" stroke-dasharray="1.98,1.98"/><path d="M289.84 169h-49.85" stroke-dasharray="1.99,1.99"/></g><path d="M39.029 40.492h2.216v-.624h-.712V35.46h.712v-.616h-2.216v.616h.704v4.408h-.704v.624zm3.656 0h2.416c.448 0 .824-.032 1.192-.152 1.104-.352 1.784-1.304 1.784-2.672 0-1.376-.704-2.352-1.784-2.688-.376-.112-.728-.136-1.2-.136h-2.408v.616h.704v4.408h-.704v.624zm1.504-.656V35.5h.864c.368 0 .656.016.968.128.752.272 1.224 1 1.224 2.04 0 1.032-.472 1.76-1.232 2.024-.288.112-.592.144-.96.144h-.864zM39.029 49.458h4.224v-1.336h-.696v.68h-2.024v-1.864h2v-.656h-2v-1.816h1.888v.656h.696V43.81h-4.088v.616h.704v4.408h-.704v.624zm4.92 0h1.96v-.624h-.608l.44-1.256h2l.44 1.256h-.6v.624h1.96v-.624h-.544l-1.8-5.024h-.904l-1.8 5.024h-.544v.624zm1.992-2.52l.696-1.96c.072-.232.096-.432.096-.432h.024s.016.2.096.432l.688 1.96h-1.6zM289.412 40.488h.848l1.784-5.032h.56v-.616h-2.016v.616h.624l-1.264 3.72c-.064.2-.096.44-.096.44h-.024s-.032-.24-.096-.44l-1.264-3.72h.624v-.616h-2.016v.616h.552l1.784 5.032zm3.472 0h1.96v-.624h-.608l.44-1.256h2l.44 1.256h-.6v.624h1.96v-.624h-.544l-1.8-5.024h-.904l-1.8 5.024h-.544v.624zm1.992-2.52l.696-1.96c.072-.232.096-.432.096-.432h.024s.016.2.096.432l.688 1.96h-1.6zm4.72 2.52h4.176V38.92h-.704v.912H301.1v-4.336h.712v-.656h-2.216v.656h.704v4.368h-.704v.624zM287.94 47.398c0 .544.112 1.016.376 1.376.384.52 1.056.824 1.856.824.768 0 1.456-.28 1.84-.824.248-.352.392-.84.392-1.376V44.47h.704v-.616h-2.216v.616h.712v2.912c0 .368-.08.68-.216.912-.232.384-.68.592-1.216.592-.544 0-.984-.208-1.216-.576-.144-.232-.216-.552-.216-.92v-2.92h.712v-.616h-2.224v.616h.712v2.928zm6.44 2.104h4.224v-1.336h-.696v.68h-2.024v-1.864h2v-.656h-2V44.51h1.888v.656h.696v-1.312h-4.088v.616h.704v4.408h-.704v.624zM286.564 301.181h2.2v-.624h-.696v-1.976h.464c.232 0 .344.064.44.224l1.088 1.952c.176.312.312.424.784.424h.568v-.624h-.264c-.2 0-.312-.056-.4-.208l-1.016-1.768c-.16-.304-.32-.376-.32-.376v-.016l1.464-2.04h.544v-.616h-1.912v.616h.52l-1.232 1.776h-.728v-1.776h.616v-.616h-2.12v.616h.704v4.408h-.704v.624zm6.036 0h4.224v-1.336h-.696v.68h-2.024v-1.864h2v-.656h-2v-1.816h1.888v.656h.696v-1.312H292.6v.616h.704v4.408h-.704v.624zm6.676 0h2.224v-.624h-.712v-4.368h1.328v.88h.696v-1.536h-4.848v1.536h.696v-.88h1.328v4.368h-.712v.624zM286.444 292.472h2.176v-.624h-.68l.256-3.376c.008-.176-.024-.464-.024-.464h.024s.064.272.128.432l1.296 2.968h.704l1.296-2.968a3.91 3.91 0 0 0 .128-.432h.024s-.032.288-.024.464l.256 3.376h-.68v.624h2.176v-.624h-.704l-.36-4.408h.72v-.616h-1.6l-1.448 3.44c-.088.232-.128.408-.128.408h-.016s-.04-.176-.128-.408l-1.448-3.44h-1.6v.616h.72l-.36 4.408h-.704v.624zm7.748 0h1.96v-.624h-.608l.44-1.256h2l.44 1.256h-.6v.624h1.96v-.624h-.544l-1.8-5.024h-.904l-1.8 5.024h-.544v.624zm1.992-2.52l.696-1.96c.072-.232.096-.432.096-.432H297s.016.2.096.432l.688 1.96h-1.6zm4.412 2.52h2.2v-.624h-.696v-1.656h.672c.344 0 .448.072.592.312l.872 1.544c.192.336.304.424.784.424h.48v-.624h-.168c-.2 0-.304-.032-.392-.184l-.8-1.392a.675.675 0 0 0-.24-.264v-.016c.72-.184 1.168-.768 1.168-1.584 0-.768-.392-1.264-.984-1.464-.312-.104-.64-.12-1.04-.12h-2.448v.616h.704v4.408h-.704v.624zm1.504-2.936v-2.056h.936c.272 0 .512.032.696.104.352.144.528.448.528.888 0 .664-.408 1.064-1.024 1.064H302.1zM36.157 292.486h2.2v-.624h-.696v-1.656h.672c.344 0 .448.072.592.312l.872 1.544c.192.336.304.424.784.424h.48v-.624h-.168c-.2 0-.304-.032-.392-.184l-.8-1.392c-.096-.184-.24-.264-.24-.264v-.016c.72-.184 1.168-.768 1.168-1.584 0-.768-.392-1.264-.984-1.464-.312-.104-.64-.12-1.04-.12h-2.448v.616h.704v4.408h-.704v.624zm1.504-2.936v-2.056h.936c.272 0 .512.032.696.104.352.144.528.448.528.888 0 .664-.408 1.064-1.024 1.064h-1.136zm4.372 2.936h4.224v-1.336h-.696v.68h-2.024v-1.864h2v-.656h-2v-1.816h1.888v.656h.696v-1.312h-4.088v.616h.704v4.408h-.704v.624zm5.356-1.696v.592c0 .808.984 1.2 1.864 1.2 1.048 0 1.928-.56 1.928-1.64 0-1.048-.824-1.368-1.656-1.68-.632-.24-1.2-.44-1.2-1.04 0-.52.44-.776.992-.776.464 0 .968.176.968.504v.392h.744v-.664c0-.616-.864-.936-1.712-.936-.952 0-1.808.456-1.808 1.52 0 1 .76 1.32 1.504 1.6.696.272 1.36.488 1.36 1.144 0 .56-.472.864-1.12.864-.592 0-1.128-.248-1.128-.664v-.416h-.736zM36.125 307.382c0 1.648 1.224 2.952 2.92 2.952.784 0 2.2-.28 2.2-1.112v-.688h-.744v.44c0 .52-1.008.664-1.408.664-1.232 0-2.144-.952-2.144-2.288 0-1.28.888-2.168 2.096-2.168.52 0 1.376.184 1.376.68v.44h.744v-.688c0-.872-1.472-1.12-2.152-1.12-1.632 0-2.888 1.232-2.888 2.888zm6.284 2.856h4.224v-1.336h-.696v.68h-2.024v-1.864h2v-.656h-2v-1.816h1.888v.656h.696v-1.312h-4.088v.616h.704v4.408h-.704v.624zm5.356-1.696v.592c0 .808.984 1.2 1.864 1.2 1.048 0 1.928-.56 1.928-1.64 0-1.048-.824-1.368-1.656-1.68-.632-.24-1.2-.44-1.2-1.04 0-.52.44-.776.992-.776.464 0 .968.176.968.504v.392h.744v-.664c0-.616-.864-.936-1.712-.936-.952 0-1.808.456-1.808 1.52 0 1 .76 1.32 1.504 1.6.696.272 1.36.488 1.36 1.144 0 .56-.472.864-1.12.864-.592 0-1.128-.248-1.128-.664v-.416h-.736zM36.117 298.514c0 1.664 1.264 2.96 2.904 2.96 1.632 0 2.904-1.296 2.904-2.96 0-1.624-1.272-2.88-2.904-2.88-1.64 0-2.904 1.256-2.904 2.88zm.824 0c0-1.232.928-2.176 2.08-2.176 1.144 0 2.072.944 2.072 2.176 0 1.272-.928 2.248-2.072 2.248-1.152 0-2.08-.976-2.08-2.248zm6.388.76c0 .544.112 1.016.376 1.376.384.52 1.056.824 1.856.824.768 0 1.456-.28 1.84-.824.248-.352.392-.84.392-1.376v-2.928h.704v-.616h-2.216v.616h.712v2.912c0 .368-.08.68-.216.912-.232.384-.68.592-1.216.592-.544 0-.984-.208-1.216-.576-.144-.232-.216-.552-.216-.92v-2.92h.712v-.616h-2.224v.616h.712v2.928zm5.94 2.104h2.2v-.624h-.696v-1.656h.672c.344 0 .448.072.592.312l.872 1.544c.192.336.304.424.784.424h.48v-.624h-.168c-.2 0-.304-.032-.392-.184l-.8-1.392c-.096-.184-.24-.264-.24-.264v-.016c.72-.184 1.168-.768 1.168-1.584 0-.768-.392-1.264-.984-1.464-.312-.104-.64-.12-1.04-.12h-2.448v.616h.704v4.408h-.704v.624zm1.504-2.936v-2.056h.936c.272 0 .512.032.696.104.352.144.528.448.528.888 0 .664-.408 1.064-1.024 1.064h-1.136z"/><g fill="#fff" stroke="#000"><path stroke-linejoin="round" stroke-miterlimit="1.414" d="M104 32.5h30v17h-30z"/><path serif:id="path-3" d="M104 32.5h30v17h-30z"/><path d="M109 38.004h21M111 43h17"/><g serif:id="post-it"><g serif:id="Stroke-97"><path stroke-linejoin="round" stroke-miterlimit="1.414" d="M91 56.5h30v17H91z"/><path serif:id="path-5" d="M91 56.5h30v17H91z"/></g><path serif:id="Stroke-98" d="M96 62.004h21"/><path serif:id="Stroke-99" d="M98 67h17"/></g><g serif:id="post-it"><g serif:id="Stroke-97"><path stroke-linejoin="round" stroke-miterlimit="1.414" d="M132 68.5h30v17h-30z"/><path serif:id="path-7" d="M132 68.5h30v17h-30z"/></g><path serif:id="Stroke-98" d="M137 74.004h21"/><path serif:id="Stroke-99" d="M139 79h17"/></g><g serif:id="post-it"><g serif:id="Stroke-97"><path stroke-linejoin="round" stroke-miterlimit="1.414" d="M27 69.5h30v17H27z"/><path serif:id="path-9" d="M27 69.5h30v17H27z"/></g><path serif:id="Stroke-98" d="M32 75.004h21"/><path serif:id="Stroke-99" d="M34 80h17"/></g><g serif:id="post-it"><g serif:id="Stroke-97"><path stroke-linejoin="round" stroke-miterlimit="1.414" d="M42 109.5h30v17H42z"/><path serif:id="path-11" d="M42 109.5h30v17H42z"/></g><path serif:id="Stroke-98" d="M47 115.004h21"/><path serif:id="Stroke-99" d="M49 120h17"/></g><g serif:id="post-it"><g serif:id="Stroke-97"><path stroke-linejoin="round" stroke-miterlimit="1.414" d="M50 132.5h30v17H50z"/><path serif:id="path-13" d="M50 132.5h30v17H50z"/></g><path serif:id="Stroke-98" d="M55 138.004h21"/><path serif:id="Stroke-99" d="M57 143h17"/></g><g serif:id="post-it"><g serif:id="Stroke-97"><path stroke-linejoin="round" stroke-miterlimit="1.414" d="M125 109.5h30v17h-30z"/><path serif:id="path-15" d="M125 109.5h30v17h-30z"/></g><path serif:id="Stroke-98" d="M130 115.004h21"/><path serif:id="Stroke-99" d="M132 120h17"/></g><g serif:id="post-it"><g serif:id="Stroke-97"><path stroke-linejoin="round" stroke-miterlimit="1.414" d="M182 104.5h30v17h-30z"/><path serif:id="path-17" d="M182 104.5h30v17h-30z"/></g><path serif:id="Stroke-98" d="M187 110.004h21"/><path serif:id="Stroke-99" d="M189 115h17"/></g><g serif:id="post-it"><g serif:id="Stroke-97"><path stroke-linejoin="round" stroke-miterlimit="1.414" d="M196 146.5h30v17h-30z"/><path serif:id="path-19" d="M196 146.5h30v17h-30z"/></g><path serif:id="Stroke-98" d="M201 152.004h21"/><path serif:id="Stroke-99" d="M203 157h17"/></g><g serif:id="post-it"><g serif:id="Stroke-97"><path stroke-linejoin="round" stroke-miterlimit="1.414" d="M175 48.5h30v17h-30z"/><path serif:id="path-21" d="M175 48.5h30v17h-30z"/></g><path serif:id="Stroke-98" d="M180 54.004h21"/><path serif:id="Stroke-99" d="M182 59h17"/></g><g serif:id="post-it"><g serif:id="Stroke-97"><path stroke-linejoin="round" stroke-miterlimit="1.414" d="M212 57.5h30v17h-30z"/><path serif:id="path-23" d="M212 57.5h30v17h-30z"/></g><path serif:id="Stroke-98" d="M217 63.004h21"/><path serif:id="Stroke-99" d="M219 68h17"/></g><g serif:id="post-it"><g serif:id="Stroke-97"><path stroke-linejoin="round" stroke-miterlimit="1.414" d="M218 34.5h30v17h-30z"/><path serif:id="path-25" d="M218 34.5h30v17h-30z"/></g><path serif:id="Stroke-98" d="M223 40.004h21"/><path serif:id="Stroke-99" d="M225 45h17"/></g><g serif:id="post-it"><g serif:id="Stroke-97"><path stroke-linejoin="round" stroke-miterlimit="1.414" d="M280 69.5h30v17h-30z"/><path serif:id="path-27" d="M280 69.5h30v17h-30z"/></g><path serif:id="Stroke-98" d="M285 75.004h21"/><path serif:id="Stroke-99" d="M287 80h17"/></g><g serif:id="post-it"><g serif:id="Stroke-97"><path stroke-linejoin="round" stroke-miterlimit="1.414" d="M287 104.5h30v17h-30z"/><path serif:id="path-29" d="M287 104.5h30v17h-30z"/></g><path serif:id="Stroke-98" d="M292 110.004h21"/><path serif:id="Stroke-99" d="M294 115h17"/></g><g serif:id="post-it"><g serif:id="Stroke-97"><path serif:id="path-31" stroke-linejoin="round" stroke-miterlimit="1.414" d="M246 118.5h30v17h-30z"/><path serif:id="path-31" d="M246 118.5h30v17h-30z"/></g><path serif:id="Stroke-98" d="M251 124.004h21"/><path serif:id="Stroke-99" d="M253 129h17"/></g><g serif:id="post-it"><g serif:id="Stroke-97"><path stroke-linejoin="round" stroke-miterlimit="1.414" d="M105 146.5h30v17h-30z"/><path serif:id="path-33" d="M105 146.5h30v17h-30z"/></g><path serif:id="Stroke-98" d="M110 152.004h21"/><path serif:id="Stroke-99" d="M112 157h17"/></g><g serif:id="post-it"><g serif:id="Stroke-97"><path stroke-linejoin="round" stroke-miterlimit="1.414" d="M105 173.5h30v17h-30z"/><path serif:id="path-35" d="M105 173.5h30v17h-30z"/></g><path serif:id="Stroke-98" d="M110 179.004h21"/><path serif:id="Stroke-99" d="M112 184h17"/></g><g serif:id="post-it"><g serif:id="Stroke-97"><path stroke-linejoin="round" stroke-miterlimit="1.414" d="M105 215.5h30v17h-30z"/><path serif:id="path-37" d="M105 215.5h30v17h-30z"/></g><path serif:id="Stroke-98" d="M110 221.004h21"/><path serif:id="Stroke-99" d="M112 226h17"/></g><g serif:id="post-it"><g serif:id="Stroke-97"><path stroke-linejoin="round" stroke-miterlimit="1.414" d="M50 188.5h30v17H50z"/><path serif:id="path-39" d="M50 188.5h30v17H50z"/></g><path serif:id="Stroke-98" d="M55 194.004h21"/><path serif:id="Stroke-99" d="M57 199h17"/></g><g serif:id="post-it"><g serif:id="Stroke-97"><path stroke-linejoin="round" stroke-miterlimit="1.414" d="M35.5 216.5h30v17h-30z"/><path serif:id="path-41" d="M35.5 216.5h30v17h-30z"/></g><path serif:id="Stroke-98" d="M40.5 222.004H62"/><path serif:id="Stroke-99" d="M42.5 227H60"/></g><g serif:id="post-it"><g serif:id="Stroke-97"><path stroke-linejoin="round" stroke-miterlimit="1.414" d="M28 251.5h30v17H28z"/><path serif:id="path-43" d="M28 251.5h30v17H28z"/></g><path serif:id="Stroke-98" d="M33 257.004h21"/><path serif:id="Stroke-99" d="M35 262h17"/></g><g serif:id="post-it"><g serif:id="Stroke-97"><path stroke-linejoin="round" stroke-miterlimit="1.414" d="M78 272.5h30v17H78z"/><path serif:id="path-45" d="M78 272.5h30v17H78z"/></g><path serif:id="Stroke-98" d="M83 278.004h21"/><path serif:id="Stroke-99" d="M85 283h17"/></g><g serif:id="post-it"><g serif:id="Stroke-97"><path stroke-linejoin="round" stroke-miterlimit="1.414" d="M78 300.5h30v17H78z"/><path serif:id="path-47" d="M78 300.5h30v17H78z"/></g><path serif:id="Stroke-98" d="M83 306.004h21"/><path serif:id="Stroke-99" d="M85 311h17"/></g><g serif:id="post-it"><g serif:id="Stroke-97"><path stroke-linejoin="round" stroke-miterlimit="1.414" d="M125 263.5h30v17h-30z"/><path serif:id="path-49" d="M125 263.5h30v17h-30z"/></g><path serif:id="Stroke-98" d="M130 269.004h21"/><path serif:id="Stroke-99" d="M132 274h17"/></g><g serif:id="post-it"><g serif:id="Stroke-97"><path serif:id="path-51" stroke-linejoin="round" stroke-miterlimit="1.414" d="M119 286.5h30v17h-30z"/><path serif:id="path-51" d="M119 286.5h30v17h-30z"/></g><path serif:id="Stroke-98" d="M124 292.004h21"/><path serif:id="Stroke-99" d="M126 297h17"/></g><g serif:id="post-it"><g serif:id="Stroke-97"><path stroke-linejoin="round" stroke-miterlimit="1.414" d="M217 263.5h30v17h-30z"/><path serif:id="path-53" d="M217 263.5h30v17h-30z"/></g><path serif:id="Stroke-98" d="M222 269.004h21"/><path serif:id="Stroke-99" d="M224 274h17"/></g><g serif:id="post-it"><g serif:id="Stroke-97"><path stroke-linejoin="round" stroke-miterlimit="1.414" d="M190 286.5h30v17h-30z"/><path serif:id="path-55" d="M190 286.5h30v17h-30z"/></g><path serif:id="Stroke-98" d="M195 292.004h21"/><path serif:id="Stroke-99" d="M197 297h17"/></g><g serif:id="post-it"><g serif:id="Stroke-97"><path stroke-linejoin="round" stroke-miterlimit="1.414" d="M231 292.5h30v17h-30z"/><path serif:id="path-57" d="M231 292.5h30v17h-30z"/></g><path serif:id="Stroke-98" d="M236 298.004h21"/><path serif:id="Stroke-99" d="M238 303h17"/></g><g serif:id="post-it"><g serif:id="Stroke-97"><path stroke-linejoin="round" stroke-miterlimit="1.414" d="M189 215.5h30v17h-30z"/><path serif:id="path-59" d="M189 215.5h30v17h-30z"/></g><path serif:id="Stroke-98" d="M194 221.004h21"/><path serif:id="Stroke-99" d="M196 226h17"/></g><g serif:id="post-it"><g serif:id="Stroke-97"><path stroke-linejoin="round" stroke-miterlimit="1.414" d="M203 174.5h30v17h-30z"/><path serif:id="path-61" d="M203 174.5h30v17h-30z"/></g><path serif:id="Stroke-98" d="M208 180.004h21"/><path serif:id="Stroke-99" d="M210 185h17"/></g><g serif:id="post-it"><g serif:id="Stroke-97"><path stroke-linejoin="round" stroke-miterlimit="1.414" d="M246 189.5h30v17h-30z"/><path serif:id="path-63" d="M246 189.5h30v17h-30z"/></g><path serif:id="Stroke-98" d="M251 195.004h21"/><path serif:id="Stroke-99" d="M253 200h17"/></g><g serif:id="post-it"><g serif:id="Stroke-97"><path stroke-linejoin="round" stroke-miterlimit="1.414" d="M258 216.5h30v17h-30z"/><path serif:id="path-65" d="M258 216.5h30v17h-30z"/></g><path serif:id="Stroke-98" d="M263 222.004h21"/><path serif:id="Stroke-99" d="M265 227h17"/></g></g><g serif:id="Stroke-97" fill="#fff" stroke="#385af1"><path serif:id="path-5" stroke-linejoin="round" stroke-miterlimit="1.414" d="M91 56.5h30v17H91z"/><path serif:id="path-5" d="M91 56.5h30v17H91z"/></g><g serif:id="Stroke-97" fill="#fff" stroke="#385af1"><path serif:id="path-11" stroke-linejoin="round" stroke-miterlimit="1.414" d="M42 109.5h30v17H42z"/><path serif:id="path-11" d="M42 109.5h30v17H42z"/></g><g serif:id="Stroke-97" fill="#fff" stroke="#385af1"><path serif:id="path-15" stroke-linejoin="round" stroke-miterlimit="1.414" d="M125 109.5h30v17h-30z"/><path serif:id="path-15" d="M125 109.5h30v17h-30z"/></g><g serif:id="Stroke-97" fill="#fff" stroke="#385af1"><path serif:id="path-17" stroke-linejoin="round" stroke-miterlimit="1.414" d="M182 104.5h30v17h-30z"/><path serif:id="path-17" d="M182 104.5h30v17h-30z"/></g><g serif:id="Stroke-97" fill="#fff" stroke="#385af1"><path serif:id="path-23" stroke-linejoin="round" stroke-miterlimit="1.414" d="M212 57.5h30v17h-30z"/><path serif:id="path-23" d="M212 57.5h30v17h-30z"/></g><g serif:id="Stroke-97" fill="#fff" stroke="#385af1"><path serif:id="path-27" stroke-linejoin="round" stroke-miterlimit="1.414" d="M280 69.5h30v17h-30z"/><path serif:id="path-27" d="M280 69.5h30v17h-30z"/></g><g serif:id="Stroke-97" fill="#fff" stroke="#385af1"><path serif:id="path-37" stroke-linejoin="round" stroke-miterlimit="1.414" d="M105 215.5h30v17h-30z"/><path serif:id="path-37" d="M105 215.5h30v17h-30z"/></g><g serif:id="Stroke-97" fill="#fff" stroke="#385af1"><path serif:id="path-41" stroke-linejoin="round" stroke-miterlimit="1.414" d="M35.5 216.5h30v17h-30z"/><path serif:id="path-41" d="M35.5 216.5h30v17h-30z"/></g><g serif:id="Stroke-97" fill="#fff" stroke="#385af1"><path serif:id="path-45" stroke-linejoin="round" stroke-miterlimit="1.414" d="M78 272.5h30v17H78z"/><path serif:id="path-45" d="M78 272.5h30v17H78z"/></g><g serif:id="Stroke-97" fill="#fff" stroke="#385af1"><path serif:id="path-53" stroke-linejoin="round" stroke-miterlimit="1.414" d="M217 263.5h30v17h-30z"/><path serif:id="path-53" d="M217 263.5h30v17h-30z"/></g><g serif:id="Stroke-97" fill="#fff" stroke="#385af1"><path serif:id="path-59" stroke-linejoin="round" stroke-miterlimit="1.414" d="M189 215.5h30v17h-30z"/><path serif:id="path-59" d="M189 215.5h30v17h-30z"/></g><g serif:id="Stroke-97" fill="#fff" stroke="#385af1"><path serif:id="path-65" stroke-linejoin="round" stroke-miterlimit="1.414" d="M258 216.5h30v17h-30z"/><path serif:id="path-65" d="M258 216.5h30v17h-30z"/></g><g><path d="M198 122.5l-18.604 29.192M158 150.5L140.5 127" fill="none" stroke="#385af1"/><path d="M181 187.5l24.149 27.515" fill="none" stroke="#385af1" serif:id="Stroke-1"/><path d="M258 225h-38.5" fill="none" stroke="#385af1"/><path d="M273 235.5L247.5 263" fill="none" stroke="#385af1" serif:id="Stroke-5"/><path d="M93 272.5l27.5-39.5M212 104.5l16-29M124 117.5H73M122 119.5l2-2-2-2M90.5 74L56 108.5M135.5 215l22.5-27.5M77 270.5l-27-37M242 66l36.995 12" fill="none" stroke="#385af1"/><path d="M221.987 227l-2-2 2-2M270.679 234.98h2.828v2.828M75.242 271.005l2.506-.001V268.5M183.333 187h-2.828v2.829M155.668 187.001h2.828v2.828M195.277 123.148l2.794-.442.442 2.794" fill="none" stroke="#385af1" serif:id="Path-2"/><path d="M225.365 76.178l2.794-.443.442 2.794" fill="none" stroke="#385af1"/><path d="M155.668 150.996h2.828v-2.829" fill="none" stroke="#385af1" serif:id="Path-2"/><path d="M276.545 79.257l2.45-1.414-1.415-2.45" fill="none" stroke="#385af1"/><path d="M58.91 107.996h-2.828v-2.828" fill="none" stroke="#385af1" serif:id="Path-2"/><g serif:id="Path-2"><path d="M117.554 233.908h2.828v2.828" fill="none" stroke="#385af1"/></g></g><g fill="none" stroke="#385af1"><path serif:id="Stroke-38" d="M198.496 225.5h10l-4.016 4.5"/><path serif:id="Stroke-39" d="M203.396 218l-3.9 4.5h10"/></g><g><path d="M145 117.965c0-2.466-2.126-4.465-4.75-4.465-2.623 0-4.575 2.004-4.75 4.465l4.806 5.035 4.694-5.035z" fill="none" stroke="#385af1"/></g><g fill="none" stroke="#385af1"><path serif:id="Stroke-5" d="M120.136 218.478l-5.5 5.501 5.5 5.499 5.5-5.499-5.5-5.501z"/><path d="M117.637 221.478l5.278 5.329"/></g><g fill="none" stroke="#385af1"><path serif:id="Stroke-10" d="M197 118a5 5 0 1 0 0-10 5 5 0 0 0 0 10z"/><path serif:id="Stroke-12" d="M193.5 109.5l7 7"/></g><g fill="none" stroke="#385af1"><path serif:id="Stroke-25" d="M227.354 69.96a4.5 4.5 0 1 0 0-9 4.5 4.5 0 0 0 0 9z"/><path d="M222.75 70.5a1.25 1.25 0 1 0 0-2.5 1.25 1.25 0 0 0 0 2.5z"/></g><g fill="none" stroke="#385af1"><path d="M278.895 222.879l-7.735 7.723M277.247 221.247l-7.735 7.723M270.841 223.731a1.22 1.22 0 1 0 .002-2.44 1.22 1.22 0 0 0-.002 2.44z"/></g><g fill="none" stroke="#385af1"><path d="M301 76l-6.094 5.5L289 76.237"/><path d="M295 76.5a1.25 1.25 0 1 0 0-2.5 1.25 1.25 0 0 0 0 2.5z"/></g><g fill="none" stroke="#385af1"><path serif:id="Stroke-7" d="M236.603 277.024v-7.481l-7.441 7.441"/><path d="M227.061 267.465h7.447l-7.441 7.441"/></g><g fill="none" stroke="#385af1"><path serif:id="Stroke-1" d="M88.516 276.628h9v9h-9z"/><path serif:id="Stroke-3" d="M97.516 285.128l-8.61-8.359"/></g><g fill="none" stroke="#385af1"><path d="M46.375 224.341v5.041h10.319l-5.002-5.041h-5.317z"/><path serif:id="Stroke-31" d="M51.697 221.299a1.22 1.22 0 1 0 0-2.44 1.22 1.22 0 0 0 0 2.44z"/></g><g fill="none" stroke="#385af1"><path d="M57.173 115.213c.69 0 1.25-.537 1.25-1.2 0-.662-.56-1.2-1.25-1.2-.691 0-1.25.538-1.25 1.2 0 .663.559 1.2 1.25 1.2zM51.613 118.208h10.433l-5.28 5.253"/></g><g fill="none" stroke="#385af1"><path serif:id="Stroke-21" d="M106 70a5 5 0 1 0 0-10 5 5 0 0 0 0 10z"/><path d="M106 66.5a1.5 1.5 0 1 0 0-3 1.5 1.5 0 0 0 0 3z"/></g><g fill="none" stroke="#385af1"><path d="M169.113 165.873l-5.336 5.336 5.336 5.335 5.336-5.335-5.336-5.336z"/><path serif:id="Stroke-43" d="M169.113 173.286a2.077 2.077 0 1 0 0-4.154 2.077 2.077 0 0 0 0 4.154z"/><path d="M169.076 165.865a3.763 3.763 0 1 0-5.33 5.313M169.151 165.865a3.763 3.763 0 1 1 5.33 5.313"/></g></g></svg>